<svg width="62" height="58" viewBox="0 0 62 58" fill="none" xmlns="http://www.w3.org/2000/svg">
<rect x="16.4875" y="0.5" width="29.0251" height="28.0262" rx="3.5" stroke="#607274"/>
<path d="M43.8651 25.5034C41.9613 22.2122 39.0276 19.8521 35.6038 18.7334C37.2974 17.7252 38.6132 16.189 39.3491 14.3606C40.0851 12.5323 40.2005 10.5129 39.6777 8.6126C39.1548 6.71229 38.0227 5.03614 36.4551 3.84156C34.8874 2.64697 32.971 2 31.0001 2C29.0292 2 27.1128 2.64697 25.5451 3.84156C23.9775 5.03614 22.8453 6.71229 22.3225 8.6126C21.7997 10.5129 21.9151 12.5323 22.6511 14.3606C23.387 16.189 24.7028 17.7252 26.3963 18.7334C22.9726 19.8509 20.0388 22.2109 18.1351 25.5034C18.0653 25.6172 18.019 25.7439 17.9989 25.8759C17.9788 26.0079 17.9854 26.1426 18.0182 26.2721C18.0511 26.4015 18.1095 26.5231 18.1901 26.6296C18.2707 26.7361 18.3717 26.8253 18.4874 26.8921C18.603 26.9589 18.7308 27.0019 18.8634 27.0185C18.9959 27.035 19.1303 27.0249 19.2589 26.9887C19.3874 26.9525 19.5074 26.8909 19.6117 26.8075C19.716 26.7242 19.8026 26.6208 19.8663 26.5034C22.2213 22.4334 26.3838 20.0034 31.0001 20.0034C35.6163 20.0034 39.7788 22.4334 42.1338 26.5034C42.1976 26.6208 42.2842 26.7242 42.3885 26.8075C42.4928 26.8909 42.6128 26.9525 42.7413 26.9887C42.8698 27.0249 43.0043 27.035 43.1368 27.0185C43.2693 27.0019 43.3972 26.9589 43.5128 26.8921C43.6284 26.8253 43.7295 26.7361 43.8101 26.6296C43.8907 26.5231 43.9491 26.4015 43.9819 26.2721C44.0148 26.1426 44.0213 26.0079 44.0013 25.8759C43.9812 25.7439 43.9349 25.6172 43.8651 25.5034ZM24.0001 11.0034C24.0001 9.61893 24.4106 8.26555 25.1798 7.11441C25.949 5.96327 27.0422 5.06606 28.3213 4.53624C29.6004 4.00643 31.0079 3.86781 32.3657 4.1379C33.7236 4.408 34.9709 5.07469 35.9498 6.05365C36.9288 7.03262 37.5955 8.2799 37.8656 9.63777C38.1357 10.9956 37.9971 12.4031 37.4673 13.6822C36.9374 14.9613 36.0402 16.0545 34.8891 16.8237C33.7379 17.5929 32.3846 18.0034 31.0001 18.0034C29.1442 18.0014 27.3649 17.2633 26.0525 15.951C24.7402 14.6386 24.0021 12.8593 24.0001 11.0034Z" fill="#607274"/>
<path d="M10.2052 50.1462H4.84523L3.88523 53.0262H0.885234L5.96523 38.7062H9.22523L14.1852 53.0262H11.1452L10.2052 50.1462ZM9.40523 47.6862L7.54523 42.0862L5.66523 47.6862H9.40523ZM25.2649 38.7062V53.0262H22.5049V51.8462C21.8649 52.7795 20.8983 53.2462 19.6049 53.2462C18.2049 53.2462 17.0783 52.6595 16.2249 51.4862C15.4916 50.4862 15.1249 49.2395 15.1249 47.7462C15.1249 45.9729 15.5916 44.5729 16.5249 43.5462C17.3383 42.6529 18.3583 42.2062 19.5849 42.2062C20.8783 42.2062 21.8516 42.6995 22.5049 43.6862V38.7062H25.2649ZM20.2049 44.4662C19.5116 44.4662 18.9516 44.7662 18.5249 45.3662C18.0983 45.9662 17.8849 46.7529 17.8849 47.7262C17.8849 48.6862 18.0916 49.4662 18.5049 50.0662C18.9316 50.6529 19.4983 50.9462 20.2049 50.9462C20.9116 50.9462 21.4716 50.6529 21.8849 50.0662C22.3116 49.4795 22.5249 48.6995 22.5249 47.7262C22.5249 46.7395 22.3116 45.9529 21.8849 45.3662C21.4583 44.7662 20.8983 44.4662 20.2049 44.4662ZM27.8552 42.4262H30.5952V43.7062C31.4086 42.7062 32.3752 42.2062 33.4952 42.2062C34.8686 42.2062 35.8286 42.7262 36.3752 43.7662C37.1752 42.7262 38.2086 42.2062 39.4752 42.2062C40.5419 42.2062 41.3686 42.4995 41.9552 43.0862C42.5552 43.6595 42.8552 44.4595 42.8552 45.4862V53.0262H40.1152V45.9262C40.1152 45.0062 39.6152 44.5462 38.6152 44.5462C38.0286 44.5462 37.5686 44.7329 37.2352 45.1062C36.9019 45.4662 36.7352 45.9729 36.7352 46.6262V53.0262H33.9752V45.9262C33.9752 45.0062 33.4819 44.5462 32.4952 44.5462C31.9086 44.5462 31.4486 44.7329 31.1152 45.1062C30.7819 45.4662 30.6152 45.9729 30.6152 46.6262V53.0262H27.8552V42.4262ZM48.1943 42.4262V53.0262H45.4343V42.4262H48.1943ZM46.7943 38.7862C47.1543 38.7862 47.4543 38.9129 47.6943 39.1662C47.9476 39.4195 48.0743 39.7262 48.0743 40.0862C48.0743 40.4462 47.9476 40.7529 47.6943 41.0062C47.4543 41.2462 47.1543 41.3662 46.7943 41.3662C46.4343 41.3662 46.1276 41.2462 45.8743 41.0062C45.621 40.7529 45.4943 40.4462 45.4943 40.0862C45.4943 39.7262 45.621 39.4195 45.8743 39.1662C46.1276 38.9129 46.4343 38.7862 46.7943 38.7862ZM50.863 42.4262H53.623V43.9262C54.3697 42.7795 55.423 42.2062 56.783 42.2062C57.9964 42.2062 58.9164 42.5662 59.543 43.2862C60.0764 43.9262 60.343 44.7929 60.343 45.8862V53.0262H57.603V46.4462C57.603 45.1795 57.0097 44.5462 55.823 44.5462C55.1564 44.5462 54.623 44.7395 54.223 45.1262C53.823 45.4995 53.623 45.9995 53.623 46.6262V53.0262H50.863V42.4262Z" fill="#607274"/>
</svg>
