<svg width="24" height="30" viewBox="0 0 24 30" fill="none" xmlns="http://www.w3.org/2000/svg">
<path d="M17.8256 5.5C15.305 5.5 14.2398 6.84557 12.4844 6.84557C10.6847 6.84557 9.3119 5.50979 7.12769 5.50979C4.98974 5.50979 2.70988 6.97006 1.26207 9.45769C-0.770856 12.9657 -0.425783 19.5726 2.86679 25.201C4.04454 27.2159 5.61737 29.4755 7.6803 29.5H7.71781C9.51069 29.5 10.0433 28.1866 12.5107 28.1712H12.5482C14.9787 28.1712 15.4663 29.4923 17.2517 29.4923H17.2892C19.3521 29.4678 21.0094 26.9641 22.1871 24.9569C23.0348 23.5135 23.3499 22.7889 24 21.1559C19.2371 19.1334 18.472 11.5796 23.1823 8.6835C21.7445 6.66933 19.7241 5.5028 17.8193 5.5028L17.8256 5.5Z" fill="white"/>
<path d="M17.945 0.5C16.3904 0.575624 14.5767 1.28454 13.5143 2.21012C12.5505 3.04895 11.7576 4.29326 12.0686 5.5H12.1929C13.8486 5.5 15.5431 4.78598 16.5329 3.87107C17.4864 3.00023 18.2092 1.76612 17.945 0.5Z" fill="white"/>
</svg>
