<svg width="26" height="22" viewBox="0 0 26 22" fill="none" xmlns="http://www.w3.org/2000/svg">
<path d="M26.0001 14C25.9977 16.121 25.1541 18.1545 23.6544 19.6543C22.1546 21.1541 20.1211 21.9977 18.0001 22H7.00005C6.73484 22 6.48048 21.8946 6.29295 21.7071C6.10541 21.5196 6.00005 21.2652 6.00005 21C6.00005 20.7348 6.10541 20.4804 6.29295 20.2929C6.48048 20.1054 6.73484 20 7.00005 20H18.0001C19.5914 20 21.1175 19.3679 22.2427 18.2426C23.3679 17.1174 24.0001 15.5913 24.0001 14C24.0001 12.4087 23.3679 10.8826 22.2427 9.75735C21.1175 8.63214 19.5914 7.99999 18.0001 7.99999H8.00005V13C8.00021 13.1979 7.94165 13.3914 7.83177 13.556C7.7219 13.7206 7.56567 13.8489 7.38284 13.9246C7.20002 14.0004 6.99883 14.0202 6.80475 13.9815C6.61066 13.9429 6.43241 13.8475 6.29255 13.7075L0.292554 7.70749C0.199578 7.61462 0.125819 7.50433 0.0754943 7.38293C0.02517 7.26154 -0.000732422 7.13141 -0.000732422 6.99999C-0.000732422 6.86858 0.02517 6.73845 0.0754943 6.61705C0.125819 6.49566 0.199578 6.38537 0.292554 6.29249L6.29255 0.292494C6.43241 0.152483 6.61066 0.0571152 6.80475 0.0184648C6.99883 -0.0201856 7.20002 -0.000380963 7.38284 0.0753715C7.56567 0.151124 7.7219 0.279418 7.83177 0.444012C7.94165 0.608606 8.00021 0.802098 8.00005 0.999994V5.99999H18.0001C20.1211 6.00231 22.1546 6.84591 23.6544 8.3457C25.1541 9.84549 25.9977 11.879 26.0001 14Z" fill="#F9F3E4"/>
</svg>
