<svg width="26" height="16" viewBox="0 0 26 16" fill="none" xmlns="http://www.w3.org/2000/svg">
<path fill-rule="evenodd" clip-rule="evenodd" d="M4.66375 7.7791L7.865 11.0181C7.98474 11.131 8.08078 11.2672 8.14739 11.4184C8.21401 11.5697 8.24982 11.733 8.25271 11.8986C8.2556 12.0641 8.2255 12.2286 8.1642 12.3821C8.1029 12.5357 8.01167 12.6752 7.89594 12.7923C7.78021 12.9094 7.64235 13.0017 7.4906 13.0637C7.33884 13.1257 7.17629 13.1562 7.01265 13.1533C6.84901 13.1503 6.68762 13.1141 6.53813 13.0467C6.38863 12.9793 6.25408 12.8821 6.1425 12.761L0.86125 7.41738L0 6.54596L0.86125 5.67455L6.1425 0.33096C6.37353 0.113139 6.67911 -0.00544449 6.99485 0.000192118C7.31059 0.00582872 7.61184 0.135245 7.83514 0.361177C8.05843 0.587109 8.18634 0.891915 8.19191 1.21138C8.19748 1.53085 8.08028 1.84003 7.865 2.07379L4.66375 5.31283H20.7188C22.1194 5.31283 23.4627 5.87581 24.4532 6.87793C25.4436 7.88004 26 9.23921 26 10.6564C26 12.0736 25.4436 13.4328 24.4532 14.4349C23.4627 15.437 22.1194 16 20.7188 16H17.4688C17.1455 16 16.8355 15.8701 16.607 15.6388C16.3784 15.4076 16.25 15.0939 16.25 14.7669C16.25 14.4398 16.3784 14.1262 16.607 13.8949C16.8355 13.6636 17.1455 13.5337 17.4688 13.5337H20.7188C21.473 13.5337 22.1963 13.2306 22.7296 12.691C23.2629 12.1514 23.5625 11.4195 23.5625 10.6564C23.5625 9.8933 23.2629 9.16144 22.7296 8.62184C22.1963 8.08224 21.473 7.7791 20.7188 7.7791H4.66375Z" fill="#B2675E"/>
</svg>
