<svg width="140" height="142" viewBox="0 0 140 142" fill="none" xmlns="http://www.w3.org/2000/svg">
<mask id="mask0_204_2036" style="mask-type:luminance" maskUnits="userSpaceOnUse" x="0" y="0" width="140" height="142">
<path fill-rule="evenodd" clip-rule="evenodd" d="M0 0.000686646H139.668V142H0V0.000686646Z" fill="white"/>
</mask>
<g mask="url(#mask0_204_2036)">
<path fill-rule="evenodd" clip-rule="evenodd" d="M69.8313 123.069C41.0763 123.069 17.7631 99.7534 17.7631 71.0007C17.7631 42.2434 41.0763 18.9325 69.8313 18.9325C98.5863 18.9325 121.899 42.2434 121.899 71.0007C121.899 99.7534 98.5863 123.069 69.8313 123.069ZM138.03 83.2035L134.757 82.1385C133.667 81.7812 132.985 80.6888 133.147 79.5527C133.924 73.8727 133.924 68.1195 133.147 62.4486C132.985 61.3126 133.667 60.2201 134.757 59.8628L138.03 58.7978C139.274 58.3948 139.956 57.0618 139.551 55.8181L135.158 42.3098C134.757 41.0662 133.424 40.3837 132.19 40.789L128.899 41.8517C127.813 42.2022 126.624 41.7166 126.095 40.7066C123.377 35.6587 119.985 31.0094 116.032 26.8662C115.225 26.0439 115.127 24.7728 115.798 23.8429L117.839 21.0442C118.599 19.9883 118.365 18.5019 117.31 17.7324L105.821 9.39559C104.759 8.62604 103.281 8.85736 102.514 9.9132L100.492 12.7028C99.8093 13.635 98.5588 13.9304 97.5396 13.4197C92.3772 10.9324 86.9125 9.15282 81.276 8.13362C80.1377 7.94582 79.3155 6.96098 79.3063 5.81582V2.38033C79.3063 1.74591 79.0544 1.14585 78.6169 0.699235C78.1703 0.250332 77.5611 0.000686646 76.9358 0.000686646H62.7267C61.4212 0.000686646 60.3654 1.05653 60.3654 2.35972V5.7952C60.3562 6.95182 59.5248 7.92749 58.398 8.1153C52.7615 9.14365 47.2945 10.9255 42.1321 13.4105C41.1037 13.9213 39.8601 13.6144 39.1799 12.6868L37.1484 9.9132C36.3811 8.85736 34.9038 8.62604 33.8388 9.39559L22.3529 17.7324C21.297 18.5019 21.0634 19.9792 21.833 21.0442L23.8645 23.8315C24.5355 24.7728 24.4371 26.0439 23.6309 26.8662C19.6778 31.0094 16.295 35.6587 13.5764 40.7066C13.0381 41.7166 11.8586 42.2022 10.7661 41.8517L7.48181 40.789C6.23816 40.3837 4.90519 41.0662 4.50439 42.3007L0.111549 55.8181C-0.282386 57.0618 0.39784 58.3856 1.63232 58.7978L4.91436 59.8628C6.00684 60.2201 6.6779 61.3126 6.51529 62.4486C5.73887 68.1195 5.73887 73.8727 6.51529 79.5436C6.6779 80.6888 6.00684 81.7812 4.91436 82.1385L1.63232 83.2035C0.39784 83.6066 -0.282386 84.9396 0.111549 86.1832L4.50439 99.6916C4.90519 100.935 6.23816 101.615 7.48181 101.212L10.7661 100.147C11.8586 99.7992 13.0381 100.282 13.5764 101.292C16.295 106.329 19.6778 110.992 23.6309 115.133C24.4371 115.948 24.5355 117.226 23.8645 118.156L21.833 120.957C21.0634 122.013 21.297 123.49 22.3529 124.26L33.8388 132.606C34.9038 133.375 36.3811 133.142 37.1484 132.088L39.1707 129.296C39.8509 128.366 41.1037 128.071 42.1229 128.579C47.2853 131.067 52.7523 132.849 58.3888 133.868C59.5248 134.056 60.347 135.04 60.3562 136.186V139.621C60.3562 140.255 60.6081 140.856 61.0456 141.302C61.4922 141.749 62.1014 142.001 62.7267 142.001H76.9358C78.2413 142.001 79.2972 140.945 79.2972 139.637V136.202C79.3063 135.047 80.1377 134.074 81.2668 133.886C86.9033 132.855 92.3657 131.076 97.5304 128.589C98.5588 128.08 99.8001 128.382 100.483 129.315L102.505 132.095C103.275 133.16 104.759 133.394 105.812 132.624L117.303 124.276C118.359 123.506 118.592 122.031 117.823 120.966L115.789 118.174C115.118 117.245 115.216 115.964 116.022 115.142C119.978 110.999 123.368 106.347 126.086 101.302C126.615 100.292 127.804 99.8084 128.89 100.156L132.181 101.221C133.415 101.625 134.748 100.944 135.151 99.7099L139.544 86.1901C139.739 85.6015 139.686 84.9465 139.409 84.383C139.123 83.8288 138.633 83.4005 138.03 83.2035Z" fill="#6B8199"/>
</g>
<path fill-rule="evenodd" clip-rule="evenodd" d="M101.628 53.5542C101.628 48.4994 97.8884 44.2394 92.8772 43.5867C87.8774 42.9339 83.1616 46.1106 81.8836 50.9867C80.6033 55.872 83.1433 60.9427 87.8224 62.8414V70.427L83.8075 74.435L87.8156 78.4523L83.8075 82.4695L87.8156 86.4775V91.175L91.59 96.1931L95.3576 91.175V62.8414C99.1412 61.3115 101.619 57.6332 101.628 53.5542Z" fill="#5AB3A0"/>
<path fill-rule="evenodd" clip-rule="evenodd" d="M49.2184 57.2581C49.2184 52.1942 53.3157 48.0968 58.3796 48.0968C63.4436 48.0968 67.5409 52.1942 67.5409 57.2581V66.4194H49.2184V57.2581ZM74.4119 66.4194H72.1216V57.2581C72.1216 49.6725 65.9652 43.5161 58.3796 43.5161C50.7941 43.5161 44.6377 49.6725 44.6377 57.2581V66.4194H42.3474C41.0854 66.4194 40.0571 67.4477 40.0571 68.7097V93.9032C40.0571 95.1652 41.0854 96.1935 42.3474 96.1935H74.4119C75.6739 96.1935 76.7022 95.1652 76.7022 93.9032V68.7097C76.7022 67.4477 75.6739 66.4194 74.4119 66.4194Z" fill="#D9777D"/>
<mask id="mask1_204_2036" style="mask-type:luminance" maskUnits="userSpaceOnUse" x="0" y="0" width="140" height="142">
<path fill-rule="evenodd" clip-rule="evenodd" d="M0 142H139.668V0H0V142Z" fill="white"/>
</mask>
<g mask="url(#mask1_204_2036)">
<path fill-rule="evenodd" clip-rule="evenodd" d="M56.09 84.7419H60.6706V77.871H56.09V84.7419Z" fill="#F5F5F5"/>
<path fill-rule="evenodd" clip-rule="evenodd" d="M94.4533 50.9597C94.4533 52.5423 93.1708 53.8226 91.5904 53.8226C90.0078 53.8226 88.7275 52.5423 88.7275 50.9597C88.7275 49.3771 90.0078 48.0968 91.5904 48.0968C93.1708 48.0968 94.4533 49.3771 94.4533 50.9597Z" fill="#F5F5F5"/>
</g>
</svg>
