<svg width="83" height="27" viewBox="0 0 83 27" fill="none" xmlns="http://www.w3.org/2000/svg">
<path d="M0.135625 20V13.644C0.135625 11.796 0.424958 10.312 1.00363 9.192C1.58229 8.05333 2.44096 7.232 3.57963 6.728C4.71829 6.20533 6.11829 5.944 7.77963 5.944C9.45963 5.944 10.869 6.20533 12.0076 6.728C13.1463 7.232 14.005 8.05333 14.5836 9.192C15.1623 10.312 15.4516 11.796 15.4516 13.644V20H0.135625ZM3.88763 18.432L2.09563 16.752H13.4916L11.7276 18.432V13.728C11.7276 12.608 11.6156 11.7213 11.3916 11.068C11.1676 10.396 10.7663 9.92 10.1876 9.64C9.62763 9.34133 8.82496 9.192 7.77963 9.192C6.75296 9.192 5.95029 9.34133 5.37163 9.64C4.81163 9.92 4.41963 10.396 4.19563 11.068C3.99029 11.7213 3.88763 12.608 3.88763 13.728V18.432ZM3.43963 3.368V0.176H7.05163V3.368H3.43963ZM8.53563 3.368V0.176H12.1476V3.368H8.53563ZM17.6903 20V16.752H27.8543L25.3063 18.964V14.26C25.3063 12.9347 25.1663 11.908 24.8863 11.18C24.625 10.452 24.177 9.93867 23.5423 9.64C22.9263 9.34133 22.077 9.192 20.9943 9.192H18.7263V5.944H20.9943C22.7116 5.944 24.1676 6.224 25.3623 6.784C26.5756 7.344 27.4903 8.24 28.1063 9.472C28.741 10.6853 29.0583 12.2813 29.0583 14.26V20H17.6903ZM44.8529 20V16.752H47.7929V20H44.8529ZM37.2929 26.944C36.6023 26.944 35.8743 26.888 35.1089 26.776C34.3623 26.6827 33.5596 26.552 32.7009 26.384L33.2609 23.388C34.1943 23.5 34.9876 23.584 35.6409 23.64C36.2943 23.696 36.8449 23.724 37.2929 23.724C38.6369 23.724 39.6076 23.4813 40.2049 22.996C40.8023 22.5107 41.1009 21.7827 41.1009 20.812V8.52L42.0249 9.192H38.5249C37.7596 9.192 37.1436 9.28533 36.6769 9.472C36.2103 9.64 35.8649 10.004 35.6409 10.564C35.4356 11.1053 35.3329 11.936 35.3329 13.056C35.3329 14.12 35.4263 14.9227 35.6129 15.464C35.8183 15.9867 36.1543 16.332 36.6209 16.5C37.0876 16.668 37.7223 16.752 38.5249 16.752H41.1009V20H38.5249C36.9383 20 35.6316 19.748 34.6049 19.244C33.5783 18.74 32.8129 17.9747 32.3089 16.948C31.8236 15.9213 31.5809 14.624 31.5809 13.056C31.5809 11.488 31.8236 10.1813 32.3089 9.136C32.8129 8.072 33.5783 7.27867 34.6049 6.756C35.6316 6.21467 36.9383 5.944 38.5249 5.944H44.8529V20.812C44.8529 22.0813 44.5356 23.1733 43.9009 24.088C43.2849 25.0213 42.4076 25.7307 41.2689 26.216C40.1489 26.7013 38.8236 26.944 37.2929 26.944ZM47.7929 20V16.752C47.9049 16.752 47.9889 16.7893 48.0449 16.864C48.1196 16.9387 48.1756 17.0507 48.2129 17.2C48.2689 17.3493 48.3063 17.5267 48.3249 17.732C48.3436 17.9187 48.3529 18.1333 48.3529 18.376C48.3529 18.6187 48.3436 18.8427 48.3249 19.048C48.3063 19.2533 48.2689 19.4307 48.2129 19.58C48.1756 19.7107 48.1196 19.8133 48.0449 19.888C47.9889 19.9627 47.9049 20 47.7929 20ZM47.7969 20V16.752H54.7969V20H47.7969ZM54.7969 20V16.752C54.9089 16.752 54.9929 16.7893 55.0489 16.864C55.1235 16.9387 55.1795 17.0507 55.2169 17.2C55.2729 17.3493 55.3102 17.5267 55.3289 17.732C55.3475 17.9187 55.3569 18.1333 55.3569 18.376C55.3569 18.6187 55.3475 18.8427 55.3289 19.048C55.3102 19.2533 55.2729 19.4307 55.2169 19.58C55.1795 19.7107 55.1235 19.8133 55.0489 19.888C54.9929 19.9627 54.9089 20 54.7969 20ZM47.7969 20C47.6849 20 47.6009 19.9627 47.5449 19.888C47.4702 19.8133 47.4142 19.7107 47.3769 19.58C47.3209 19.4307 47.2835 19.2533 47.2649 19.048C47.2462 18.8427 47.2369 18.6187 47.2369 18.376C47.2369 18.04 47.2555 17.76 47.2929 17.536C47.3302 17.2933 47.3955 17.1067 47.4889 16.976C47.5635 16.8267 47.6662 16.752 47.7969 16.752V20ZM54.7969 20V16.752H61.7969V20H54.7969ZM61.7969 20V16.752C61.9089 16.752 61.9929 16.7893 62.0489 16.864C62.1235 16.9387 62.1795 17.0507 62.2169 17.2C62.2729 17.3493 62.3102 17.5267 62.3289 17.732C62.3475 17.9187 62.3569 18.1333 62.3569 18.376C62.3569 18.6187 62.3475 18.8427 62.3289 19.048C62.3102 19.2533 62.2729 19.4307 62.2169 19.58C62.1795 19.7107 62.1235 19.8133 62.0489 19.888C61.9929 19.9627 61.9089 20 61.7969 20ZM54.7969 20C54.6849 20 54.6009 19.9627 54.5449 19.888C54.4702 19.8133 54.4142 19.7107 54.3769 19.58C54.3209 19.4307 54.2835 19.2533 54.2649 19.048C54.2462 18.8427 54.2369 18.6187 54.2369 18.376C54.2369 18.04 54.2555 17.76 54.2929 17.536C54.3302 17.2933 54.3955 17.1067 54.4889 16.976C54.5635 16.8267 54.6662 16.752 54.7969 16.752V20ZM61.7969 20V16.752H68.7969V20H61.7969ZM68.7969 20V16.752C68.9089 16.752 68.9929 16.7893 69.0489 16.864C69.1235 16.9387 69.1795 17.0507 69.2169 17.2C69.2729 17.3493 69.3102 17.5267 69.3289 17.732C69.3475 17.9187 69.3569 18.1333 69.3569 18.376C69.3569 18.6187 69.3475 18.8427 69.3289 19.048C69.3102 19.2533 69.2729 19.4307 69.2169 19.58C69.1795 19.7107 69.1235 19.8133 69.0489 19.888C68.9929 19.9627 68.9089 20 68.7969 20ZM61.7969 20C61.6849 20 61.6009 19.9627 61.5449 19.888C61.4702 19.8133 61.4142 19.7107 61.3769 19.58C61.3209 19.4307 61.2835 19.2533 61.2649 19.048C61.2462 18.8427 61.2369 18.6187 61.2369 18.376C61.2369 18.04 61.2555 17.76 61.2929 17.536C61.3302 17.2933 61.3955 17.1067 61.4889 16.976C61.5635 16.8267 61.6662 16.752 61.7969 16.752V20ZM74.0609 19.552C73.1089 18.656 72.3902 17.704 71.9049 16.696C71.4382 15.688 71.2049 14.6147 71.2049 13.476C71.2049 12.3747 71.4102 11.3667 71.8209 10.452C72.2315 9.51867 72.7915 8.716 73.5009 8.044C74.2102 7.372 75.0315 6.85867 75.9649 6.504C76.9169 6.13067 77.9155 5.944 78.9609 5.944C79.5209 5.944 80.1089 6 80.7249 6.112C81.3409 6.224 81.9289 6.37333 82.4889 6.56L81.3689 9.612C80.9769 9.48133 80.5849 9.37867 80.1929 9.304C79.8195 9.22933 79.4555 9.192 79.1009 9.192C78.2795 9.192 77.5515 9.37867 76.9169 9.752C76.2822 10.1067 75.7875 10.6013 75.4329 11.236C75.0969 11.8707 74.9289 12.5987 74.9289 13.42C74.9289 14.1667 75.0782 14.8667 75.3769 15.52C75.6942 16.1733 76.1422 16.7613 76.7209 17.284L74.0609 19.552ZM68.7969 20V16.752H82.7409V20H68.7969ZM68.7969 20C68.6849 20 68.6009 19.9627 68.5449 19.888C68.4702 19.8133 68.4142 19.7107 68.3769 19.58C68.3209 19.4307 68.2835 19.2533 68.2649 19.048C68.2462 18.8427 68.2369 18.6187 68.2369 18.376C68.2369 18.04 68.2555 17.76 68.2929 17.536C68.3302 17.2933 68.3955 17.1067 68.4889 16.976C68.5635 16.8267 68.6662 16.752 68.7969 16.752V20Z" fill="#B2675E"/>
</svg>
