<svg width="22" height="22" viewBox="0 0 22 22" fill="none" xmlns="http://www.w3.org/2000/svg">
<path d="M21.4213 3.85917L11.2675 0.47458C11.0938 0.416676 10.906 0.416676 10.7323 0.47458L0.578553 3.85917C0.410069 3.91533 0.263529 4.02309 0.159693 4.16717C0.0558559 4.31125 -1.316e-05 4.48435 2.32517e-09 4.66195V13.1234C2.32517e-09 13.3478 0.0891473 13.563 0.247831 13.7217C0.406514 13.8804 0.621735 13.9696 0.846147 13.9696C1.07056 13.9696 1.28578 13.8804 1.44446 13.7217C1.60315 13.563 1.69229 13.3478 1.69229 13.1234V5.83598L5.24505 7.01952C4.30113 8.5445 4.00097 10.3817 4.41047 12.1278C4.81997 13.8739 5.90567 15.3861 7.42917 16.3324C5.52534 17.0791 3.87958 18.4298 2.67594 20.2765C2.61334 20.3696 2.56986 20.4741 2.54802 20.5841C2.52619 20.6941 2.52643 20.8073 2.54874 20.9172C2.57105 21.0271 2.61499 21.1315 2.67798 21.2242C2.74098 21.317 2.82179 21.3963 2.91572 21.4576C3.00964 21.5189 3.11481 21.5608 3.2251 21.5811C3.33539 21.6014 3.44861 21.5995 3.55817 21.5756C3.66773 21.5517 3.77146 21.5063 3.86331 21.442C3.95517 21.3777 4.03332 21.2957 4.09323 21.2009C5.68716 18.7556 8.20445 17.3541 10.9999 17.3541C13.7954 17.3541 16.3126 18.7556 17.9066 21.2009C18.0307 21.3854 18.2224 21.5136 18.4403 21.5578C18.6581 21.6021 18.8847 21.5588 19.0709 21.4373C19.2571 21.3159 19.388 21.126 19.4353 20.9088C19.4827 20.6916 19.4426 20.4645 19.3239 20.2765C18.1202 18.4298 16.4681 17.0791 14.5706 16.3324C16.0927 15.3862 17.1773 13.8749 17.5868 12.1301C17.9962 10.3853 17.697 8.54934 16.7548 7.02481L21.4213 5.47002C21.5898 5.41388 21.7364 5.30614 21.8402 5.16206C21.9441 5.01798 22 4.84486 22 4.66724C22 4.48961 21.9441 4.3165 21.8402 4.17241C21.7364 4.02833 21.5898 3.92059 21.4213 3.86445V3.85917ZM16.0768 10.585C16.077 11.3876 15.8869 12.1788 15.5222 12.8938C15.1574 13.6087 14.6283 14.227 13.9783 14.6979C13.3283 15.1687 12.5759 15.4788 11.7829 15.6026C10.9898 15.7263 10.1788 15.6603 9.41618 15.41C8.6536 15.1596 7.96126 14.732 7.39595 14.1622C6.83063 13.5924 6.40847 12.8967 6.16408 12.1322C5.9197 11.3677 5.86006 10.5561 5.99007 9.7641C6.12007 8.97207 6.43601 8.22215 6.91196 7.57587L10.7323 8.84509C10.906 8.90299 11.0938 8.90299 11.2675 8.84509L15.0879 7.57587C15.7307 8.44739 16.0773 9.50201 16.0768 10.585ZM10.9999 7.15491L3.52209 4.66195L10.9999 2.16899L18.4777 4.66195L10.9999 7.15491Z" fill="#1E1E1E"/>
</svg>
