<svg width="22" height="23" viewBox="0 0 22 23" fill="none" xmlns="http://www.w3.org/2000/svg">
<path d="M20.3484 1.66675C19.2896 0.607939 17.8535 0.0131073 16.3561 0.0131073C14.8587 0.0131073 13.4226 0.607939 12.3638 1.66675L1.60379 12.4257C0.567111 13.489 -0.00887853 14.918 0.000603523 16.4031C0.0100856 17.8881 0.604276 19.3096 1.65445 20.3597C2.70463 21.4097 4.12622 22.0037 5.61127 22.013C7.09631 22.0223 8.52522 21.4461 9.58845 20.4093L20.3495 9.65035C21.4065 8.59072 22.0001 7.15505 21.9999 5.65833C21.9997 4.16161 21.4058 2.7261 20.3484 1.66675ZM8.38948 19.2103C7.64877 19.9512 6.64411 20.3674 5.5965 20.3675C4.54888 20.3676 3.54414 19.9515 2.80329 19.2108C2.06245 18.4701 1.64619 17.4655 1.64609 16.4179C1.64599 15.3702 2.06206 14.3655 2.80276 13.6247L7.58274 8.84467L13.1695 14.4303L8.38948 19.2103ZM19.1495 8.45138L14.3674 13.2314L8.78277 7.6457L13.5638 2.86572C14.3075 2.13926 15.3075 1.73526 16.3471 1.74133C17.3867 1.7474 18.3819 2.16307 19.117 2.89817C19.8521 3.63327 20.2678 4.62854 20.2739 5.66811C20.2799 6.70768 19.8759 7.70774 19.1495 8.45138ZM17.5137 6.19761C17.5926 6.27637 17.6551 6.36991 17.6978 6.47286C17.7405 6.57582 17.7625 6.68617 17.7625 6.79762C17.7625 6.90908 17.7405 7.01943 17.6978 7.12239C17.6551 7.22534 17.5926 7.31888 17.5137 7.39764L14.9695 9.94187C14.8907 10.0206 14.7972 10.083 14.6943 10.1256C14.5913 10.1682 14.481 10.1901 14.3696 10.19C14.2583 10.19 14.148 10.168 14.0451 10.1253C13.9422 10.0827 13.8487 10.0201 13.77 9.94134C13.6913 9.86255 13.6288 9.76902 13.5863 9.66609C13.5437 9.56317 13.5218 9.45287 13.5218 9.34149C13.5219 9.2301 13.5439 9.11982 13.5866 9.01693C13.6292 8.91404 13.6917 8.82057 13.7705 8.74184L16.3148 6.19761C16.4738 6.03868 16.6894 5.94941 16.9143 5.94941C17.1391 5.94941 17.3547 6.03868 17.5137 6.19761Z" fill="#1E1E1E"/>
</svg>
