<svg width="22" height="22" viewBox="0 0 22 22" fill="none" xmlns="http://www.w3.org/2000/svg">
<path d="M21.1538 8.89452H20.2686C20.0559 6.58333 18.9875 4.43495 17.2728 2.87077C15.5582 1.30658 13.3209 0.439453 11 0.439453C8.67905 0.439453 6.44184 1.30658 4.72716 2.87077C3.01248 4.43495 1.94405 6.58333 1.73144 8.89452H0.846154C0.62174 8.89452 0.406517 8.98367 0.247833 9.14235C0.0891481 9.30103 0 9.51626 0 9.74067C0.00371779 11.753 0.557502 13.7259 1.60146 15.4462C2.64542 17.1665 4.13983 18.5687 5.92308 19.5011V19.8945C5.92308 20.3433 6.10137 20.7738 6.41874 21.0912C6.73611 21.4085 7.16656 21.5868 7.61538 21.5868H14.3846C14.8334 21.5868 15.2639 21.4085 15.5813 21.0912C15.8986 20.7738 16.0769 20.3433 16.0769 19.8945V19.5011C17.8602 18.5687 19.3546 17.1665 20.3985 15.4462C21.4425 13.7259 21.9963 11.753 22 9.74067C22 9.51626 21.9109 9.30103 21.7522 9.14235C21.5935 8.98367 21.3783 8.89452 21.1538 8.89452ZM18.5667 8.89452H13.1281C14.1539 7.35545 15.706 6.24343 17.4932 5.76692C18.0775 6.71742 18.4441 7.78552 18.5667 8.89452ZM15.8104 3.84192C16.0043 4.00058 16.1901 4.16804 16.3678 4.34433C14.1153 5.1367 12.2539 6.76517 11.1692 8.8924H8.04904C8.57789 7.40997 9.55153 6.12697 10.8369 5.21866C12.1223 4.31036 13.6568 3.82105 15.2308 3.81759C15.4243 3.81759 15.6179 3.82711 15.8104 3.84192ZM11 2.12529C11.679 2.12574 12.3549 2.21716 13.0096 2.39711C11.4151 2.79266 9.95297 3.60155 8.77068 4.74225C7.58838 5.88295 6.72767 7.31516 6.27529 8.89452H3.43327C3.64316 7.03389 4.53044 5.31557 5.92594 4.06715C7.32144 2.81873 9.12757 2.12751 11 2.12529ZM14.8775 18.2022C14.7299 18.27 14.6049 18.3789 14.5175 18.5158C14.4301 18.6527 14.384 18.8119 14.3846 18.9743V19.8945H7.61538V18.9743C7.616 18.8119 7.56986 18.6527 7.48246 18.5158C7.39506 18.3789 7.2701 18.27 7.1225 18.2022C5.63445 17.5175 4.3527 16.4533 3.40588 15.1167C2.45907 13.78 1.88051 12.2178 1.72827 10.5868H20.2686C20.1166 12.2174 19.5385 13.7794 18.5923 15.1161C17.6461 16.4527 16.365 17.517 14.8775 18.2022Z" fill="#1E1E1E"/>
</svg>
