<svg width="22" height="20" viewBox="0 0 22 20" fill="none" xmlns="http://www.w3.org/2000/svg">
<path d="M19.8 11.1131C19.5501 11.113 19.3021 11.1558 19.0667 11.2396V11.1131C19.0667 7.28327 16.2186 5.3876 14.1387 4.00344C12.848 3.1436 11.7333 2.40477 11.7333 1.57977C11.7333 1.38528 11.6561 1.19875 11.5185 1.06122C11.381 0.923697 11.1945 0.846436 11 0.846436C10.8055 0.846436 10.619 0.923697 10.4815 1.06122C10.3439 1.19875 10.2667 1.38528 10.2667 1.57977C10.2667 2.40477 9.152 3.1436 7.86133 4.00344C5.78142 5.3876 2.93333 7.28327 2.93333 11.1131V11.2396C2.60156 11.1223 2.24649 11.0863 1.89792 11.1346C1.54935 11.1829 1.21746 11.3142 0.930107 11.5173C0.642751 11.7204 0.408313 11.9895 0.246472 12.302C0.0846308 12.6145 0.000108746 12.9612 0 13.3131V18.4464C0 18.6409 0.0772617 18.8275 0.214788 18.965C0.352315 19.1025 0.538841 19.1798 0.733333 19.1798H6.6C6.79449 19.1798 6.98102 19.1025 7.11855 18.965C7.25607 18.8275 7.33333 18.6409 7.33333 18.4464V15.5131C7.33333 15.3186 7.4106 15.1321 7.54812 14.9946C7.68565 14.857 7.87217 14.7798 8.06667 14.7798C8.26116 14.7798 8.44769 14.857 8.58521 14.9946C8.72274 15.1321 8.8 15.3186 8.8 15.5131V18.4464C8.8 18.6409 8.87726 18.8275 9.01479 18.965C9.15232 19.1025 9.33884 19.1798 9.53333 19.1798H12.4667C12.6612 19.1798 12.8477 19.1025 12.9852 18.965C13.1227 18.8275 13.2 18.6409 13.2 18.4464V15.5131C13.2 15.3186 13.2773 15.1321 13.4148 14.9946C13.5523 14.857 13.7388 14.7798 13.9333 14.7798C14.1278 14.7798 14.3144 14.857 14.4519 14.9946C14.5894 15.1321 14.6667 15.3186 14.6667 15.5131V18.4464C14.6667 18.6409 14.7439 18.8275 14.8815 18.965C15.019 19.1025 15.2055 19.1798 15.4 19.1798H21.2667C21.4612 19.1798 21.6477 19.1025 21.7852 18.965C21.9227 18.8275 22 18.6409 22 18.4464V13.3131C22 12.7296 21.7682 12.17 21.3556 11.7575C20.9431 11.3449 20.3835 11.1131 19.8 11.1131ZM8.67442 5.22444C9.56083 4.6341 10.4161 4.0621 11 3.3911C11.5812 4.06485 12.4392 4.63685 13.3256 5.22444C15.1589 6.44544 17.2196 7.81769 17.5523 10.3798H4.444C4.78042 7.81769 6.83833 6.44544 8.67442 5.22444ZM1.46667 13.3131C1.46667 13.1186 1.54393 12.9321 1.68146 12.7946C1.81898 12.657 2.00551 12.5798 2.2 12.5798C2.39449 12.5798 2.58102 12.657 2.71854 12.7946C2.85607 12.9321 2.93333 13.1186 2.93333 13.3131V17.7131H1.46667V13.3131ZM13.9333 13.3131C13.3499 13.3131 12.7903 13.5449 12.3777 13.9575C11.9651 14.37 11.7333 14.9296 11.7333 15.5131V17.7131H10.2667V15.5131C10.2667 14.9296 10.0349 14.37 9.6223 13.9575C9.20972 13.5449 8.65014 13.3131 8.06667 13.3131C7.48319 13.3131 6.92361 13.5449 6.51103 13.9575C6.09845 14.37 5.86667 14.9296 5.86667 15.5131V17.7131H4.4V11.8464H17.6V17.7131H16.1333V15.5131C16.1333 14.9296 15.9015 14.37 15.489 13.9575C15.0764 13.5449 14.5168 13.3131 13.9333 13.3131ZM20.5333 17.7131H19.0667V13.3131C19.0667 13.1186 19.1439 12.9321 19.2815 12.7946C19.419 12.657 19.6055 12.5798 19.8 12.5798C19.9945 12.5798 20.181 12.657 20.3185 12.7946C20.4561 12.9321 20.5333 13.1186 20.5333 13.3131V17.7131Z" fill="#1E1E1E"/>
</svg>
