<svg width="24" height="18" viewBox="0 0 24 18" fill="none" xmlns="http://www.w3.org/2000/svg">
<path d="M20.2506 9.76127C20.0538 9.76117 19.8572 9.77684 19.6628 9.80815L16.4527 1.24756C16.3991 1.10463 16.3031 0.98147 16.1777 0.894524C16.0522 0.807578 15.9032 0.760991 15.7505 0.760986H12.7504C12.5515 0.760986 12.3607 0.840007 12.2201 0.980663C12.0794 1.12132 12.0004 1.31209 12.0004 1.51101C12.0004 1.70993 12.0794 1.9007 12.2201 2.04136C12.3607 2.18201 12.5515 2.26103 12.7504 2.26103H15.2311L18.2593 10.336C17.8289 10.6054 17.4575 10.9592 17.1675 11.3761C16.8775 11.7929 16.6748 12.2641 16.5718 12.7614H12.801L10.4572 6.49773C10.4033 6.35405 10.3066 6.23036 10.1802 6.14335C10.0538 6.05634 9.90377 6.0102 9.75031 6.01115H2.25007C2.05115 6.01115 1.86038 6.09017 1.71972 6.23083C1.57907 6.37149 1.50005 6.56226 1.50005 6.76118C1.50005 6.9601 1.57907 7.15087 1.71972 7.29152C1.86038 7.43218 2.05115 7.5112 2.25007 7.5112H3.0001V8.76655C2.10308 9.19353 1.34528 9.86574 0.814365 10.7054C0.283445 11.5451 0.00110279 12.5179 0 13.5114C0 13.7103 0.0790202 13.9011 0.219677 14.0417C0.360334 14.1824 0.551105 14.2614 0.750024 14.2614H1.57505C1.74719 15.1092 2.20712 15.8713 2.8769 16.4188C3.54668 16.9662 4.38512 17.2653 5.25017 17.2653C6.11521 17.2653 6.95366 16.9662 7.62344 16.4188C8.29322 15.8713 8.75314 15.1092 8.92528 14.2614H16.5755C16.7174 14.9566 17.0537 15.5973 17.5452 16.1091C18.0367 16.6208 18.6632 16.9826 19.3522 17.1525C20.0411 17.3223 20.764 17.2933 21.4371 17.0686C22.1101 16.844 22.7057 16.433 23.1545 15.8835C23.6033 15.3339 23.887 14.6683 23.9726 13.9639C24.0582 13.2596 23.9423 12.5454 23.6382 11.9043C23.3341 11.2632 22.8544 10.7215 22.2548 10.3422C21.6551 9.96286 20.9602 9.76142 20.2506 9.76127ZM4.00044 9.97409C4.14657 9.92235 4.27309 9.8266 4.36257 9.70001C4.45206 9.57343 4.50012 9.42222 4.50014 9.26719V7.5112H9.23092L11.1997 12.7614H1.57599C1.70576 12.1273 1.99716 11.5375 2.42194 11.0491C2.84671 10.5608 3.39045 10.1905 4.00044 9.97409ZM5.25017 15.7615C4.78498 15.7613 4.33128 15.617 3.9515 15.3484C3.57172 15.0797 3.28454 14.7 3.12947 14.2614H7.37086C7.2158 14.7 6.92862 15.0797 6.54884 15.3484C6.16906 15.617 5.71535 15.7613 5.25017 15.7615ZM20.2506 15.7615C19.7894 15.761 19.3395 15.6187 18.9618 15.354C18.5841 15.0893 18.2968 14.7149 18.139 14.2815C17.9811 13.8481 17.9602 13.3767 18.0792 12.9311C18.1982 12.4854 18.4512 12.0871 18.804 11.7901L19.5484 13.7748C19.583 13.8672 19.6355 13.9518 19.7028 14.0239C19.7701 14.0959 19.8509 14.154 19.9407 14.1949C20.0304 14.2357 20.1273 14.2585 20.2259 14.2618C20.3244 14.2652 20.4227 14.2491 20.515 14.2145C20.6074 14.1799 20.692 14.1275 20.7641 14.0602C20.8361 13.9929 20.8942 13.9121 20.9351 13.8223C20.9759 13.7326 20.9986 13.6356 21.002 13.5371C21.0054 13.4385 20.9893 13.3403 20.9547 13.2479L20.2085 11.2613H20.2506C20.8474 11.2613 21.4197 11.4984 21.8417 11.9204C22.2637 12.3423 22.5007 12.9146 22.5007 13.5114C22.5007 14.1081 22.2637 14.6805 21.8417 15.1024C21.4197 15.5244 20.8474 15.7615 20.2506 15.7615Z" fill="#1E1E1E"/>
</svg>
