<svg width="151" height="32" viewBox="0 0 151 32" fill="none" xmlns="http://www.w3.org/2000/svg">
<path d="M2.296 32.004C1.86667 30.4733 1.512 29.0173 1.232 27.636C0.952 26.2733 0.746667 25.032 0.616 23.912C0.485333 22.8107 0.42 21.8867 0.42 21.14C0.42 19.4787 0.681333 18.004 1.204 16.716C1.74533 15.4093 2.436 14.2893 3.276 13.356C4.13467 12.404 5.04933 11.62 6.02 11.004C7.00933 10.388 7.96133 9.93067 8.876 9.632C9.80933 9.33333 10.6027 9.184 11.256 9.184C11.928 9.184 12.4787 9.36133 12.908 9.716C13.356 10.0707 13.748 10.584 14.084 11.256C14.4387 11.9093 14.812 12.7027 15.204 13.636C15.652 14.644 16.044 15.4093 16.38 15.932C16.7347 16.436 17.0987 16.7813 17.472 16.968C17.8453 17.136 18.2653 17.22 18.732 17.22C19.4413 17.22 19.9547 17.4067 20.272 17.78C20.5893 18.1347 20.748 18.5827 20.748 19.124C20.748 19.7027 20.552 20.188 20.16 20.58C19.768 20.9533 19.1987 21.14 18.452 21.14C17.5373 21.14 16.744 20.9907 16.072 20.692C15.4 20.3747 14.7933 19.9267 14.252 19.348L15.036 18.48C14.868 19.0587 14.6347 19.5813 14.336 20.048C14.056 20.496 13.6733 20.8507 13.188 21.112C12.7213 21.3733 12.1333 21.504 11.424 21.504C10.7893 21.504 10.1547 21.4107 9.52 21.224C8.904 21.0373 8.29733 20.7573 7.7 20.384C7.12133 20.0107 6.56133 19.5533 6.02 19.012C5.47867 18.452 4.96533 17.808 4.48 17.08L5.516 16.884C5.10533 17.5187 4.80667 18.228 4.62 19.012C4.43333 19.796 4.34 20.5707 4.34 21.336C4.34 21.9333 4.38667 22.624 4.48 23.408C4.592 24.2107 4.732 25.0507 4.9 25.928C5.068 26.824 5.25467 27.7013 5.46 28.56C5.684 29.4373 5.89867 30.24 6.104 30.968L2.296 32.004ZM11.368 17.556C11.7227 17.556 12.0027 17.5093 12.208 17.416C12.432 17.304 12.572 17.1453 12.628 16.94C12.7027 16.7347 12.684 16.492 12.572 16.212C12.3853 15.708 12.1987 15.2693 12.012 14.896C11.844 14.5227 11.676 14.2053 11.508 13.944C11.3587 13.6827 11.2 13.4867 11.032 13.356C10.8827 13.2253 10.724 13.16 10.556 13.16C10.3133 13.16 10.0147 13.244 9.66 13.412C9.30533 13.5613 8.95067 13.748 8.596 13.972C8.24133 14.196 7.94267 14.42 7.7 14.644C7.45733 14.8493 7.31733 15.008 7.28 15.12L6.944 14.196C7.28 14.8493 7.68133 15.4373 8.148 15.96C8.63333 16.464 9.156 16.856 9.716 17.136C10.276 17.416 10.8267 17.556 11.368 17.556ZM18.5117 21.14L18.7917 17.22C19.4637 17.22 20.0424 17.1547 20.5277 17.024C21.0131 16.8933 21.4237 16.632 21.7597 16.24C22.0957 15.8293 22.3757 15.232 22.5997 14.448C22.8424 13.664 23.0571 12.6187 23.2437 11.312L26.9117 11.928C26.8744 12.208 26.8184 12.5347 26.7437 12.908C26.6877 13.2813 26.6317 13.664 26.5757 14.056C26.5384 14.4293 26.5197 14.784 26.5197 15.12C26.5197 15.456 26.5851 15.7547 26.7157 16.016C26.8464 16.2773 27.0517 16.5013 27.3317 16.688C27.6304 16.856 28.0131 16.9867 28.4797 17.08C28.9651 17.1733 29.5531 17.22 30.2437 17.22C30.9531 17.22 31.4571 17.4067 31.7557 17.78C32.0544 18.1347 32.2037 18.5827 32.2037 19.124C32.2037 19.7027 32.0077 20.188 31.6157 20.58C31.2424 20.9533 30.6917 21.14 29.9637 21.14C29.1237 21.14 28.3584 21.0747 27.6677 20.944C26.9957 20.8133 26.4077 20.5987 25.9037 20.3C25.4184 19.9827 25.0171 19.572 24.6997 19.068C24.4011 18.5453 24.2144 17.9107 24.1397 17.164H25.4837C25.1477 18.06 24.7184 18.7787 24.1957 19.32C23.6917 19.8427 23.1224 20.2347 22.4877 20.496C21.8531 20.7573 21.1904 20.9253 20.4997 21C19.8277 21.0933 19.1651 21.14 18.5117 21.14ZM26.3237 27.636C25.7824 27.636 25.3157 27.44 24.9237 27.048C24.5504 26.6747 24.3637 26.2267 24.3637 25.704C24.3637 25.1627 24.5504 24.696 24.9237 24.304C25.3157 23.912 25.7824 23.716 26.3237 23.716C26.8464 23.716 27.2944 23.912 27.6677 24.304C28.0411 24.696 28.2277 25.1627 28.2277 25.704C28.2277 26.2267 28.0411 26.6747 27.6677 27.048C27.2944 27.44 26.8464 27.636 26.3237 27.636ZM21.4797 27.636C20.9384 27.636 20.4717 27.44 20.0797 27.048C19.7064 26.6747 19.5197 26.2267 19.5197 25.704C19.5197 25.1627 19.7064 24.696 20.0797 24.304C20.4717 23.912 20.9384 23.716 21.4797 23.716C22.0024 23.716 22.4504 23.912 22.8237 24.304C23.1971 24.696 23.3837 25.1627 23.3837 25.704C23.3837 26.2267 23.1971 26.6747 22.8237 27.048C22.4504 27.44 22.0024 27.636 21.4797 27.636ZM29.9688 21.14L30.2488 17.22C30.9208 17.22 31.4994 17.1547 31.9848 17.024C32.4701 16.8933 32.8808 16.632 33.2168 16.24C33.5528 15.8293 33.8328 15.232 34.0568 14.448C34.2994 13.664 34.5141 12.6187 34.7008 11.312L38.3688 11.928C38.3314 12.208 38.2754 12.5347 38.2007 12.908C38.1448 13.2813 38.0888 13.664 38.0328 14.056C37.9954 14.4293 37.9768 14.784 37.9768 15.12C37.9768 15.456 38.0421 15.7547 38.1728 16.016C38.3034 16.2773 38.5088 16.5013 38.7888 16.688C39.0874 16.856 39.4701 16.9867 39.9368 17.08C40.4221 17.1733 41.0101 17.22 41.7008 17.22C42.4101 17.22 42.9141 17.4067 43.2128 17.78C43.5114 18.1347 43.6608 18.5827 43.6608 19.124C43.6608 19.7027 43.4648 20.188 43.0728 20.58C42.6994 20.9533 42.1488 21.14 41.4208 21.14C40.5808 21.14 39.8154 21.0747 39.1248 20.944C38.4528 20.8133 37.8648 20.5987 37.3607 20.3C36.8754 19.9827 36.4741 19.572 36.1568 19.068C35.8581 18.5453 35.6714 17.9107 35.5968 17.164H36.9408C36.6048 18.06 36.1754 18.7787 35.6528 19.32C35.1488 19.8427 34.5794 20.2347 33.9448 20.496C33.3101 20.7573 32.6474 20.9253 31.9568 21C31.2848 21.0933 30.6221 21.14 29.9688 21.14ZM37.7808 27.636C37.2394 27.636 36.7728 27.44 36.3808 27.048C36.0074 26.6747 35.8208 26.2267 35.8208 25.704C35.8208 25.1627 36.0074 24.696 36.3808 24.304C36.7728 23.912 37.2394 23.716 37.7808 23.716C38.3034 23.716 38.7514 23.912 39.1248 24.304C39.4981 24.696 39.6848 25.1627 39.6848 25.704C39.6848 26.2267 39.4981 26.6747 39.1248 27.048C38.7514 27.44 38.3034 27.636 37.7808 27.636ZM32.9368 27.636C32.3954 27.636 31.9288 27.44 31.5368 27.048C31.1634 26.6747 30.9768 26.2267 30.9768 25.704C30.9768 25.1627 31.1634 24.696 31.5368 24.304C31.9288 23.912 32.3954 23.716 32.9368 23.716C33.4594 23.716 33.9074 23.912 34.2808 24.304C34.6541 24.696 34.8408 25.1627 34.8408 25.704C34.8408 26.2267 34.6541 26.6747 34.2808 27.048C33.9074 27.44 33.4594 27.636 32.9368 27.636ZM41.4258 21.14L41.7058 17.248C42.4338 17.2667 43.1058 17.2573 43.7218 17.22C44.3378 17.1827 44.8884 17.1267 45.3738 17.052C45.8778 16.9773 46.3164 16.8933 46.6898 16.8C47.0818 16.7067 47.4084 16.6227 47.6698 16.548C48.3044 16.3427 48.8458 16.1 49.2938 15.82C49.7418 15.5213 50.0871 15.1853 50.3298 14.812C50.5724 14.4387 50.6938 14.0373 50.6938 13.608C50.6938 13.272 50.6191 12.936 50.4698 12.6C50.3391 12.2453 50.1431 11.956 49.8818 11.732C49.6204 11.508 49.3124 11.396 48.9578 11.396C48.6218 11.396 48.3138 11.4987 48.0338 11.704C47.7538 11.9093 47.5298 12.1893 47.3618 12.544C47.1938 12.88 47.1098 13.272 47.1098 13.72C47.1098 14.112 47.2031 14.4853 47.3898 14.84C47.5764 15.176 47.8378 15.5027 48.1738 15.82C48.5098 16.1373 48.9111 16.436 49.3778 16.716L45.6538 18.144C45.2431 17.752 44.8511 17.332 44.4778 16.884C44.1231 16.436 43.8244 15.932 43.5818 15.372C43.3578 14.7933 43.2458 14.1493 43.2458 13.44C43.2458 12.5813 43.4138 11.7973 43.7498 11.088C44.0858 10.3787 44.5338 9.772 45.0938 9.268C45.6538 8.74533 46.2791 8.344 46.9698 8.064C47.6604 7.784 48.3511 7.644 49.0418 7.644C50.1618 7.644 51.1324 7.90533 51.9538 8.428C52.7751 8.95067 53.4098 9.632 53.8578 10.472C54.3244 11.312 54.5578 12.2267 54.5578 13.216C54.5578 14.1307 54.3898 14.952 54.0538 15.68C53.7178 16.3893 53.2604 17.024 52.6818 17.584C52.1218 18.1253 51.4964 18.6013 50.8058 19.012C50.1338 19.4227 49.4524 19.768 48.7618 20.048C48.4258 20.1973 48.0058 20.3373 47.5018 20.468C46.9978 20.5987 46.4284 20.72 45.7938 20.832C45.1591 20.9253 44.4778 21 43.7498 21.056C43.0218 21.112 42.2471 21.14 41.4258 21.14ZM56.2098 21.14C55.1271 21.14 54.0631 21.084 53.0178 20.972C51.9724 20.86 51.0018 20.692 50.1058 20.468C49.2284 20.244 48.4631 19.9733 47.8098 19.656L49.7418 16.632C50.3018 16.7813 50.9551 16.9027 51.7018 16.996C52.4671 17.0707 53.2604 17.1267 54.0818 17.164C54.9218 17.2013 55.7244 17.22 56.4898 17.22C57.1991 17.22 57.7031 17.4067 58.0018 17.78C58.3191 18.1347 58.4778 18.5827 58.4778 19.124C58.4778 19.7027 58.2818 20.188 57.8898 20.58C57.4978 20.9533 56.9378 21.14 56.2098 21.14ZM51.5058 5.096C50.9644 5.096 50.4978 4.90933 50.1058 4.536C49.7324 4.144 49.5458 3.68667 49.5458 3.164C49.5458 2.62267 49.7324 2.156 50.1058 1.764C50.4978 1.372 50.9644 1.176 51.5058 1.176C52.0284 1.176 52.4764 1.372 52.8498 1.764C53.2231 2.156 53.4098 2.62267 53.4098 3.164C53.4098 3.68667 53.2231 4.144 52.8498 4.536C52.4764 4.90933 52.0284 5.096 51.5058 5.096ZM46.6618 5.068C46.1204 5.068 45.6538 4.88133 45.2618 4.508C44.8884 4.116 44.7018 3.65867 44.7018 3.136C44.7018 2.59467 44.8884 2.128 45.2618 1.736C45.6538 1.344 46.1204 1.148 46.6618 1.148C47.1844 1.148 47.6324 1.344 48.0058 1.736C48.3791 2.128 48.5658 2.59467 48.5658 3.136C48.5658 3.65867 48.3791 4.116 48.0058 4.508C47.6324 4.88133 47.1844 5.068 46.6618 5.068ZM56.2461 21.14L56.5261 17.22C57.1981 17.22 57.7768 17.1547 58.2621 17.024C58.7474 16.8933 59.1581 16.632 59.4941 16.24C59.8301 15.8293 60.1101 15.232 60.3341 14.448C60.5768 13.664 60.7914 12.6187 60.9781 11.312L64.6461 11.928C64.6088 12.208 64.5528 12.5347 64.4781 12.908C64.4221 13.2813 64.3661 13.664 64.3101 14.056C64.2728 14.4293 64.2541 14.784 64.2541 15.12C64.2541 15.456 64.3194 15.7547 64.4501 16.016C64.5808 16.2773 64.7861 16.5013 65.0661 16.688C65.3648 16.856 65.7474 16.9867 66.2141 17.08C66.6994 17.1733 67.2874 17.22 67.9781 17.22C68.6874 17.22 69.1914 17.4067 69.4901 17.78C69.7888 18.1347 69.9381 18.5827 69.9381 19.124C69.9381 19.7027 69.7421 20.188 69.3501 20.58C68.9768 20.9533 68.4261 21.14 67.6981 21.14C66.8581 21.14 66.0928 21.0747 65.4021 20.944C64.7301 20.8133 64.1421 20.5987 63.6381 20.3C63.1528 19.9827 62.7514 19.572 62.4341 19.068C62.1354 18.5453 61.9488 17.9107 61.8741 17.164H63.2181C62.8821 18.06 62.4528 18.7787 61.9301 19.32C61.4261 19.8427 60.8568 20.2347 60.2221 20.496C59.5874 20.7573 58.9248 20.9253 58.2341 21C57.5621 21.0933 56.8994 21.14 56.2461 21.14ZM65.2341 8.792C64.6928 8.792 64.2261 8.60533 63.8341 8.232C63.4608 7.84 63.2741 7.38267 63.2741 6.86C63.2741 6.31867 63.4608 5.852 63.8341 5.46C64.2261 5.068 64.6928 4.872 65.2341 4.872C65.7568 4.872 66.2048 5.068 66.5781 5.46C66.9514 5.852 67.1381 6.31867 67.1381 6.86C67.1381 7.38267 66.9514 7.84 66.5781 8.232C66.2048 8.60533 65.7568 8.792 65.2341 8.792ZM60.3901 8.764C59.8488 8.764 59.3821 8.57733 58.9901 8.204C58.6168 7.812 58.4301 7.35467 58.4301 6.832C58.4301 6.29067 58.6168 5.824 58.9901 5.432C59.3821 5.04 59.8488 4.844 60.3901 4.844C60.9128 4.844 61.3608 5.04 61.7341 5.432C62.1074 5.824 62.2941 6.29067 62.2941 6.832C62.2941 7.35467 62.1074 7.812 61.7341 8.204C61.3608 8.57733 60.9128 8.764 60.3901 8.764ZM67.7031 21.14L67.9831 17.22C68.8418 17.22 69.4578 17.136 69.8311 16.968C70.2045 16.7813 70.4285 16.4453 70.5031 15.96C70.5778 15.456 70.5965 14.728 70.5591 13.776L70.0551 0.503999H74.0031L74.5631 14.056C74.6005 15.1387 74.5538 16.1187 74.4231 16.996C74.3111 17.8547 74.0218 18.592 73.5551 19.208C73.1071 19.824 72.4071 20.3 71.4551 20.636C70.5218 20.972 69.2711 21.14 67.7031 21.14ZM78.2556 21L77.6676 0.503999H81.5876L82.1756 21H78.2556ZM94.0264 32.004C93.6904 30.6973 93.4011 29.4747 93.1584 28.336C92.9344 27.216 92.7664 26.1987 92.6544 25.284C92.5424 24.388 92.4864 23.6227 92.4864 22.988C92.4864 21.6813 92.7011 20.5893 93.1304 19.712C93.5784 18.8347 94.1664 18.1347 94.8944 17.612C95.6411 17.0707 96.4531 16.688 97.3304 16.464C98.2077 16.2213 99.0851 16.1 99.9624 16.1C100.858 16.1 101.68 16.1747 102.426 16.324C102.464 15.7453 102.417 15.2227 102.286 14.756C102.174 14.2893 101.997 13.888 101.754 13.552C101.53 13.216 101.25 12.9547 100.914 12.768C100.597 12.5813 100.252 12.488 99.8784 12.488C99.5237 12.488 99.1691 12.5813 98.8144 12.768C98.4597 12.936 98.1237 13.188 97.8064 13.524C97.5077 13.86 97.2184 14.2893 96.9384 14.812L93.8864 13.132C94.3904 11.9933 94.9877 11.0973 95.6784 10.444C96.3691 9.772 97.0877 9.296 97.8344 9.016C98.5997 8.71733 99.3464 8.568 100.074 8.568C101.194 8.568 102.156 8.81067 102.958 9.296C103.78 9.76267 104.442 10.3787 104.946 11.144C105.45 11.8907 105.824 12.6933 106.066 13.552C106.309 14.4107 106.43 15.232 106.43 16.016C106.43 16.6133 106.365 17.2107 106.234 17.808C106.122 18.3867 105.982 18.9093 105.814 19.376C105.665 19.8427 105.516 20.2067 105.366 20.468C104.34 20.188 103.369 19.9827 102.454 19.852C101.54 19.7213 100.709 19.684 99.9624 19.74C99.2344 19.7773 98.5997 19.9267 98.0584 20.188C97.5357 20.4307 97.1251 20.7947 96.8264 21.28C96.5464 21.7653 96.4064 22.3813 96.4064 23.128C96.4064 23.8187 96.4624 24.6027 96.5744 25.48C96.6864 26.376 96.8451 27.3 97.0504 28.252C97.2557 29.204 97.4891 30.1467 97.7504 31.08L94.0264 32.004ZM116.282 21.14C114.546 21.14 113.202 20.9627 112.25 20.608C111.317 20.2533 110.664 19.7027 110.29 18.956C109.917 18.1907 109.702 17.2293 109.646 16.072L109.058 0.503999H112.978L113.566 14.196C113.604 15.0547 113.697 15.6987 113.846 16.128C113.996 16.5573 114.276 16.8467 114.686 16.996C115.116 17.1453 115.741 17.22 116.562 17.22C117.272 17.22 117.776 17.4067 118.074 17.78C118.392 18.1347 118.55 18.5827 118.55 19.124C118.55 19.7027 118.354 20.188 117.962 20.58C117.57 20.9533 117.01 21.14 116.282 21.14ZM116.32 21.14L116.6 17.22C117.067 17.22 117.422 17.1267 117.664 16.94C117.907 16.7533 118.15 16.4267 118.392 15.96C118.635 15.4933 118.971 14.8587 119.4 14.056C119.867 13.16 120.352 12.4133 120.856 11.816C121.36 11.2 121.864 10.7147 122.368 10.36C122.891 9.98667 123.404 9.72533 123.908 9.576C124.431 9.408 124.944 9.324 125.448 9.324C126.139 9.324 126.783 9.47333 127.38 9.772C127.996 10.052 128.584 10.5467 129.144 11.256C129.704 11.9467 130.236 12.8987 130.74 14.112C131.095 14.952 131.45 15.596 131.804 16.044C132.159 16.492 132.523 16.8 132.896 16.968C133.288 17.136 133.68 17.22 134.072 17.22C134.782 17.22 135.286 17.4067 135.584 17.78C135.883 18.1347 136.032 18.5827 136.032 19.124C136.032 19.7027 135.836 20.188 135.444 20.58C135.052 20.9533 134.502 21.14 133.792 21.14C132.878 21.14 132.047 20.9907 131.3 20.692C130.554 20.3933 129.966 19.9453 129.536 19.348L130.348 18.732C130.18 19.124 129.928 19.5347 129.592 19.964C129.275 20.3933 128.855 20.7573 128.332 21.056C127.828 21.3547 127.222 21.504 126.512 21.504C126.046 21.504 125.495 21.4107 124.86 21.224C124.244 21.056 123.6 20.7667 122.928 20.356C122.275 19.9267 121.668 19.348 121.108 18.62C120.754 19.2733 120.362 19.7867 119.932 20.16C119.503 20.5147 118.999 20.7667 118.42 20.916C117.842 21.0653 117.142 21.14 116.32 21.14ZM122.732 15.316C122.919 15.596 123.143 15.876 123.404 16.156C123.666 16.436 123.955 16.688 124.272 16.912C124.59 17.1173 124.926 17.2853 125.28 17.416C125.654 17.5467 126.018 17.612 126.372 17.612C126.746 17.612 127.054 17.472 127.296 17.192C127.539 16.8933 127.548 16.4547 127.324 15.876C127.231 15.6333 127.1 15.3627 126.932 15.064C126.783 14.7467 126.606 14.448 126.4 14.168C126.214 13.888 125.999 13.6547 125.756 13.468C125.532 13.2813 125.299 13.188 125.056 13.188C124.814 13.188 124.562 13.2627 124.3 13.412C124.039 13.5613 123.778 13.7947 123.516 14.112C123.255 14.4107 122.994 14.812 122.732 15.316ZM133.793 21.14L134.073 17.22C135.193 17.22 136.052 17.164 136.649 17.052C137.246 16.94 137.657 16.7347 137.881 16.436C138.124 16.1187 138.245 15.6707 138.245 15.092C138.245 14.5693 138.17 13.944 138.021 13.216C137.89 12.488 137.713 11.732 137.489 10.948C137.284 10.164 137.06 9.44533 136.817 8.792L140.681 7.728C140.924 8.36267 141.157 9.1 141.381 9.94C141.605 10.78 141.792 11.648 141.941 12.544C142.09 13.4213 142.165 14.2707 142.165 15.092C142.165 16.3613 141.96 17.3973 141.549 18.2C141.138 18.984 140.56 19.5907 139.813 20.02C139.085 20.4493 138.208 20.748 137.181 20.916C136.154 21.0653 135.025 21.14 133.793 21.14ZM141.381 5.46C140.84 5.46 140.373 5.27333 139.981 4.9C139.608 4.508 139.421 4.05067 139.421 3.528C139.421 2.98667 139.608 2.52 139.981 2.128C140.373 1.736 140.84 1.54 141.381 1.54C141.904 1.54 142.352 1.736 142.725 2.128C143.098 2.52 143.285 2.98667 143.285 3.528C143.285 4.05067 143.098 4.508 142.725 4.9C142.352 5.27333 141.904 5.46 141.381 5.46ZM136.537 5.432C135.996 5.432 135.529 5.24533 135.137 4.872C134.764 4.48 134.577 4.02267 134.577 3.5C134.577 2.95867 134.764 2.492 135.137 2.1C135.529 1.708 135.996 1.512 136.537 1.512C137.06 1.512 137.508 1.708 137.881 2.1C138.254 2.492 138.441 2.95867 138.441 3.5C138.441 4.02267 138.254 4.48 137.881 4.872C137.508 5.24533 137.06 5.432 136.537 5.432ZM146.095 21L145.507 0.503999H149.427L150.015 21H146.095Z" fill="#F9F3E4"/>
</svg>
