<svg width="66" height="34" viewBox="0 0 66 34" fill="none" xmlns="http://www.w3.org/2000/svg">
<path d="M11.8532 28V24.752H14.7932V28H11.8532ZM0.485234 28V24.752H10.6492L8.10123 26.964V22.26C8.10123 20.9347 7.96123 19.908 7.68123 19.18C7.4199 18.452 6.9719 17.9387 6.33723 17.64C5.72123 17.3413 4.8719 17.192 3.78923 17.192H1.52123V13.944H3.78923C5.50657 13.944 6.96257 14.224 8.15723 14.784C9.37057 15.344 10.2852 16.24 10.9012 17.472C11.5359 18.6853 11.8532 20.2813 11.8532 22.26V28H0.485234ZM14.7932 28V24.752C14.9052 24.752 14.9986 24.7893 15.0732 24.864C15.1479 24.9387 15.2039 25.0507 15.2412 25.2C15.2786 25.3493 15.3066 25.5267 15.3252 25.732C15.3439 25.9187 15.3532 26.1333 15.3532 26.376C15.3532 26.6187 15.3439 26.8427 15.3252 27.048C15.3066 27.2533 15.2786 27.4307 15.2412 27.58C15.2039 27.7107 15.1479 27.8133 15.0732 27.888C14.9986 27.9627 14.9052 28 14.7932 28ZM22.9631 28V24.752H26.4631V28H22.9631ZM26.4631 28V24.752C26.5564 24.752 26.6404 24.7893 26.7151 24.864C26.7898 24.9387 26.8458 25.0507 26.8831 25.2C26.9204 25.3493 26.9484 25.5267 26.9671 25.732C27.0044 25.9187 27.0231 26.1333 27.0231 26.376C27.0231 26.6187 27.0044 26.8427 26.9671 27.048C26.9484 27.2533 26.9204 27.4307 26.8831 27.58C26.8458 27.7107 26.7898 27.8133 26.7151 27.888C26.6591 27.9627 26.5751 28 26.4631 28ZM14.7871 28C14.6751 28 14.5911 27.9627 14.5351 27.888C14.4604 27.8133 14.4044 27.7107 14.3671 27.58C14.3111 27.4307 14.2738 27.2533 14.2551 27.048C14.2364 26.8427 14.2271 26.6187 14.2271 26.376C14.2271 26.04 14.2458 25.76 14.2831 25.536C14.3204 25.2933 14.3858 25.1067 14.4791 24.976C14.5538 24.8267 14.6564 24.752 14.7871 24.752V28ZM14.7871 28V24.752H21.4231L19.2391 26.572V13.944H22.9631V28H14.7871ZM15.7951 33.964V30.772H19.4071V33.964H15.7951ZM20.8911 33.964V30.772H24.5031V33.964H20.8911ZM26.4629 28V24.752H40.5189L39.2869 25.76V21.952C39.2869 20.9813 39.1842 20.2067 38.9789 19.628C38.7736 19.0493 38.4562 18.6293 38.0269 18.368C37.6162 18.1067 37.0936 17.976 36.4589 17.976H30.3269L28.0029 14.616L29.4309 11.928C29.5989 11.6107 29.7856 11.2653 29.9909 10.892C30.1962 10.5187 30.4669 10.0707 30.8029 9.548C31.1389 9.02533 31.5682 8.372 32.0909 7.588L35.2269 9.352C34.7416 10.08 34.3496 10.6867 34.0509 11.172C33.7522 11.6387 33.5002 12.0493 33.2949 12.404C33.0896 12.7587 32.9029 13.1133 32.7349 13.468L31.6149 15.568L31.0549 14.728H36.4589C37.6536 14.728 38.6709 14.924 39.5109 15.316C40.3509 15.708 41.0229 16.2493 41.5269 16.94C42.0496 17.6307 42.4322 18.4053 42.6749 19.264C42.9176 20.1227 43.0389 21.0187 43.0389 21.952V28H26.4629ZM26.4629 28C26.3509 28 26.2669 27.9627 26.2109 27.888C26.1362 27.8133 26.0802 27.7107 26.0429 27.58C25.9869 27.4307 25.9496 27.2533 25.9309 27.048C25.9122 26.8427 25.9029 26.6187 25.9029 26.376C25.9029 26.04 25.9216 25.76 25.9589 25.536C25.9962 25.2933 26.0616 25.1067 26.1549 24.976C26.2296 24.8267 26.3322 24.752 26.4629 24.752V28ZM51.2186 28V24.752H54.4106V28H51.2186ZM47.4946 28V8.204H51.2186V28H47.4946ZM54.4106 28V24.752C54.5226 24.752 54.6066 24.7893 54.6626 24.864C54.7373 24.9387 54.7933 25.0507 54.8306 25.2C54.8866 25.3493 54.9239 25.5267 54.9426 25.732C54.9613 25.9187 54.9706 26.1333 54.9706 26.376C54.9706 26.6187 54.9613 26.8427 54.9426 27.048C54.9239 27.2533 54.8866 27.4307 54.8306 27.58C54.7933 27.7107 54.7373 27.8133 54.6626 27.888C54.6066 27.9627 54.5226 28 54.4106 28ZM47.6626 5.964C47.3079 5.53466 47.0373 5.124 46.8506 4.732C46.6639 4.34 46.5706 3.92 46.5706 3.472C46.5706 2.83733 46.7386 2.268 47.0746 1.764C47.4106 1.24133 47.8493 0.839999 48.3906 0.559999C48.9319 0.261332 49.5293 0.111999 50.1826 0.111999C50.5373 0.111999 50.9013 0.158665 51.2746 0.251998C51.6479 0.345332 51.9653 0.485332 52.2266 0.671998L51.2746 2.38C51.1066 2.28667 50.9386 2.23067 50.7706 2.212C50.6213 2.17467 50.4626 2.156 50.2946 2.156C49.8466 2.156 49.5013 2.27733 49.2586 2.52C49.0159 2.744 48.8946 3.052 48.8946 3.444C48.8946 3.668 48.9413 3.88267 49.0346 4.088C49.1279 4.29333 49.2679 4.51733 49.4546 4.76L47.6626 5.964ZM45.9546 6.188V4.144H52.7306V6.188H45.9546ZM54.4082 28V24.752H61.0442L58.8602 26.572V13.944H62.5842V28H54.4082ZM54.4082 28C54.2962 28 54.2122 27.9627 54.1562 27.888C54.0815 27.8133 54.0255 27.7107 53.9882 27.58C53.9322 27.4307 53.8949 27.2533 53.8762 27.048C53.8575 26.8427 53.8482 26.6187 53.8482 26.376C53.8482 26.04 53.8669 25.76 53.9042 25.536C53.9415 25.2933 54.0069 25.1067 54.1002 24.976C54.1749 24.8267 54.2775 24.752 54.4082 24.752V28ZM56.3962 11.368V8.176H60.0082V11.368H56.3962ZM61.4922 11.368V8.176H65.1042V11.368H61.4922Z" fill="#F9F3E4"/>
</svg>
