<svg width="24" height="21" viewBox="0 0 24 21" fill="none" xmlns="http://www.w3.org/2000/svg">
<path fill-rule="evenodd" clip-rule="evenodd" d="M0 4.25C0 3.25544 0.379285 2.30161 1.05442 1.59835C1.72955 0.895088 2.64522 0.5 3.6 0.5H20.4C21.3548 0.5 22.2705 0.895088 22.9456 1.59835C23.6207 2.30161 24 3.25544 24 4.25V5.5H0V4.25ZM0 8V16.75C0 17.7446 0.379285 18.6984 1.05442 19.4017C1.72955 20.1049 2.64522 20.5 3.6 20.5H20.4C21.3548 20.5 22.2705 20.1049 22.9456 19.4017C23.6207 18.6984 24 17.7446 24 16.75V8H0ZM6 10.5C5.68174 10.5 5.37652 10.6317 5.15147 10.8661C4.92643 11.1005 4.8 11.4185 4.8 11.75C4.8 12.0815 4.92643 12.3995 5.15147 12.6339C5.37652 12.8683 5.68174 13 6 13H12C12.3183 13 12.6235 12.8683 12.8485 12.6339C13.0736 12.3995 13.2 12.0815 13.2 11.75C13.2 11.4185 13.0736 11.1005 12.8485 10.8661C12.6235 10.6317 12.3183 10.5 12 10.5H6Z" fill="#FFFCFC"/>
</svg>
