<svg width="23" height="23" viewBox="0 0 23 23" fill="none" xmlns="http://www.w3.org/2000/svg">
<circle cx="11.5" cy="11.5" r="11" fill="white" stroke="#0073E6"/>
<path d="M9.4517 13.9922V13.7301C9.4517 13.0057 9.51136 12.4283 9.63068 11.9979C9.75426 11.5675 9.93324 11.2223 10.1676 10.9624C10.402 10.6982 10.6875 10.4574 11.0241 10.2401C11.2926 10.0696 11.5313 9.89702 11.7401 9.7223C11.9531 9.54332 12.1214 9.35156 12.245 9.14702C12.3686 8.94247 12.4304 8.71023 12.4304 8.45028C12.4304 8.19886 12.3707 7.97727 12.2514 7.78551C12.1321 7.59375 11.968 7.44673 11.7592 7.34446C11.5547 7.23793 11.3267 7.18466 11.0753 7.18466C10.8239 7.18466 10.5874 7.24219 10.3658 7.35724C10.1484 7.4723 9.96946 7.63636 9.82884 7.84943C9.69247 8.05824 9.62216 8.31179 9.6179 8.61009H6.67756C6.69034 7.7152 6.89702 6.98224 7.29759 6.41122C7.70241 5.8402 8.23722 5.41832 8.90199 5.1456C9.56676 4.86861 10.2997 4.73011 11.1009 4.73011C11.9787 4.73011 12.7585 4.86648 13.4403 5.1392C14.1264 5.41193 14.6655 5.81463 15.0575 6.3473C15.4496 6.87997 15.6456 7.53196 15.6456 8.30327C15.6456 8.81037 15.5604 9.25781 15.3899 9.6456C15.2195 10.0334 14.9808 10.3764 14.674 10.6747C14.3714 10.9687 14.0156 11.2372 13.6065 11.4801C13.2869 11.6676 13.0206 11.8636 12.8075 12.0682C12.5987 12.2727 12.4411 12.5071 12.3345 12.7713C12.228 13.0312 12.1747 13.3509 12.1747 13.7301V13.9922H9.4517ZM10.8643 18.1854C10.4041 18.1854 10.0099 18.0234 9.68182 17.6996C9.35795 17.3757 9.19815 16.9837 9.20241 16.5234C9.19815 16.0717 9.35795 15.6861 9.68182 15.3665C10.0099 15.0426 10.4041 14.8807 10.8643 14.8807C11.3033 14.8807 11.6889 15.0426 12.0213 15.3665C12.3537 15.6861 12.522 16.0717 12.5263 16.5234C12.522 16.8303 12.4411 17.1094 12.2834 17.3608C12.13 17.6122 11.9276 17.8125 11.6761 17.9616C11.429 18.1108 11.1584 18.1854 10.8643 18.1854Z" fill="#0073E6"/>
</svg>
