<svg width="25" height="25" viewBox="0 0 25 25" fill="none" xmlns="http://www.w3.org/2000/svg">
<path d="M22.1982 7.16506L17.835 2.8008C17.6899 2.65567 17.5176 2.54054 17.328 2.462C17.1384 2.38345 16.9352 2.34303 16.73 2.34303C16.5248 2.34303 16.3216 2.38345 16.132 2.462C15.9424 2.54054 15.7701 2.65567 15.625 2.8008L3.58302 14.8438C3.43729 14.9883 3.32176 15.1604 3.24313 15.35C3.1645 15.5396 3.12435 15.743 3.12501 15.9483V20.3125C3.12501 20.7269 3.28963 21.1243 3.58265 21.4174C3.87568 21.7104 4.27311 21.875 4.68751 21.875H9.05177C9.25703 21.8757 9.46038 21.8355 9.64999 21.7569C9.8396 21.6783 10.0117 21.5627 10.1563 21.417L22.1982 9.37502C22.3434 9.22992 22.4585 9.05765 22.537 8.86806C22.6156 8.67847 22.656 8.47526 22.656 8.27004C22.656 8.06481 22.6156 7.8616 22.537 7.67201C22.4585 7.48242 22.3434 7.31015 22.1982 7.16506ZM9.05177 20.3125H4.68751V15.9483L13.2813 7.35451L17.6455 11.7188L9.05177 20.3125ZM18.75 10.6133L14.3857 6.25002L16.7295 3.90627L21.0938 8.26955L18.75 10.6133Z" fill="#0B8FAC"/>
</svg>
