<svg width="39" height="39" viewBox="0 0 39 39" fill="none" xmlns="http://www.w3.org/2000/svg">
<rect width="39" height="39" rx="19.5" fill="#FCE2CF"/>
<path d="M25.875 26.5833H13.125C12.8346 26.5833 12.5938 26.3425 12.5938 26.0521C12.5938 25.7617 12.8346 25.5208 13.125 25.5208H25.875C26.1654 25.5208 26.4062 25.7617 26.4062 26.0521C26.4062 26.3425 26.1654 26.5833 25.875 26.5833Z" fill="#EA985B"/>
<path d="M24.4725 13.465C23.0984 12.0908 21.7525 12.0554 20.3429 13.465L19.4859 14.3221C19.415 14.3929 19.3867 14.5062 19.415 14.6054C19.9534 16.4825 21.455 17.9842 23.3321 18.5225C23.3604 18.5296 23.3888 18.5367 23.4171 18.5367C23.495 18.5367 23.5659 18.5083 23.6225 18.4517L24.4725 17.5946C25.1738 16.9004 25.5138 16.2275 25.5138 15.5475C25.5209 14.8462 25.1809 14.1662 24.4725 13.465Z" fill="#EA985B"/>
<path d="M22.057 19.1671C21.8516 19.0679 21.6533 18.9687 21.462 18.8554C21.3062 18.7633 21.1574 18.6642 21.0087 18.5579C20.8883 18.48 20.7466 18.3667 20.612 18.2533C20.5979 18.2462 20.5483 18.2037 20.4916 18.1471C20.2579 17.9487 19.9958 17.6937 19.762 17.4104C19.7408 17.3962 19.7054 17.3467 19.6558 17.2829C19.5849 17.1979 19.4645 17.0562 19.3583 16.8933C19.2733 16.7871 19.1741 16.6312 19.082 16.4754C18.9687 16.2842 18.8695 16.0929 18.7704 15.8946C18.6403 15.616 18.2747 15.5332 18.0573 15.7506L14.0741 19.7337C13.982 19.8258 13.897 20.0029 13.8758 20.1233L13.4933 22.8362C13.4224 23.3179 13.557 23.7712 13.8545 24.0758C14.1095 24.3237 14.4637 24.4583 14.8462 24.4583C14.9312 24.4583 15.0162 24.4512 15.1012 24.4371L17.8212 24.0546C17.9487 24.0333 18.1258 23.9483 18.2108 23.8562L22.2005 19.8665C22.4135 19.6535 22.3335 19.2869 22.057 19.1671Z" fill="#EA985B"/>
</svg>
