<svg width="20" height="20" viewBox="0 0 20 20" fill="none" xmlns="http://www.w3.org/2000/svg">
<path d="M15.398 7.32426L16.87 5.85226C18.749 6.93626 20 8.43426 20 10.0943C20 13.4083 15.042 16.0873 10 16.0943C8.97397 16.0942 7.95075 15.9869 6.947 15.7743L8.694 14.0283C9.12 14.0723 9.556 14.0953 9.997 14.0943H9.999C9.584 14.0943 9.184 14.0313 8.808 13.9143L10.789 11.9323C11.259 11.7303 11.636 11.3533 11.839 10.8833L13.819 8.90226C14.0054 9.49938 14.0492 10.1319 13.9468 10.749C13.8444 11.3661 13.5987 11.9506 13.2295 12.4555C12.8602 12.9605 12.3777 13.3717 11.8206 13.6563C11.2636 13.941 10.6475 14.0909 10.022 14.0943C14.267 14.0793 18 11.9103 18 10.0943C18 9.15126 16.978 8.10826 15.398 7.32426ZM6.096 10.9693C5.96495 10.3847 5.96688 9.7781 6.10166 9.19436C6.23644 8.61062 6.50063 8.06461 6.87471 7.59665C7.24879 7.12869 7.72321 6.75073 8.26293 6.49069C8.80266 6.23066 9.3939 6.09518 9.993 6.09426C5.775 6.07926 2 8.27226 2 10.0943C2 10.9903 2.904 11.9713 4.327 12.7383L2.869 14.1943C1.134 13.1223 0 11.6793 0 10.0943C0 6.78026 4.984 4.07726 10 4.09426C10.914 4.09726 11.827 4.18826 12.709 4.35626L10.932 6.13226C10.642 6.11026 10.348 6.09726 10.052 6.09426C10.334 6.09826 10.609 6.13126 10.875 6.19026L6.095 10.9693H6.096ZM19.092 0.801259C19.2795 0.988787 19.3848 1.24309 19.3848 1.50826C19.3848 1.77342 19.2795 2.02773 19.092 2.21526L2.122 19.1853C2.02982 19.2808 1.91953 19.3571 1.79756 19.4096C1.6756 19.4621 1.5444 19.4898 1.41162 19.491C1.27884 19.4922 1.14715 19.467 1.02422 19.4168C0.901286 19.3667 0.789582 19.2925 0.695624 19.1987C0.601666 19.1048 0.527334 18.9932 0.476967 18.8704C0.426599 18.7475 0.401204 18.6158 0.402262 18.4831C0.403321 18.3503 0.430813 18.2191 0.483134 18.097C0.535455 17.975 0.611557 17.8646 0.707 17.7723L17.677 0.802259C17.7699 0.709282 17.8802 0.635523 18.0016 0.585199C18.123 0.534875 18.2531 0.508972 18.3845 0.508972C18.5159 0.508972 18.646 0.534875 18.7674 0.585199C18.8888 0.635523 18.9991 0.708282 19.092 0.801259Z" fill="#1E1E1E" fill-opacity="0.5"/>
</svg>
