<svg width="22" height="22" viewBox="0 0 22 22" fill="none" xmlns="http://www.w3.org/2000/svg">
<path d="M21.1538 8.89449H20.2686C20.0559 6.5833 18.9875 4.43492 17.2728 2.87074C15.5582 1.30655 13.3209 0.439423 11 0.439423C8.67905 0.439423 6.44184 1.30655 4.72716 2.87074C3.01248 4.43492 1.94405 6.5833 1.73144 8.89449H0.846154C0.62174 8.89449 0.406517 8.98363 0.247833 9.14232C0.0891481 9.301 0 9.51623 0 9.74064C0.00371779 11.7529 0.557502 13.7259 1.60146 15.4462C2.64542 17.1665 4.13983 18.5686 5.92308 19.501V19.8945C5.92308 20.3433 6.10137 20.7738 6.41874 21.0911C6.73611 21.4085 7.16656 21.5868 7.61538 21.5868H14.3846C14.8334 21.5868 15.2639 21.4085 15.5813 21.0911C15.8986 20.7738 16.0769 20.3433 16.0769 19.8945V19.501C17.8602 18.5686 19.3546 17.1665 20.3985 15.4462C21.4425 13.7259 21.9963 11.7529 22 9.74064C22 9.51623 21.9109 9.301 21.7522 9.14232C21.5935 8.98363 21.3783 8.89449 21.1538 8.89449ZM18.5667 8.89449H13.1281C14.1539 7.35542 15.706 6.2434 17.4932 5.76689C18.0775 6.71739 18.4441 7.78549 18.5667 8.89449ZM15.8104 3.84189C16.0043 4.00055 16.1901 4.16801 16.3678 4.3443C14.1153 5.13667 12.2539 6.76514 11.1692 8.89237H8.04904C8.57789 7.40994 9.55153 6.12694 10.8369 5.21863C12.1223 4.31033 13.6568 3.82102 15.2308 3.81756C15.4243 3.81756 15.6179 3.82708 15.8104 3.84189ZM11 2.12526C11.679 2.12571 12.3549 2.21713 13.0096 2.39708C11.4151 2.79263 9.95297 3.60152 8.77068 4.74222C7.58838 5.88292 6.72767 7.31513 6.27529 8.89449H3.43327C3.64316 7.03386 4.53044 5.31554 5.92594 4.06712C7.32144 2.81869 9.12757 2.12748 11 2.12526ZM14.8775 18.2022C14.7299 18.27 14.6049 18.3789 14.5175 18.5158C14.4301 18.6527 14.384 18.8119 14.3846 18.9743V19.8945H7.61538V18.9743C7.616 18.8119 7.56986 18.6527 7.48246 18.5158C7.39506 18.3789 7.2701 18.27 7.1225 18.2022C5.63445 17.5174 4.3527 16.4533 3.40588 15.1166C2.45907 13.78 1.88051 12.2177 1.72827 10.5868H20.2686C20.1166 12.2174 19.5385 13.7794 18.5923 15.116C17.6461 16.4527 16.365 17.517 14.8775 18.2022Z" fill="#B2675E"/>
</svg>
