<svg width="24" height="25" viewBox="0 0 24 25" fill="none" xmlns="http://www.w3.org/2000/svg">
<path d="M8.23731 1.15696C5.76086 1.99866 3.62517 3.59623 2.14395 5.71501C0.662724 7.83379 -0.0859639 10.3621 0.00785455 12.9286C0.101673 15.4951 1.03305 17.9644 2.66519 19.974C4.29733 21.9835 6.54419 23.4273 9.07575 24.0933C11.1281 24.6121 13.2784 24.6349 15.3418 24.1597C17.211 23.7483 18.9391 22.8684 20.357 21.6061C21.8327 20.2522 22.9038 18.5299 23.4552 16.6243C24.0543 14.5519 24.161 12.3727 23.7669 10.2537H12.2417V14.9377H18.9163C18.7829 15.6848 18.4971 16.3978 18.0759 17.0341C17.6546 17.6704 17.1067 18.2169 16.4649 18.6409C15.65 19.1693 14.7311 19.5248 13.7676 19.6843C12.8012 19.8604 11.81 19.8604 10.8436 19.6843C9.86415 19.4861 8.93757 19.0901 8.12306 18.5214C6.81437 17.6138 5.83172 16.3244 5.31534 14.8372C4.79037 13.3221 4.79037 11.6796 5.31534 10.1645C5.68291 9.10255 6.29055 8.13562 7.09292 7.33591C8.01112 6.40394 9.1736 5.73776 10.4528 5.41047C11.732 5.08318 13.0785 5.10741 14.3446 5.48052C15.3337 5.77784 16.2381 6.29757 16.9858 6.99822C17.7384 6.26467 18.4897 5.52921 19.2397 4.79186C19.627 4.39536 20.0491 4.01783 20.4306 3.61185C19.2892 2.5713 17.9494 1.76158 16.4881 1.22905C13.827 0.282363 10.9152 0.256922 8.23731 1.15696Z" fill="white"/>
</svg>
