<svg width="81" height="11" viewBox="0 0 81 11" fill="none" xmlns="http://www.w3.org/2000/svg">
<path d="M3.64133 10C2.82933 10 2.18999 9.87867 1.72333 9.636C1.25666 9.384 0.920662 9.00133 0.715328 8.488C0.519328 7.96533 0.421328 7.30733 0.421328 6.514C0.421328 5.71133 0.519328 5.04867 0.715328 4.526C0.920662 4.00333 1.25666 3.616 1.72333 3.364C2.18999 3.112 2.82933 2.986 3.64133 2.986H6.60933V9.356H5.30733V3.7L5.83933 4.162H3.64133C3.14666 4.162 2.75933 4.22267 2.47933 4.344C2.19933 4.456 2.00333 4.68467 1.89133 5.03C1.77933 5.366 1.72333 5.86067 1.72333 6.514C1.72333 7.158 1.77933 7.648 1.89133 7.984C2.00333 8.31067 2.19466 8.53467 2.46533 8.656C2.74533 8.77733 3.13733 8.838 3.64133 8.838H8.10733V10H3.64133ZM8.10733 10V8.838C8.16333 8.838 8.21 8.852 8.24733 8.88C8.28466 8.908 8.31266 8.94533 8.33133 8.992C8.35 9.03867 8.364 9.09933 8.37333 9.174C8.38266 9.23933 8.38733 9.31867 8.38733 9.412C8.38733 9.496 8.38266 9.57533 8.37333 9.65C8.364 9.72467 8.35 9.79 8.33133 9.846C8.31266 9.89267 8.28466 9.93 8.24733 9.958C8.21 9.986 8.16333 10 8.10733 10ZM17.2895 10V8.838H18.8015V10H17.2895ZM8.10547 10V8.838H17.5275L16.3515 9.874V6.668C16.3515 6.09867 16.2721 5.632 16.1135 5.268C15.9641 4.89467 15.7355 4.61933 15.4275 4.442C15.1195 4.25533 14.7368 4.162 14.2795 4.162C13.8781 4.162 13.5001 4.232 13.1455 4.372C12.7908 4.512 12.4641 4.69867 12.1655 4.932C11.8668 5.156 11.5868 5.40333 11.3255 5.674C11.0641 5.94467 10.8261 6.21533 10.6115 6.486C10.4061 6.75667 10.2195 6.99933 10.0515 7.214L9.65947 6.122C9.9768 5.72067 10.2895 5.338 10.5975 4.974C10.9055 4.60067 11.2368 4.26467 11.5915 3.966C11.9555 3.66733 12.3568 3.42933 12.7955 3.252C13.2435 3.07467 13.7568 2.986 14.3355 2.986C14.9888 2.986 15.5301 3.098 15.9595 3.322C16.3888 3.546 16.7248 3.84 16.9675 4.204C17.2195 4.568 17.3968 4.96933 17.4995 5.408C17.6021 5.83733 17.6535 6.25733 17.6535 6.668V10H8.10547ZM9.04347 8.838V0.00399935H10.3455V8.838H9.04347ZM8.10547 10C8.04947 10 8.0028 9.986 7.96547 9.958C7.92814 9.93 7.90014 9.89267 7.88147 9.846C7.8628 9.79 7.8488 9.72467 7.83947 9.65C7.83014 9.57533 7.82547 9.496 7.82547 9.412C7.82547 9.29067 7.8348 9.188 7.85347 9.104C7.8628 9.02 7.8908 8.95467 7.93747 8.908C7.9748 8.86133 8.0308 8.838 8.10547 8.838V10ZM18.8015 10V8.838C18.8575 8.838 18.9041 8.852 18.9415 8.88C18.9788 8.908 19.0068 8.94533 19.0255 8.992C19.0441 9.03867 19.0581 9.09933 19.0675 9.174C19.0768 9.23933 19.0815 9.31867 19.0815 9.412C19.0815 9.496 19.0768 9.57533 19.0675 9.65C19.0581 9.72467 19.0441 9.79 19.0255 9.846C19.0068 9.89267 18.9788 9.93 18.9415 9.958C18.9041 9.986 18.8575 10 18.8015 10ZM18.7969 10V8.838H21.1769L20.5049 9.37V2.986H21.8069V10H18.7969ZM18.7969 10C18.7409 10 18.6942 9.986 18.6569 9.958C18.6195 9.93 18.5915 9.89267 18.5729 9.846C18.5542 9.79 18.5402 9.72467 18.5309 9.65C18.5215 9.57533 18.5169 9.496 18.5169 9.412C18.5169 9.29067 18.5262 9.188 18.5449 9.104C18.5542 9.02 18.5822 8.95467 18.6289 8.908C18.6662 8.86133 18.7222 8.838 18.7969 8.838V10ZM19.3429 12.646V11.288H20.6309V12.646H19.3429ZM21.4289 12.646V11.288H22.7169V12.646H21.4289ZM26.6245 10V8.838H28.4165V10H26.6245ZM24.2165 13.206C24.0952 13.206 23.9692 13.1967 23.8385 13.178C23.6985 13.1687 23.5585 13.1593 23.4185 13.15L23.5305 11.988C23.6705 11.9973 23.8012 12.0067 23.9225 12.016C24.0345 12.0253 24.1278 12.03 24.2025 12.03C24.6225 12.03 24.9585 11.8713 25.2105 11.554C25.4718 11.2367 25.6025 10.7933 25.6025 10.224V2.986H26.9185V10.224C26.9185 10.812 26.8018 11.33 26.5685 11.778C26.3352 12.226 26.0178 12.576 25.6165 12.828C25.2152 13.08 24.7485 13.206 24.2165 13.206ZM28.4165 10V8.838C28.4725 8.838 28.5192 8.852 28.5565 8.88C28.5938 8.908 28.6218 8.94533 28.6405 8.992C28.6592 9.03867 28.6732 9.09933 28.6825 9.174C28.6918 9.23933 28.6965 9.31867 28.6965 9.412C28.6965 9.496 28.6918 9.57533 28.6825 9.65C28.6732 9.72467 28.6592 9.79 28.6405 9.846C28.6218 9.89267 28.5938 9.93 28.5565 9.958C28.5192 9.986 28.4725 10 28.4165 10ZM35.4359 10V8.838H36.9479V10H35.4359ZM28.4219 10C28.3659 10 28.3192 9.986 28.2819 9.958C28.2445 9.93 28.2165 9.89267 28.1979 9.846C28.1792 9.79 28.1652 9.72467 28.1559 9.65C28.1465 9.57533 28.1419 9.496 28.1419 9.412C28.1419 9.29067 28.1512 9.188 28.1699 9.104C28.1792 9.02 28.2072 8.95467 28.2539 8.908C28.2912 8.86133 28.3472 8.838 28.4219 8.838V10ZM28.4219 10V8.838H34.5539L34.1339 9.188V5.954C34.1339 5.366 33.9472 4.92267 33.5739 4.624C33.2099 4.32533 32.6405 4.176 31.8659 4.176C31.6325 4.176 31.2965 4.19467 30.8579 4.232C30.4285 4.26933 29.9712 4.32533 29.4859 4.4L29.3459 3.336C29.7285 3.24267 30.1439 3.16333 30.5919 3.098C31.0399 3.02333 31.4739 2.986 31.8939 2.986C32.6219 2.986 33.2472 3.10267 33.7699 3.336C34.3019 3.56933 34.7125 3.91 35.0019 4.358C35.2912 4.79667 35.4359 5.32867 35.4359 5.954V10H28.4219ZM36.9479 10V8.838C37.0039 8.838 37.0459 8.852 37.0739 8.88C37.1112 8.908 37.1392 8.94533 37.1579 8.992C37.1859 9.03867 37.2045 9.09933 37.2139 9.174C37.2232 9.23933 37.2279 9.31867 37.2279 9.412C37.2279 9.496 37.2232 9.57533 37.2139 9.65C37.2045 9.72467 37.1859 9.79 37.1579 9.846C37.1392 9.89267 37.1112 9.93 37.0739 9.958C37.0459 9.986 37.0039 10 36.9479 10ZM31.2359 1.992V0.634H32.5519V1.992H31.2359ZM39.9211 10V8.838H41.4331V10H39.9211ZM36.9531 10C36.8971 10 36.8505 9.986 36.8131 9.958C36.7758 9.93 36.7478 9.89267 36.7291 9.846C36.7105 9.79 36.6965 9.72467 36.6871 9.65C36.6778 9.57533 36.6731 9.496 36.6731 9.412C36.6731 9.29067 36.6825 9.188 36.7011 9.104C36.7105 9.02 36.7385 8.95467 36.7851 8.908C36.8225 8.86133 36.8785 8.838 36.9531 8.838V10ZM38.6191 10V0.00399935H39.9211V10H38.6191ZM36.9531 10V8.838H38.6191V10H36.9531ZM41.4331 10V8.838C41.4798 8.838 41.5218 8.852 41.5591 8.88C41.5965 8.908 41.6245 8.94533 41.6431 8.992C41.6618 9.03867 41.6758 9.09933 41.6851 9.174C41.7038 9.23933 41.7131 9.31867 41.7131 9.412C41.7131 9.496 41.7038 9.57533 41.6851 9.65C41.6758 9.72467 41.6618 9.79 41.6431 9.846C41.6245 9.89267 41.5965 9.93 41.5591 9.958C41.5218 9.986 41.4798 10 41.4331 10ZM43.1035 10V0.00399935H44.4055V10H43.1035ZM41.4375 10V8.838H43.1035V10H41.4375ZM41.4375 10C41.3815 10 41.3348 9.986 41.2975 9.958C41.2602 9.93 41.2322 9.89267 41.2135 9.846C41.1948 9.79 41.1808 9.72467 41.1715 9.65C41.1622 9.57533 41.1575 9.496 41.1575 9.412C41.1575 9.29067 41.1668 9.188 41.1855 9.104C41.1948 9.02 41.2228 8.95467 41.2695 8.908C41.3068 8.86133 41.3628 8.838 41.4375 8.838V10ZM58.7115 10V8.838H60.2095V10H58.7115ZM53.3635 10C52.4209 10 51.6322 9.888 50.9975 9.664C50.3629 9.43067 49.8822 9.08533 49.5555 8.628C49.2382 8.17067 49.0795 7.58733 49.0795 6.878C49.0795 6.654 49.0935 6.416 49.1215 6.164C49.1589 5.90267 49.1962 5.65067 49.2335 5.408C49.2802 5.16533 49.3222 4.95533 49.3595 4.778C49.3969 4.60067 49.4249 4.47467 49.4435 4.4L50.7175 4.638C50.6895 4.78733 50.6475 4.988 50.5915 5.24C50.5449 5.492 50.4982 5.76267 50.4515 6.052C50.4049 6.34133 50.3815 6.61667 50.3815 6.878C50.3815 7.22333 50.4375 7.522 50.5495 7.774C50.6615 8.026 50.8342 8.23133 51.0675 8.39C51.3102 8.54867 51.6182 8.66533 51.9915 8.74C52.3742 8.80533 52.8409 8.838 53.3915 8.838H57.3955V2.986H58.7115V10H53.3635ZM60.2095 10V8.838C60.2655 8.838 60.3122 8.852 60.3495 8.88C60.3869 8.908 60.4149 8.94533 60.4335 8.992C60.4522 9.03867 60.4662 9.09933 60.4755 9.174C60.4849 9.23933 60.4895 9.31867 60.4895 9.412C60.4895 9.496 60.4849 9.57533 60.4755 9.65C60.4662 9.72467 60.4522 9.79 60.4335 9.846C60.4149 9.89267 60.3869 9.93 60.3495 9.958C60.3122 9.986 60.2655 10 60.2095 10ZM53.2795 12.646V11.288H54.5955V12.646H53.2795ZM60.209 10V8.838H69.911L69.057 9.552V7.172C69.057 6.31333 68.9263 5.61333 68.665 5.072C68.413 4.53067 68.0257 4.134 67.503 3.882C66.9897 3.62067 66.3363 3.49 65.543 3.49C65.1977 3.49 64.829 3.50867 64.437 3.546C64.045 3.574 63.6577 3.616 63.275 3.672C62.8923 3.71867 62.5423 3.76533 62.225 3.812L62.057 2.874C62.2997 2.80867 62.6123 2.734 62.995 2.65C63.387 2.55667 63.8117 2.47733 64.269 2.412C64.7357 2.34667 65.1883 2.314 65.627 2.314C66.2243 2.314 66.803 2.39333 67.363 2.552C67.9323 2.71067 68.4363 2.97667 68.875 3.35C69.323 3.714 69.6777 4.20867 69.939 4.834C70.2097 5.45933 70.345 6.23867 70.345 7.172V10H60.209ZM61.819 8.838V7.83C61.819 7.382 61.931 6.96667 62.155 6.584C62.379 6.20133 62.687 5.89333 63.079 5.66C63.4803 5.42667 63.9237 5.31 64.409 5.31C64.9037 5.31 65.3423 5.42667 65.725 5.66C66.117 5.89333 66.425 6.20133 66.649 6.584C66.873 6.96667 66.985 7.382 66.985 7.83V8.838H65.781V7.83C65.781 7.55 65.7157 7.30267 65.585 7.088C65.4637 6.87333 65.3003 6.70533 65.095 6.584C64.899 6.45333 64.6703 6.388 64.409 6.388C64.157 6.388 63.9237 6.45333 63.709 6.584C63.5037 6.70533 63.3357 6.878 63.205 7.102C63.0743 7.31667 63.009 7.55933 63.009 7.83V8.838H61.819ZM60.209 10C60.153 10 60.1063 9.986 60.069 9.958C60.0317 9.93 60.0037 9.89267 59.985 9.846C59.9663 9.79 59.9523 9.72467 59.943 9.65C59.9337 9.57533 59.929 9.496 59.929 9.412C59.929 9.29067 59.9383 9.188 59.957 9.104C59.9663 9.02 59.9943 8.95467 60.041 8.908C60.0783 8.86133 60.1343 8.838 60.209 8.838V10ZM71.9389 10V8.838H77.1189L76.1249 9.72V6.85C76.1249 6.16867 76.0456 5.632 75.8869 5.24C75.7376 4.848 75.4902 4.57267 75.1449 4.414C74.7996 4.246 74.3329 4.162 73.7449 4.162H72.6109V2.986H73.7449C74.5196 2.986 75.1822 3.112 75.7329 3.364C76.2836 3.60667 76.7036 4.01267 76.9929 4.582C77.2822 5.142 77.4269 5.898 77.4269 6.85V10H71.9389ZM72.9049 1.726V0.368H74.2209V1.726H72.9049ZM79.5172 10V0.00399935H80.8192V10H79.5172Z" fill="#F9F3E4"/>
</svg>
