<svg width="28" height="24" viewBox="0 0 28 24" fill="none" xmlns="http://www.w3.org/2000/svg">
<path d="M20.25 0.00280762C17.6688 0.00280762 15.4088 1.11281 14 2.98906C12.5912 1.11281 10.3313 0.00280762 7.75 0.00280762C5.69528 0.00512354 3.72539 0.822383 2.27248 2.27529C0.819575 3.72819 0.00231592 5.69809 0 7.75281C0 16.5028 12.9738 23.5853 13.5262 23.8778C13.6719 23.9561 13.8346 23.9971 14 23.9971C14.1654 23.9971 14.3281 23.9561 14.4737 23.8778C15.0262 23.5853 28 16.5028 28 7.75281C27.9977 5.69809 27.1804 3.72819 25.7275 2.27529C24.2746 0.822383 22.3047 0.00512354 20.25 0.00280762ZM14 21.8528C11.7175 20.5228 2 14.4641 2 7.75281C2.00198 6.22842 2.60842 4.76704 3.68633 3.68914C4.76423 2.61123 6.22561 2.00479 7.75 2.00281C10.1812 2.00281 12.2225 3.29781 13.075 5.37781C13.1503 5.56122 13.2785 5.71809 13.4432 5.82849C13.6079 5.93889 13.8017 5.99784 14 5.99784C14.1983 5.99784 14.3921 5.93889 14.5568 5.82849C14.7215 5.71809 14.8497 5.56122 14.925 5.37781C15.7775 3.29406 17.8188 2.00281 20.25 2.00281C21.7744 2.00479 23.2358 2.61123 24.3137 3.68914C25.3916 4.76704 25.998 6.22842 26 7.75281C26 14.4541 16.28 20.5216 14 21.8528Z" fill="#F9F3E4"/>
</svg>
