<svg width="30" height="26" viewBox="0 0 30 26" fill="none" xmlns="http://www.w3.org/2000/svg">
<path d="M29 23.4989H27V11.9427C27 11.6659 26.9426 11.3921 26.8314 11.1386C26.7201 10.8851 26.5575 10.6575 26.3538 10.4702L16.3538 1.03516C16.3489 1.0309 16.3443 1.0263 16.34 1.02141C15.9718 0.686578 15.492 0.501038 14.9944 0.501038C14.4967 0.501038 14.0169 0.686578 13.6488 1.02141L13.635 1.03516L3.64625 10.4702C3.4425 10.6575 3.27985 10.8851 3.16861 11.1386C3.05737 11.3921 2.99996 11.6659 3 11.9427V23.4989H1C0.734784 23.4989 0.48043 23.6043 0.292893 23.7918C0.105357 23.9793 0 24.2337 0 24.4989C0 24.7641 0.105357 25.0185 0.292893 25.206C0.48043 25.3936 0.734784 25.4989 1 25.4989H29C29.2652 25.4989 29.5196 25.3936 29.7071 25.206C29.8946 25.0185 30 24.7641 30 24.4989C30 24.2337 29.8946 23.9793 29.7071 23.7918C29.5196 23.6043 29.2652 23.4989 29 23.4989ZM18 23.4989H12V17.4989C12 17.2337 12.1054 16.9793 12.2929 16.7918C12.4804 16.6043 12.7348 16.4989 13 16.4989H17C17.2652 16.4989 17.5196 16.6043 17.7071 16.7918C17.8946 16.9793 18 17.2337 18 17.4989V23.4989Z" fill="#DED0B6"/>
</svg>
