<svg width="22" height="22" viewBox="0 0 22 22" fill="none" xmlns="http://www.w3.org/2000/svg">
<path d="M11 0C8.82441 0 6.69767 0.645139 4.88873 1.85383C3.07979 3.06253 1.66989 4.78049 0.83733 6.79048C0.00476613 8.80047 -0.213071 11.0122 0.211367 13.146C0.635804 15.2798 1.68345 17.2398 3.22183 18.7782C4.76021 20.3165 6.72022 21.3642 8.85401 21.7886C10.9878 22.2131 13.1995 21.9952 15.2095 21.1627C17.2195 20.3301 18.9375 18.9202 20.1462 17.1113C21.3549 15.3023 22 13.1756 22 11C21.9969 8.08356 20.837 5.28746 18.7748 3.22523C16.7125 1.16299 13.9164 0.00307981 11 0ZM11 20.3077C9.15911 20.3077 7.35957 19.7618 5.82893 18.7391C4.29829 17.7163 3.10529 16.2627 2.40082 14.5619C1.69634 12.8611 1.51202 10.9897 1.87116 9.18416C2.2303 7.37864 3.11677 5.72017 4.41847 4.41847C5.72018 3.11676 7.37865 2.23029 9.18416 1.87115C10.9897 1.51201 12.8611 1.69634 14.5619 2.40081C16.2627 3.10529 17.7163 4.29828 18.7391 5.82892C19.7618 7.35956 20.3077 9.15911 20.3077 11C20.3049 13.4677 19.3234 15.8335 17.5784 17.5784C15.8335 19.3234 13.4677 20.3049 11 20.3077ZM12.6923 16.0769C12.6923 16.3013 12.6032 16.5166 12.4445 16.6752C12.2858 16.8339 12.0706 16.9231 11.8462 16.9231C11.3973 16.9231 10.9669 16.7448 10.6495 16.4274C10.3321 16.11 10.1538 15.6796 10.1538 15.2308V11C9.92943 11 9.71421 10.9108 9.55553 10.7522C9.39684 10.5935 9.3077 10.3783 9.3077 10.1538C9.3077 9.92943 9.39684 9.71421 9.55553 9.55552C9.71421 9.39684 9.92943 9.30769 10.1538 9.30769C10.6027 9.30769 11.0331 9.48599 11.3505 9.80336C11.6679 10.1207 11.8462 10.5512 11.8462 11V15.2308C12.0706 15.2308 12.2858 15.3199 12.4445 15.4786C12.6032 15.6373 12.6923 15.8525 12.6923 16.0769ZM9.3077 6.34615C9.3077 6.09512 9.38213 5.84973 9.5216 5.64101C9.66106 5.43228 9.85929 5.2696 10.0912 5.17354C10.3231 5.07747 10.5783 5.05234 10.8245 5.10131C11.0707 5.15028 11.2969 5.27117 11.4744 5.44867C11.6519 5.62618 11.7728 5.85233 11.8218 6.09854C11.8707 6.34474 11.8456 6.59994 11.7495 6.83187C11.6535 7.06379 11.4908 7.26201 11.2821 7.40148C11.0733 7.54094 10.828 7.61538 10.5769 7.61538C10.2403 7.61538 9.91747 7.48166 9.67944 7.24363C9.44142 7.00561 9.3077 6.68277 9.3077 6.34615Z" fill="#B2675E"/>
</svg>
