<svg width="100" height="99" viewBox="0 0 100 99" fill="none" xmlns="http://www.w3.org/2000/svg">
<path d="M49.9713 -0.00494385C40.0879 -0.00494385 30.4265 2.89847 22.2088 8.33814C13.991 13.7778 7.58607 21.5094 3.80386 30.5553C0.0216519 39.6011 -0.967947 49.5549 0.960207 59.1579C2.88836 68.7609 7.64767 77.5819 14.6363 84.5053C21.6249 91.4287 30.5289 96.1435 40.2224 98.0537C49.9159 99.9639 59.9634 98.9835 69.0945 95.2366C78.2256 91.4897 86.03 85.1445 91.5209 77.0035C97.0119 68.8624 99.9426 59.2911 99.9426 49.5C99.9286 36.3747 94.6593 23.791 85.2909 14.51C75.9225 5.22905 63.2202 0.00891667 49.9713 -0.00494385ZM24.0631 82.5826C26.8439 78.2742 30.6747 74.7285 35.2025 72.2725C39.7303 69.8165 44.8093 68.5292 49.9713 68.5292C55.1334 68.5292 60.2124 69.8165 64.7401 72.2725C69.2679 74.7285 73.0987 78.2742 75.8795 82.5826C68.4719 88.2899 59.3555 91.3885 49.9713 91.3885C40.5872 91.3885 31.4707 88.2899 24.0631 82.5826ZM34.5955 45.6919C34.5955 42.6793 35.4973 39.7343 37.1868 37.2293C38.8763 34.7244 41.2777 32.772 44.0873 31.6191C46.8968 30.4662 49.9884 30.1646 52.971 30.7523C55.9536 31.3401 58.6933 32.7908 60.8436 34.9211C62.994 37.0513 64.4584 39.7655 65.0517 42.7203C65.6449 45.675 65.3405 48.7377 64.1767 51.5211C63.0129 54.3044 61.0422 56.6834 58.5136 58.3571C55.9851 60.0308 53.0124 60.9242 49.9713 60.9242C45.8934 60.9242 41.9825 59.3194 39.099 56.4628C36.2155 53.6062 34.5955 49.7318 34.5955 45.6919ZM81.5686 77.3037C77.2814 71.1493 71.2532 66.3879 64.242 63.6184C68.0081 60.6798 70.7564 56.6515 72.1044 52.0937C73.4525 47.536 73.3334 42.6754 71.7637 38.1879C70.194 33.7003 67.2517 29.8089 63.346 27.0547C59.4404 24.3005 54.7654 22.8205 49.9713 22.8205C45.1772 22.8205 40.5023 24.3005 36.5966 27.0547C32.6909 29.8089 29.7487 33.7003 28.179 38.1879C26.6093 42.6754 26.4902 47.536 27.8382 52.0937C29.1863 56.6515 31.9345 60.6798 35.7007 63.6184C28.6894 66.3879 22.6612 71.1493 18.3741 77.3037C12.9569 71.2687 9.41611 63.8109 8.17823 55.8285C6.94036 47.8461 8.05812 39.6794 11.3969 32.3118C14.7357 24.9441 20.1532 18.6897 26.997 14.3017C33.8409 9.91364 41.8192 7.57905 49.9713 7.57905C58.1235 7.57905 66.1018 9.91364 72.9456 14.3017C79.7894 18.6897 85.2069 24.9441 88.5457 32.3118C91.8845 39.6794 93.0023 47.8461 91.7644 55.8285C90.5265 63.8109 86.9858 71.2687 81.5686 77.3037Z" fill="#0B8FAC"/>
</svg>
