<svg width="352" height="170" viewBox="0 0 352 170" fill="none" xmlns="http://www.w3.org/2000/svg">
<g filter="url(#filter0_d_70_532)">
<rect x="10" y="6" width="332" height="150" rx="8" fill="#FBFBFB" shape-rendering="crispEdges"/>
<path d="M126.621 93.46C125.754 93.46 124.947 93.3333 124.201 93.08C123.467 92.84 122.827 92.5 122.281 92.06C121.734 91.6333 121.301 91.12 120.981 90.52C120.674 89.9333 120.521 89.2933 120.521 88.6C120.521 88.3467 120.541 88.02 120.581 87.62C120.621 87.22 120.674 86.76 120.741 86.24C120.821 85.72 120.907 85.1667 121.001 84.58L123.641 84.94C123.507 85.78 123.401 86.5267 123.321 87.18C123.241 87.8333 123.201 88.2933 123.201 88.56C123.201 89.0667 123.341 89.5133 123.621 89.9C123.901 90.2867 124.294 90.5867 124.801 90.8C125.321 91.0267 125.927 91.14 126.621 91.14H132.281C133.147 91.14 133.794 90.92 134.221 90.48C134.647 90.04 134.861 89.4 134.861 88.56V87.8H137.521V88.56C137.521 89.52 137.307 90.3667 136.881 91.1C136.454 91.8333 135.847 92.4067 135.061 92.82C134.287 93.2467 133.361 93.46 132.281 93.46H126.621ZM133.981 88.5C133.367 88.5 132.774 88.4333 132.201 88.3C131.641 88.1667 131.107 87.9267 130.601 87.58L132.121 85.66C132.334 85.8067 132.521 85.92 132.681 86C132.854 86.0667 133.041 86.1133 133.241 86.14C133.454 86.1667 133.701 86.18 133.981 86.18H138.401V88.5H133.981ZM138.401 88.5V86.18C138.467 86.18 138.527 86.2067 138.581 86.26C138.634 86.3133 138.674 86.3933 138.701 86.5C138.727 86.6067 138.747 86.7333 138.761 86.88C138.787 87.0133 138.801 87.1667 138.801 87.34C138.801 87.5133 138.787 87.6733 138.761 87.82C138.747 87.9667 138.727 88.0933 138.701 88.2C138.674 88.2933 138.634 88.3667 138.581 88.42C138.527 88.4733 138.467 88.5 138.401 88.5ZM125.941 97.58V95.3H128.521V97.58H125.941ZM129.581 97.58V95.3H132.161V97.58H129.581ZM150.213 88.5V86.18H152.333V88.5H150.213ZM138.393 88.5C138.313 88.5 138.253 88.4733 138.213 88.42C138.159 88.3667 138.119 88.2933 138.093 88.2C138.053 88.0933 138.026 87.9667 138.013 87.82C137.999 87.6733 137.993 87.5133 137.993 87.34C137.993 87.1 138.006 86.9 138.033 86.74C138.059 86.5667 138.106 86.4333 138.173 86.34C138.226 86.2333 138.299 86.18 138.393 86.18V88.5ZM138.393 88.5V86.18H148.773L147.553 87.22V83.54C147.553 82.82 147.473 82.26 147.313 81.86C147.153 81.4467 146.873 81.16 146.473 81C146.086 80.8267 145.546 80.74 144.853 80.74C144.306 80.74 143.766 80.78 143.233 80.86C142.713 80.9267 142.306 81.02 142.013 81.14L143.673 79.58C143.593 79.8867 143.513 80.2733 143.433 80.74C143.366 81.2067 143.306 81.7067 143.253 82.24C143.199 82.76 143.173 83.2733 143.173 83.78C143.173 84.2467 143.193 84.7333 143.233 85.24C143.286 85.7467 143.339 86.1933 143.393 86.58C143.459 86.9667 143.513 87.2333 143.553 87.38L141.013 88.08C140.959 87.8933 140.893 87.5867 140.813 87.16C140.733 86.7333 140.659 86.2267 140.593 85.64C140.539 85.0533 140.513 84.4333 140.513 83.78C140.513 83.1133 140.546 82.4733 140.613 81.86C140.679 81.2333 140.753 80.6733 140.833 80.18C140.926 79.6733 141.013 79.2667 141.093 78.96C141.413 78.84 141.913 78.72 142.593 78.6C143.273 78.48 144.026 78.42 144.853 78.42C146.053 78.42 147.046 78.5867 147.833 78.92C148.633 79.2533 149.226 79.7933 149.613 80.54C150.013 81.2867 150.213 82.2933 150.213 83.56V88.5H138.393ZM152.333 88.5V86.18C152.399 86.18 152.459 86.2067 152.513 86.26C152.566 86.3133 152.606 86.3933 152.633 86.5C152.659 86.6067 152.679 86.7333 152.693 86.88C152.719 87.0133 152.733 87.1667 152.733 87.34C152.733 87.5133 152.719 87.6733 152.693 87.82C152.679 87.9667 152.659 88.0933 152.633 88.2C152.606 88.2933 152.566 88.3667 152.513 88.42C152.459 88.4733 152.399 88.5 152.333 88.5ZM158.178 88.5V86.18H160.678V88.5H158.178ZM160.678 88.5V86.18C160.745 86.18 160.805 86.2067 160.858 86.26C160.911 86.3133 160.951 86.3933 160.978 86.5C161.005 86.6067 161.025 86.7333 161.038 86.88C161.065 87.0133 161.078 87.1667 161.078 87.34C161.078 87.5133 161.065 87.6733 161.038 87.82C161.025 87.9667 161.005 88.0933 160.978 88.2C160.951 88.2933 160.911 88.3667 160.858 88.42C160.818 88.4733 160.758 88.5 160.678 88.5ZM152.338 88.5C152.258 88.5 152.198 88.4733 152.158 88.42C152.105 88.3667 152.065 88.2933 152.038 88.2C151.998 88.0933 151.971 87.9667 151.958 87.82C151.945 87.6733 151.938 87.5133 151.938 87.34C151.938 87.1 151.951 86.9 151.978 86.74C152.005 86.5667 152.051 86.4333 152.118 86.34C152.171 86.2333 152.245 86.18 152.338 86.18V88.5ZM152.338 88.5V86.18H157.078L155.518 87.48V78.46H158.178V88.5H152.338ZM153.058 92.76V90.48H155.638V92.76H153.058ZM156.698 92.76V90.48H159.278V92.76H156.698ZM165.618 88.5V86.18H167.718V88.5H165.618ZM160.678 88.5C160.598 88.5 160.538 88.4733 160.498 88.42C160.444 88.3667 160.404 88.2933 160.378 88.2C160.338 88.0933 160.311 87.9667 160.298 87.82C160.284 87.6733 160.278 87.5133 160.278 87.34C160.278 87.1 160.291 86.9 160.318 86.74C160.344 86.5667 160.391 86.4333 160.458 86.34C160.511 86.2333 160.584 86.18 160.678 86.18V88.5ZM162.938 88.5V74.36H165.618V88.5H162.938ZM160.678 88.5V86.18H162.938V88.5H160.678ZM167.718 88.5V86.18C167.798 86.18 167.864 86.2067 167.918 86.26C167.971 86.3133 168.011 86.3933 168.038 86.5C168.064 86.6067 168.084 86.7333 168.098 86.88C168.111 87.0133 168.118 87.1667 168.118 87.34C168.118 87.5133 168.111 87.6733 168.098 87.82C168.084 87.9667 168.064 88.0933 168.038 88.2C168.011 88.2933 167.971 88.3667 167.918 88.42C167.864 88.4733 167.798 88.5 167.718 88.5ZM167.709 88.5V86.18H171.949C172.522 86.18 173.076 86.0733 173.609 85.86C174.142 85.6333 174.629 85.34 175.069 84.98C175.522 84.6067 175.916 84.2 176.249 83.76C176.596 83.3067 176.862 82.8467 177.049 82.38C177.249 81.9133 177.349 81.4733 177.349 81.06V79.78L178.629 81.9C177.936 81.5267 177.229 81.2467 176.509 81.06C175.789 80.8733 175.102 80.78 174.449 80.78C173.809 80.78 173.122 80.8733 172.389 81.06C171.669 81.2467 170.969 81.5267 170.289 81.9L171.569 79.78V81.06C171.569 81.4733 171.662 81.9133 171.849 82.38C172.049 82.8467 172.316 83.3067 172.649 83.76C172.982 84.2 173.376 84.6067 173.829 84.98C174.282 85.34 174.776 85.6333 175.309 85.86C175.842 86.0733 176.389 86.18 176.949 86.18H181.069V88.5H177.789C176.749 88.5 175.776 88.3333 174.869 88C173.962 87.6667 173.142 87.2267 172.409 86.68C171.676 86.12 171.042 85.5133 170.509 84.86C169.989 84.1933 169.589 83.5333 169.309 82.88C169.029 82.2133 168.889 81.6067 168.889 81.06V79.92C169.462 79.6 170.069 79.3333 170.709 79.12C171.362 78.9067 172.009 78.7467 172.649 78.64C173.302 78.52 173.902 78.46 174.449 78.46C175.009 78.46 175.609 78.52 176.249 78.64C176.889 78.7467 177.529 78.9067 178.169 79.12C178.822 79.3333 179.436 79.6 180.009 79.92V81.06C180.009 81.6067 179.869 82.2133 179.589 82.88C179.309 83.5333 178.902 84.1933 178.369 84.86C177.849 85.5133 177.222 86.12 176.489 86.68C175.756 87.2267 174.936 87.6667 174.029 88C173.122 88.3333 172.149 88.5 171.109 88.5H167.709ZM167.709 88.5C167.629 88.5 167.569 88.4733 167.529 88.42C167.476 88.3667 167.436 88.2933 167.409 88.2C167.369 88.0933 167.342 87.9667 167.329 87.82C167.316 87.6733 167.309 87.5133 167.309 87.34C167.309 87.1 167.322 86.9 167.349 86.74C167.376 86.5667 167.422 86.4333 167.489 86.34C167.542 86.2333 167.616 86.18 167.709 86.18V88.5ZM181.069 88.5V86.18C181.149 86.18 181.216 86.2067 181.269 86.26C181.322 86.3133 181.362 86.3933 181.389 86.5C181.416 86.6067 181.436 86.7333 181.449 86.88C181.462 87.0133 181.469 87.1667 181.469 87.34C181.469 87.5133 181.462 87.6733 181.449 87.82C181.436 87.9667 181.416 88.0933 181.389 88.2C181.362 88.2933 181.322 88.3667 181.269 88.42C181.216 88.4733 181.149 88.5 181.069 88.5ZM181.068 88.5V86.18H185.808L184.248 87.48V78.46H186.908V88.5H181.068ZM181.068 88.5C180.988 88.5 180.928 88.4733 180.888 88.42C180.835 88.3667 180.795 88.2933 180.768 88.2C180.728 88.0933 180.702 87.9667 180.688 87.82C180.675 87.6733 180.668 87.5133 180.668 87.34C180.668 87.1 180.682 86.9 180.708 86.74C180.735 86.5667 180.782 86.4333 180.848 86.34C180.902 86.2333 180.975 86.18 181.068 86.18V88.5ZM182.488 76.62V74.34H185.068V76.62H182.488ZM186.128 76.62V74.34H188.708V76.62H186.128ZM202.049 88.5V78.46H204.729V87.48L203.169 86.18H207.229V88.5H202.049ZM197.849 82.78V80.44H202.049V82.78H197.849ZM193.489 93.46C193.315 93.46 193.129 93.4533 192.929 93.44C192.729 93.4267 192.522 93.4067 192.309 93.38L192.409 91.1C192.622 91.1133 192.822 91.1267 193.009 91.14C193.209 91.1533 193.355 91.16 193.449 91.16C193.969 91.16 194.382 90.9533 194.689 90.54C195.009 90.1267 195.169 89.5467 195.169 88.8V78.46H197.849V88.8C197.849 89.7067 197.662 90.5133 197.289 91.22C196.929 91.9267 196.422 92.4733 195.769 92.86C195.115 93.26 194.355 93.46 193.489 93.46ZM207.229 88.5V86.18C207.295 86.18 207.355 86.2067 207.409 86.26C207.462 86.3133 207.502 86.3933 207.529 86.5C207.555 86.6067 207.575 86.7333 207.589 86.88C207.615 87.0133 207.629 87.1667 207.629 87.34C207.629 87.5133 207.615 87.6733 207.589 87.82C207.575 87.9667 207.555 88.0933 207.529 88.2C207.502 88.2933 207.462 88.3667 207.409 88.42C207.355 88.4733 207.295 88.5 207.229 88.5ZM200.289 76.62V74.34H202.869V76.62H200.289ZM203.929 76.62V74.34H206.509V76.62H203.929ZM212.001 88.5V86.18H214.101V88.5H212.001ZM207.221 88.5C207.141 88.5 207.081 88.4733 207.041 88.42C206.987 88.3667 206.947 88.2933 206.921 88.2C206.881 88.0933 206.854 87.9667 206.841 87.82C206.827 87.6733 206.821 87.5133 206.821 87.34C206.821 87.1 206.834 86.9 206.861 86.74C206.887 86.5667 206.934 86.4333 207.001 86.34C207.054 86.2333 207.127 86.18 207.221 86.18V88.5ZM207.221 88.5V86.18H210.881L209.321 87.48V78.46H212.001V88.5H207.221ZM214.101 88.5V86.18C214.181 86.18 214.247 86.2067 214.301 86.26C214.354 86.3133 214.394 86.3933 214.421 86.5C214.447 86.6067 214.467 86.7333 214.481 86.88C214.494 87.0133 214.501 87.1667 214.501 87.34C214.501 87.5133 214.494 87.6733 214.481 87.82C214.467 87.9667 214.447 88.0933 214.421 88.2C214.394 88.2933 214.354 88.3667 214.301 88.42C214.247 88.4733 214.181 88.5 214.101 88.5ZM209.321 76.62V74.34H212.001V76.62H209.321ZM225.856 88.5C225.309 88.5 224.762 88.4 224.216 88.2C223.682 87.9867 223.189 87.6733 222.736 87.26L224.376 85.56C224.642 85.7733 224.889 85.9333 225.116 86.04C225.356 86.1333 225.602 86.18 225.856 86.18H229.596L228.216 87.44V83C228.216 82.7867 228.189 82.4667 228.136 82.04C228.096 81.6 228.029 81.1067 227.936 80.56C227.856 80 227.756 79.4333 227.636 78.86L230.276 78.46C230.369 78.94 230.456 79.48 230.536 80.08C230.629 80.6667 230.709 81.2267 230.776 81.76C230.842 82.28 230.876 82.6933 230.876 83V88.5H225.856ZM214.096 88.5V86.18H217.016L216.416 86.8V80.5H219.096V88.5H214.096ZM219.096 88.5V86.18H220.716C221.142 86.18 221.469 86.12 221.696 86C221.922 85.8667 222.076 85.6067 222.156 85.22C222.249 84.82 222.296 84.2267 222.296 83.44V79.5H224.976V83.44C224.976 84.6267 224.822 85.5933 224.516 86.34C224.222 87.0867 223.762 87.6333 223.136 87.98C222.509 88.3267 221.702 88.5 220.716 88.5H219.096ZM214.096 88.5C214.016 88.5 213.956 88.4733 213.916 88.42C213.862 88.3667 213.822 88.2933 213.796 88.2C213.756 88.0933 213.729 87.9667 213.716 87.82C213.702 87.6733 213.696 87.5133 213.696 87.34C213.696 87.1 213.709 86.9 213.736 86.74C213.762 86.5667 213.809 86.4333 213.876 86.34C213.929 86.2333 214.002 86.18 214.096 86.18V88.5Z" fill="#1E1E1E"/>
</g>
<defs>
<filter id="filter0_d_70_532" x="0" y="0" width="352" height="170" filterUnits="userSpaceOnUse" color-interpolation-filters="sRGB">
<feFlood flood-opacity="0" result="BackgroundImageFix"/>
<feColorMatrix in="SourceAlpha" type="matrix" values="0 0 0 0 0 0 0 0 0 0 0 0 0 0 0 0 0 0 127 0" result="hardAlpha"/>
<feOffset dy="4"/>
<feGaussianBlur stdDeviation="5"/>
<feComposite in2="hardAlpha" operator="out"/>
<feColorMatrix type="matrix" values="0 0 0 0 0 0 0 0 0 0 0 0 0 0 0 0 0 0 0.08 0"/>
<feBlend mode="normal" in2="BackgroundImageFix" result="effect1_dropShadow_70_532"/>
<feBlend mode="normal" in="SourceGraphic" in2="effect1_dropShadow_70_532" result="shape"/>
</filter>
</defs>
</svg>
