<svg width="352" height="170" viewBox="0 0 352 170" fill="none" xmlns="http://www.w3.org/2000/svg">
<g filter="url(#filter0_d_70_566)">
<rect x="10" y="6" width="332" height="150" rx="8" fill="#FBFBFB" shape-rendering="crispEdges"/>
<path d="M131.473 93.46C130.313 93.46 129.273 93.2467 128.353 92.82C127.446 92.4067 126.733 91.8267 126.213 91.08C125.693 90.3333 125.433 89.4867 125.433 88.54C125.433 88.2733 125.453 87.92 125.493 87.48C125.533 87.04 125.586 86.5467 125.653 86C125.733 85.4533 125.813 84.9 125.893 84.34C125.986 83.7667 126.073 83.2133 126.153 82.68L128.793 83.04C128.646 83.9333 128.519 84.7533 128.413 85.5C128.319 86.2333 128.246 86.86 128.193 87.38C128.139 87.9 128.113 88.28 128.113 88.52C128.113 89.0533 128.246 89.5133 128.513 89.9C128.779 90.2867 129.159 90.5867 129.653 90.8C130.159 91.0267 130.766 91.14 131.473 91.14C132.206 91.14 132.799 91.0333 133.253 90.82C133.706 90.6067 134.033 90.3133 134.233 89.94C134.446 89.5667 134.553 89.1467 134.553 88.68V78.46H137.233V88.68C137.233 89.64 136.979 90.48 136.473 91.2C135.979 91.92 135.299 92.4733 134.433 92.86C133.566 93.26 132.579 93.46 131.473 93.46ZM130.013 77.74V75.46H132.693V77.74H130.013ZM140.417 88.5V74.36H143.077V88.5H140.417ZM139.617 72.92L138.557 72.12L139.617 70.54H141.157C141.344 70.6867 141.564 70.8 141.817 70.88C142.071 70.96 142.331 71 142.597 71C142.864 71 143.117 70.96 143.357 70.88C143.611 70.8 143.824 70.6867 143.997 70.54L144.837 71.14C144.677 71.4067 144.471 71.66 144.217 71.9C143.977 72.1267 143.691 72.3133 143.357 72.46C143.024 72.5933 142.637 72.66 142.197 72.66C141.877 72.66 141.571 72.62 141.277 72.54C140.984 72.4467 140.717 72.3133 140.477 72.14L139.617 72.92ZM149.527 88.5V86.18H152.107V88.5H149.527ZM145.647 93.46C145.473 93.46 145.287 93.4533 145.087 93.44C144.887 93.4267 144.68 93.4067 144.467 93.38L144.567 91.1C144.78 91.1133 144.98 91.1267 145.167 91.14C145.367 91.1533 145.513 91.16 145.607 91.16C146.127 91.16 146.54 90.9533 146.847 90.54C147.167 90.1267 147.327 89.5467 147.327 88.8V78.46H150.007V88.8C150.007 89.7067 149.82 90.5133 149.447 91.22C149.087 91.9267 148.58 92.4733 147.927 92.86C147.273 93.26 146.513 93.46 145.647 93.46ZM152.107 88.5V86.18C152.187 86.18 152.247 86.2067 152.287 86.26C152.34 86.3133 152.38 86.3933 152.407 86.5C152.447 86.6067 152.473 86.7333 152.487 86.88C152.5 87.0133 152.507 87.1667 152.507 87.34C152.507 87.5133 152.5 87.6733 152.487 87.82C152.473 87.9667 152.447 88.0933 152.407 88.2C152.38 88.2933 152.34 88.3667 152.287 88.42C152.247 88.4733 152.187 88.5 152.107 88.5ZM152.113 88.5V86.18H161.453L160.633 86.88V80.2L161.313 80.78H158.793C158.207 80.78 157.747 80.8533 157.413 81C157.08 81.1467 156.847 81.42 156.713 81.82C156.58 82.2067 156.513 82.76 156.513 83.48C156.513 84.2667 156.58 84.8533 156.713 85.24C156.847 85.6133 157.08 85.8667 157.413 86C157.747 86.12 158.207 86.18 158.793 86.18V88.26C157.66 88.26 156.727 88.1 155.993 87.78C155.26 87.46 154.713 86.9533 154.353 86.26C154.007 85.5533 153.833 84.6267 153.833 83.48C153.833 82.3867 154.007 81.4667 154.353 80.72C154.713 79.9733 155.26 79.4133 155.993 79.04C156.727 78.6533 157.66 78.46 158.793 78.46H163.313V88.5H152.113ZM152.113 88.5C152.033 88.5 151.973 88.4733 151.933 88.42C151.88 88.3667 151.84 88.2933 151.813 88.2C151.773 88.0933 151.747 87.9667 151.733 87.82C151.72 87.6733 151.713 87.5133 151.713 87.34C151.713 87.1 151.727 86.9 151.753 86.74C151.78 86.5667 151.827 86.4333 151.893 86.34C151.947 86.2333 152.02 86.18 152.113 86.18V88.5ZM155.973 76.62V74.34H158.553V76.62H155.973ZM159.613 76.62V74.34H162.193V76.62H159.613ZM183.826 88.5V86.18H185.946V88.5H183.826ZM169.466 88.5V86.18H183.426L181.166 88.14V83.94C181.166 83.18 181.066 82.5733 180.866 82.12C180.666 81.6533 180.373 81.3133 179.986 81.1C179.613 80.8867 179.16 80.78 178.626 80.78C178.053 80.78 177.513 80.8933 177.006 81.12C176.5 81.3467 176.02 81.64 175.566 82C175.126 82.36 174.72 82.7467 174.346 83.16C173.973 83.5733 173.64 83.9733 173.346 84.36C173.053 84.7333 172.8 85.0533 172.586 85.32L171.986 83.38C172.533 82.6867 173.04 82.04 173.506 81.44C173.986 80.84 174.486 80.32 175.006 79.88C175.526 79.4267 176.1 79.08 176.726 78.84C177.353 78.5867 178.08 78.46 178.906 78.46C179.8 78.46 180.553 78.6133 181.166 78.92C181.793 79.2133 182.306 79.62 182.706 80.14C183.106 80.66 183.393 81.2467 183.566 81.9C183.74 82.5533 183.826 83.2333 183.826 83.94V88.5H169.466ZM170.846 86.18V74.36H173.506V86.18H170.846ZM185.946 88.5V86.18C186.026 86.18 186.093 86.2067 186.146 86.26C186.2 86.3133 186.24 86.3933 186.266 86.5C186.293 86.6067 186.313 86.7333 186.326 86.88C186.34 87.0133 186.346 87.1667 186.346 87.34C186.346 87.5133 186.34 87.6733 186.326 87.82C186.313 87.9667 186.293 88.0933 186.266 88.2C186.24 88.2933 186.2 88.3667 186.146 88.42C186.093 88.4733 186.026 88.5 185.946 88.5ZM176.626 76.62V74.34H179.306V76.62H176.626ZM191.781 88.5V86.18H194.281V88.5H191.781ZM194.281 88.5V86.18C194.348 86.18 194.408 86.2067 194.461 86.26C194.515 86.3133 194.555 86.3933 194.581 86.5C194.608 86.6067 194.628 86.7333 194.641 86.88C194.668 87.0133 194.681 87.1667 194.681 87.34C194.681 87.5133 194.668 87.6733 194.641 87.82C194.628 87.9667 194.608 88.0933 194.581 88.2C194.555 88.2933 194.515 88.3667 194.461 88.42C194.421 88.4733 194.361 88.5 194.281 88.5ZM185.941 88.5C185.861 88.5 185.801 88.4733 185.761 88.42C185.708 88.3667 185.668 88.2933 185.641 88.2C185.601 88.0933 185.575 87.9667 185.561 87.82C185.548 87.6733 185.541 87.5133 185.541 87.34C185.541 87.1 185.555 86.9 185.581 86.74C185.608 86.5667 185.655 86.4333 185.721 86.34C185.775 86.2333 185.848 86.18 185.941 86.18V88.5ZM185.941 88.5V86.18H190.681L189.121 87.48V78.46H191.781V88.5H185.941ZM186.661 92.76V90.48H189.241V92.76H186.661ZM190.301 92.76V90.48H192.881V92.76H190.301ZM205.481 88.5V86.18H207.581V88.5H205.481ZM194.281 88.5C194.201 88.5 194.141 88.4733 194.101 88.42C194.048 88.3667 194.008 88.2933 193.981 88.2C193.941 88.0933 193.915 87.9667 193.901 87.82C193.888 87.6733 193.881 87.5133 193.881 87.34C193.881 87.1 193.895 86.9 193.921 86.74C193.948 86.5667 193.995 86.4333 194.061 86.34C194.115 86.2333 194.188 86.18 194.281 86.18V88.5ZM194.281 88.5V86.18H203.621L202.801 86.88V80.2L203.481 80.78H200.961C200.375 80.78 199.915 80.8533 199.581 81C199.248 81.1467 199.015 81.42 198.881 81.82C198.748 82.2067 198.681 82.76 198.681 83.48C198.681 84.2667 198.748 84.8533 198.881 85.24C199.015 85.6133 199.248 85.8667 199.581 86C199.915 86.12 200.375 86.18 200.961 86.18V88.26C199.828 88.26 198.895 88.1 198.161 87.78C197.428 87.46 196.881 86.9533 196.521 86.26C196.175 85.5533 196.001 84.6267 196.001 83.48C196.001 82.3867 196.175 81.4667 196.521 80.72C196.881 79.9733 197.428 79.4133 198.161 79.04C198.895 78.6533 199.828 78.46 200.961 78.46H205.481V88.5H194.281ZM207.581 88.5V86.18C207.661 86.18 207.728 86.2067 207.781 86.26C207.835 86.3133 207.875 86.3933 207.901 86.5C207.928 86.6067 207.948 86.7333 207.961 86.88C207.975 87.0133 207.981 87.1667 207.981 87.34C207.981 87.5133 207.975 87.6733 207.961 87.82C207.948 87.9667 207.928 88.0933 207.901 88.2C207.875 88.2933 207.835 88.3667 207.781 88.42C207.728 88.4733 207.661 88.5 207.581 88.5ZM199.901 76.62V74.34H202.581V76.62H199.901ZM217.942 88.5V86.18H220.062V88.5H217.942ZM207.582 88.5C207.502 88.5 207.442 88.4733 207.402 88.42C207.349 88.3667 207.309 88.2933 207.282 88.2C207.242 88.0933 207.215 87.9667 207.202 87.82C207.189 87.6733 207.182 87.5133 207.182 87.34C207.182 87.1 207.195 86.9 207.222 86.74C207.249 86.5667 207.295 86.4333 207.362 86.34C207.415 86.2333 207.489 86.18 207.582 86.18V88.5ZM207.582 88.5V86.18H216.182L215.282 86.92V83.22C215.282 82.42 215.029 81.8133 214.522 81.4C214.029 80.9867 213.242 80.78 212.162 80.78C211.855 80.78 211.435 80.8067 210.902 80.86C210.369 80.9 209.789 80.9667 209.162 81.06L208.902 78.94C209.475 78.8067 210.055 78.6933 210.642 78.6C211.242 78.5067 211.829 78.46 212.402 78.46C213.495 78.46 214.455 78.6533 215.282 79.04C216.109 79.4133 216.755 79.9533 217.222 80.66C217.702 81.3667 217.942 82.22 217.942 83.22V88.5H207.582ZM220.062 88.5V86.18C220.129 86.18 220.189 86.2067 220.242 86.26C220.295 86.3133 220.335 86.3933 220.362 86.5C220.389 86.6067 220.409 86.7333 220.422 86.88C220.449 87.0133 220.462 87.1667 220.462 87.34C220.462 87.5133 220.449 87.6733 220.422 87.82C220.409 87.9667 220.389 88.0933 220.362 88.2C220.335 88.2933 220.295 88.3667 220.242 88.42C220.189 88.4733 220.129 88.5 220.062 88.5ZM220.062 88.5V86.18H224.803L223.243 87.48V78.46H225.903V88.5H220.062ZM220.062 88.5C219.982 88.5 219.922 88.4733 219.882 88.42C219.829 88.3667 219.789 88.2933 219.762 88.2C219.722 88.0933 219.696 87.9667 219.682 87.82C219.669 87.6733 219.662 87.5133 219.662 87.34C219.662 87.1 219.676 86.9 219.702 86.74C219.729 86.5667 219.776 86.4333 219.842 86.34C219.896 86.2333 219.969 86.18 220.062 86.18V88.5ZM221.483 76.62V74.34H224.063V76.62H221.483ZM225.123 76.62V74.34H227.703V76.62H225.123Z" fill="#1E1E1E"/>
</g>
<defs>
<filter id="filter0_d_70_566" x="0" y="0" width="352" height="170" filterUnits="userSpaceOnUse" color-interpolation-filters="sRGB">
<feFlood flood-opacity="0" result="BackgroundImageFix"/>
<feColorMatrix in="SourceAlpha" type="matrix" values="0 0 0 0 0 0 0 0 0 0 0 0 0 0 0 0 0 0 127 0" result="hardAlpha"/>
<feOffset dy="4"/>
<feGaussianBlur stdDeviation="5"/>
<feComposite in2="hardAlpha" operator="out"/>
<feColorMatrix type="matrix" values="0 0 0 0 0 0 0 0 0 0 0 0 0 0 0 0 0 0 0.08 0"/>
<feBlend mode="normal" in2="BackgroundImageFix" result="effect1_dropShadow_70_566"/>
<feBlend mode="normal" in="SourceGraphic" in2="effect1_dropShadow_70_566" result="shape"/>
</filter>
</defs>
</svg>
