<svg width="352" height="170" viewBox="0 0 352 170" fill="none" xmlns="http://www.w3.org/2000/svg">
<g filter="url(#filter0_d_70_530)">
<rect x="10" y="6" width="332" height="150" rx="8" fill="#FBFBFB" shape-rendering="crispEdges"/>
<path d="M151.522 93.46C150.362 93.46 149.322 93.2467 148.402 92.82C147.495 92.4067 146.782 91.8267 146.262 91.08C145.742 90.3333 145.482 89.4867 145.482 88.54C145.482 88.2733 145.502 87.92 145.542 87.48C145.582 87.04 145.635 86.5467 145.702 86C145.782 85.4533 145.862 84.9 145.942 84.34C146.035 83.7667 146.122 83.2133 146.202 82.68L148.842 83.04C148.695 83.9333 148.568 84.7533 148.462 85.5C148.368 86.2333 148.295 86.86 148.242 87.38C148.188 87.9 148.162 88.28 148.162 88.52C148.162 89.0533 148.295 89.5133 148.562 89.9C148.828 90.2867 149.208 90.5867 149.702 90.8C150.208 91.0267 150.815 91.14 151.522 91.14C152.255 91.14 152.848 91.0333 153.302 90.82C153.755 90.6067 154.082 90.3133 154.282 89.94C154.495 89.5667 154.602 89.1467 154.602 88.68V80.5H157.282V88.68C157.282 89.64 157.028 90.48 156.522 91.2C156.028 91.92 155.348 92.4733 154.482 92.86C153.615 93.26 152.628 93.46 151.522 93.46ZM157.242 88.5L157.282 86.18H158.902C159.328 86.18 159.655 86.12 159.882 86C160.108 85.8667 160.268 85.6067 160.362 85.22C160.455 84.82 160.502 84.2267 160.502 83.44V79.5H163.182V83.44C163.182 84.6267 163.028 85.5933 162.722 86.34C162.415 87.0867 161.948 87.6333 161.322 87.98C160.695 88.3267 159.888 88.5 158.902 88.5H157.242ZM164.042 88.5C163.495 88.5 162.955 88.4 162.422 88.2C161.888 87.9867 161.388 87.6733 160.922 87.26L162.562 85.56C162.815 85.7733 163.062 85.9333 163.302 86.04C163.555 86.1333 163.802 86.18 164.042 86.18H167.802L166.402 87.44V83C166.402 82.7867 166.375 82.4667 166.322 82.04C166.268 81.6 166.202 81.1067 166.122 80.56C166.042 80 165.948 79.4333 165.842 78.86L168.462 78.46C168.555 78.94 168.648 79.48 168.742 80.08C168.835 80.6667 168.908 81.2267 168.962 81.76C169.028 82.28 169.062 82.6933 169.062 83V88.5H164.042ZM171.106 93.46C170.932 93.46 170.746 93.4533 170.546 93.44C170.346 93.4267 170.139 93.4067 169.926 93.38L170.026 91.1C170.239 91.1133 170.439 91.1267 170.626 91.14C170.826 91.1533 170.972 91.16 171.066 91.16C171.586 91.16 171.999 90.9533 172.306 90.54C172.626 90.1267 172.786 89.5467 172.786 88.8V78.46H175.466V88.8C175.466 89.7067 175.279 90.5133 174.906 91.22C174.546 91.9267 174.039 92.4733 173.386 92.86C172.732 93.26 171.972 93.46 171.106 93.46ZM178.611 88.5V74.36H181.271V88.5H178.611ZM192 88.5V86.18H194.1V88.5H192ZM183.88 88.5V86.18H191.14L189.32 87.76V84.4C189.32 83.4533 189.22 82.72 189.02 82.2C188.833 81.68 188.513 81.3133 188.06 81.1C187.62 80.8867 187.013 80.78 186.24 80.78H184.62V78.46H186.24C187.467 78.46 188.507 78.66 189.36 79.06C190.227 79.46 190.88 80.1 191.32 80.98C191.773 81.8467 192 82.9867 192 84.4V88.5H183.88ZM194.1 88.5V86.18C194.18 86.18 194.247 86.2067 194.3 86.26C194.353 86.3133 194.393 86.3933 194.42 86.5C194.447 86.6067 194.467 86.7333 194.48 86.88C194.493 87.0133 194.5 87.1667 194.5 87.34C194.5 87.5133 194.493 87.6733 194.48 87.82C194.467 87.9667 194.447 88.0933 194.42 88.2C194.393 88.2933 194.353 88.3667 194.3 88.42C194.247 88.4733 194.18 88.5 194.1 88.5ZM194.096 88.5V86.18H204.476L203.256 87.22V83.54C203.256 82.82 203.176 82.26 203.016 81.86C202.856 81.4467 202.576 81.16 202.176 81C201.789 80.8267 201.249 80.74 200.556 80.74C200.009 80.74 199.469 80.78 198.936 80.86C198.416 80.9267 198.009 81.02 197.716 81.14L199.376 79.58C199.296 79.8867 199.216 80.2733 199.136 80.74C199.069 81.2067 199.009 81.7067 198.956 82.24C198.902 82.76 198.876 83.2733 198.876 83.78C198.876 84.2467 198.896 84.7333 198.936 85.24C198.989 85.7467 199.042 86.1933 199.096 86.58C199.162 86.9667 199.216 87.2333 199.256 87.38L196.716 88.08C196.662 87.8933 196.596 87.5867 196.516 87.16C196.436 86.7333 196.362 86.2267 196.296 85.64C196.242 85.0533 196.216 84.4333 196.216 83.78C196.216 83.1133 196.249 82.4733 196.316 81.86C196.382 81.2333 196.456 80.6733 196.536 80.18C196.629 79.6733 196.716 79.2667 196.796 78.96C197.116 78.84 197.616 78.72 198.296 78.6C198.976 78.48 199.729 78.42 200.556 78.42C201.756 78.42 202.749 78.5867 203.536 78.92C204.336 79.2533 204.929 79.7933 205.316 80.54C205.716 81.2867 205.916 82.2933 205.916 83.56V88.5H194.096ZM194.096 88.5C194.016 88.5 193.956 88.4733 193.916 88.42C193.862 88.3667 193.822 88.2933 193.796 88.2C193.756 88.0933 193.729 87.9667 193.716 87.82C193.702 87.6733 193.696 87.5133 193.696 87.34C193.696 87.1 193.709 86.9 193.736 86.74C193.762 86.5667 193.809 86.4333 193.876 86.34C193.929 86.2333 194.002 86.18 194.096 86.18V88.5Z" fill="#1E1E1E"/>
</g>
<defs>
<filter id="filter0_d_70_530" x="0" y="0" width="352" height="170" filterUnits="userSpaceOnUse" color-interpolation-filters="sRGB">
<feFlood flood-opacity="0" result="BackgroundImageFix"/>
<feColorMatrix in="SourceAlpha" type="matrix" values="0 0 0 0 0 0 0 0 0 0 0 0 0 0 0 0 0 0 127 0" result="hardAlpha"/>
<feOffset dy="4"/>
<feGaussianBlur stdDeviation="5"/>
<feComposite in2="hardAlpha" operator="out"/>
<feColorMatrix type="matrix" values="0 0 0 0 0 0 0 0 0 0 0 0 0 0 0 0 0 0 0.08 0"/>
<feBlend mode="normal" in2="BackgroundImageFix" result="effect1_dropShadow_70_530"/>
<feBlend mode="normal" in="SourceGraphic" in2="effect1_dropShadow_70_530" result="shape"/>
</filter>
</defs>
</svg>
