<svg width="352" height="170" viewBox="0 0 352 170" fill="none" xmlns="http://www.w3.org/2000/svg">
<g filter="url(#filter0_d_70_534)">
<rect x="10" y="6" width="332" height="150" rx="8" fill="#FBFBFB" shape-rendering="crispEdges"/>
<path d="M113.117 88.5C111.984 88.5 111.051 88.32 110.317 87.96C109.584 87.6 109.037 87.0533 108.677 86.32C108.331 85.5867 108.157 84.66 108.157 83.54C108.157 82.42 108.331 81.4867 108.677 80.74C109.037 79.98 109.584 79.4133 110.317 79.04C111.051 78.6533 111.984 78.46 113.117 78.46H117.637V87.24H114.957V80.2L115.617 80.78H113.117C112.571 80.78 112.131 80.8467 111.797 80.98C111.464 81.1 111.217 81.36 111.057 81.76C110.911 82.1467 110.837 82.74 110.837 83.54C110.837 84.3 110.904 84.8733 111.037 85.26C111.184 85.6333 111.424 85.88 111.757 86C112.091 86.12 112.544 86.18 113.117 86.18H119.737V88.5H113.117ZM119.737 88.5V86.18C119.817 86.18 119.877 86.2067 119.917 86.26C119.971 86.3133 120.011 86.3933 120.037 86.5C120.077 86.6067 120.104 86.7333 120.117 86.88C120.131 87.0133 120.137 87.1667 120.137 87.34C120.137 87.5133 120.131 87.6733 120.117 87.82C120.104 87.9667 120.077 88.0933 120.037 88.2C120.011 88.2933 119.971 88.3667 119.917 88.42C119.877 88.4733 119.817 88.5 119.737 88.5ZM110.137 76.62V74.34H112.717V76.62H110.137ZM113.777 76.62V74.34H116.357V76.62H113.777ZM125.58 88.5V86.18H128.08V88.5H125.58ZM128.08 88.5V86.18C128.147 86.18 128.207 86.2067 128.26 86.26C128.314 86.3133 128.354 86.3933 128.38 86.5C128.407 86.6067 128.427 86.7333 128.44 86.88C128.467 87.0133 128.48 87.1667 128.48 87.34C128.48 87.5133 128.467 87.6733 128.44 87.82C128.427 87.9667 128.407 88.0933 128.38 88.2C128.354 88.2933 128.314 88.3667 128.26 88.42C128.22 88.4733 128.16 88.5 128.08 88.5ZM119.74 88.5C119.66 88.5 119.6 88.4733 119.56 88.42C119.507 88.3667 119.467 88.2933 119.44 88.2C119.4 88.0933 119.374 87.9667 119.36 87.82C119.347 87.6733 119.34 87.5133 119.34 87.34C119.34 87.1 119.354 86.9 119.38 86.74C119.407 86.5667 119.454 86.4333 119.52 86.34C119.574 86.2333 119.647 86.18 119.74 86.18V88.5ZM119.74 88.5V86.18H124.48L122.92 87.48V78.46H125.58V88.5H119.74ZM120.46 92.76V90.48H123.04V92.76H120.46ZM124.1 92.76V90.48H126.68V92.76H124.1ZM128.08 88.5V86.18H143.2L140.94 88.14V83.94C140.94 83.18 140.84 82.5733 140.64 82.12C140.44 81.6533 140.147 81.3133 139.76 81.1C139.387 80.8867 138.933 80.78 138.4 80.78C137.827 80.78 137.28 80.8933 136.76 81.12C136.253 81.3467 135.78 81.64 135.34 82C134.9 82.36 134.493 82.7467 134.12 83.16C133.747 83.5733 133.413 83.9733 133.12 84.36C132.827 84.7333 132.573 85.0533 132.36 85.32L131.76 83.38C132.28 82.7533 132.747 82.18 133.16 81.66C133.573 81.14 133.967 80.68 134.34 80.28C134.727 79.88 135.127 79.5467 135.54 79.28C135.967 79.0133 136.427 78.8133 136.92 78.68C137.427 78.5333 138.013 78.46 138.68 78.46C139.573 78.46 140.333 78.6133 140.96 78.92C141.587 79.2133 142.093 79.62 142.48 80.14C142.88 80.66 143.167 81.2467 143.34 81.9C143.527 82.5533 143.62 83.2333 143.62 83.94V88.5H128.08ZM130.6 86.18V78.46H133.28V86.18H130.6ZM128.08 88.5C128 88.5 127.94 88.4733 127.9 88.42C127.847 88.3667 127.807 88.2933 127.78 88.2C127.74 88.0933 127.713 87.9667 127.7 87.82C127.687 87.6733 127.68 87.5133 127.68 87.34C127.68 87.1 127.693 86.9 127.72 86.74C127.747 86.5667 127.793 86.4333 127.86 86.34C127.913 86.2333 127.987 86.18 128.08 86.18V88.5ZM155.274 88.5V86.18H157.374V88.5H155.274ZM149.874 93.46C149.381 93.46 148.861 93.42 148.314 93.34C147.781 93.2733 147.207 93.18 146.594 93.06L146.994 90.92C147.661 91 148.227 91.06 148.694 91.1C149.161 91.14 149.554 91.16 149.874 91.16C150.834 91.16 151.527 90.9867 151.954 90.64C152.381 90.2933 152.594 89.7733 152.594 89.08V80.3L153.254 80.78H150.754C150.207 80.78 149.767 80.8467 149.434 80.98C149.101 81.1 148.854 81.36 148.694 81.76C148.547 82.1467 148.474 82.74 148.474 83.54C148.474 84.3 148.541 84.8733 148.674 85.26C148.821 85.6333 149.061 85.88 149.394 86C149.727 86.12 150.181 86.18 150.754 86.18H152.594V88.5H150.754C149.621 88.5 148.687 88.32 147.954 87.96C147.221 87.6 146.674 87.0533 146.314 86.32C145.967 85.5867 145.794 84.66 145.794 83.54C145.794 82.42 145.967 81.4867 146.314 80.74C146.674 79.98 147.221 79.4133 147.954 79.04C148.687 78.6533 149.621 78.46 150.754 78.46H155.274V89.08C155.274 89.9867 155.047 90.7667 154.594 91.42C154.154 92.0867 153.527 92.5933 152.714 92.94C151.914 93.2867 150.967 93.46 149.874 93.46ZM157.374 88.5V86.18C157.454 86.18 157.514 86.2067 157.554 86.26C157.607 86.3133 157.647 86.3933 157.674 86.5C157.714 86.6067 157.741 86.7333 157.754 86.88C157.767 87.0133 157.774 87.1667 157.774 87.34C157.774 87.5133 157.767 87.6733 157.754 87.82C157.741 87.9667 157.714 88.0933 157.674 88.2C157.647 88.2933 157.607 88.3667 157.554 88.42C157.514 88.4733 157.454 88.5 157.374 88.5ZM172.917 88.5V86.18H175.017V88.5H172.917ZM157.377 88.5C157.297 88.5 157.237 88.4733 157.197 88.42C157.144 88.3667 157.104 88.2933 157.077 88.2C157.037 88.0933 157.01 87.9667 156.997 87.82C156.984 87.6733 156.977 87.5133 156.977 87.34C156.977 87.1 156.99 86.9 157.017 86.74C157.044 86.5667 157.09 86.4333 157.157 86.34C157.21 86.2333 157.284 86.18 157.377 86.18V88.5ZM157.377 88.5V86.18H172.497L170.237 88.14V83.94C170.237 83.18 170.137 82.5733 169.937 82.12C169.737 81.6533 169.444 81.3133 169.057 81.1C168.684 80.8867 168.23 80.78 167.697 80.78C167.124 80.78 166.577 80.8933 166.057 81.12C165.55 81.3467 165.077 81.64 164.637 82C164.197 82.36 163.79 82.7467 163.417 83.16C163.044 83.5733 162.71 83.9733 162.417 84.36C162.124 84.7333 161.87 85.0533 161.657 85.32L161.057 83.38C161.577 82.7533 162.044 82.18 162.457 81.66C162.87 81.14 163.264 80.68 163.637 80.28C164.024 79.88 164.424 79.5467 164.837 79.28C165.264 79.0133 165.724 78.8133 166.217 78.68C166.724 78.5333 167.31 78.46 167.977 78.46C168.87 78.46 169.63 78.6133 170.257 78.92C170.884 79.2133 171.39 79.62 171.777 80.14C172.177 80.66 172.464 81.2467 172.637 81.9C172.824 82.5533 172.917 83.2333 172.917 83.94V88.5H157.377ZM159.897 86.18V78.46H162.577V86.18H159.897ZM175.017 88.5V86.18C175.097 86.18 175.157 86.2067 175.197 86.26C175.25 86.3133 175.29 86.3933 175.317 86.5C175.357 86.6067 175.384 86.7333 175.397 86.88C175.41 87.0133 175.417 87.1667 175.417 87.34C175.417 87.5133 175.41 87.6733 175.397 87.82C175.384 87.9667 175.357 88.0933 175.317 88.2C175.29 88.2933 175.25 88.3667 175.197 88.42C175.157 88.4733 175.097 88.5 175.017 88.5ZM175.014 88.5V86.18H183.614L182.714 86.92V83.22C182.714 82.42 182.46 81.8133 181.954 81.4C181.46 80.9867 180.674 80.78 179.594 80.78C179.287 80.78 178.867 80.8067 178.334 80.86C177.8 80.9 177.22 80.9667 176.594 81.06L176.334 78.94C176.907 78.8067 177.487 78.6933 178.074 78.6C178.674 78.5067 179.26 78.46 179.834 78.46C180.927 78.46 181.887 78.6533 182.714 79.04C183.54 79.4133 184.187 79.9533 184.654 80.66C185.134 81.3667 185.374 82.22 185.374 83.22V88.5H175.014ZM175.014 88.5C174.934 88.5 174.874 88.4733 174.834 88.42C174.78 88.3667 174.74 88.2933 174.714 88.2C174.674 88.0933 174.647 87.9667 174.634 87.82C174.62 87.6733 174.614 87.5133 174.614 87.34C174.614 87.1 174.627 86.9 174.654 86.74C174.68 86.5667 174.727 86.4333 174.794 86.34C174.847 86.2333 174.92 86.18 175.014 86.18V88.5ZM178.474 76.88V74.6H181.154V76.88H178.474ZM197.772 93.46C196.612 93.46 195.572 93.2467 194.652 92.82C193.745 92.4067 193.032 91.8267 192.512 91.08C191.992 90.3333 191.732 89.4867 191.732 88.54C191.732 88.2733 191.752 87.92 191.792 87.48C191.832 87.04 191.885 86.5467 191.952 86C192.032 85.4533 192.112 84.9 192.192 84.34C192.285 83.7667 192.372 83.2133 192.452 82.68L195.092 83.04C194.945 83.9333 194.818 84.7533 194.712 85.5C194.618 86.2333 194.545 86.86 194.492 87.38C194.438 87.9 194.412 88.28 194.412 88.52C194.412 89.0533 194.545 89.5133 194.812 89.9C195.078 90.2867 195.458 90.5867 195.952 90.8C196.458 91.0267 197.065 91.14 197.772 91.14C198.505 91.14 199.098 91.0333 199.552 90.82C200.005 90.6067 200.332 90.3133 200.532 89.94C200.745 89.5667 200.852 89.1467 200.852 88.68V80.5H203.532V88.68C203.532 89.64 203.278 90.48 202.772 91.2C202.278 91.92 201.598 92.4733 200.732 92.86C199.865 93.26 198.878 93.46 197.772 93.46ZM203.492 88.5L203.532 86.18H205.152C205.578 86.18 205.905 86.12 206.132 86C206.358 85.8667 206.518 85.6067 206.612 85.22C206.705 84.82 206.752 84.2267 206.752 83.44V79.5H209.432V83.44C209.432 84.6267 209.278 85.5933 208.972 86.34C208.665 87.0867 208.198 87.6333 207.572 87.98C206.945 88.3267 206.138 88.5 205.152 88.5H203.492ZM210.292 88.5C209.745 88.5 209.205 88.4 208.672 88.2C208.138 87.9867 207.638 87.6733 207.172 87.26L208.812 85.56C209.065 85.7733 209.312 85.9333 209.552 86.04C209.805 86.1333 210.052 86.18 210.292 86.18H214.052L212.652 87.44V83C212.652 82.7867 212.625 82.4667 212.572 82.04C212.518 81.6 212.452 81.1067 212.372 80.56C212.292 80 212.198 79.4333 212.092 78.86L214.712 78.46C214.805 78.94 214.898 79.48 214.992 80.08C215.085 80.6667 215.158 81.2267 215.212 81.76C215.278 82.28 215.312 82.6933 215.312 83V88.5H210.292ZM221.476 93.46C220.982 93.46 220.462 93.42 219.916 93.34C219.382 93.2733 218.809 93.18 218.196 93.06L218.596 90.92C219.262 91 219.829 91.06 220.296 91.1C220.762 91.14 221.156 91.16 221.476 91.16C222.436 91.16 223.129 90.9867 223.556 90.64C223.982 90.2933 224.196 89.7733 224.196 89.08V80.3L224.856 80.78H222.356C221.809 80.78 221.369 80.8467 221.036 80.98C220.702 81.1 220.456 81.36 220.296 81.76C220.149 82.1467 220.076 82.74 220.076 83.54C220.076 84.3 220.142 84.8733 220.276 85.26C220.422 85.6333 220.662 85.88 220.996 86C221.329 86.12 221.782 86.18 222.356 86.18H224.196V88.5H222.356C221.222 88.5 220.289 88.32 219.556 87.96C218.822 87.6 218.276 87.0533 217.916 86.32C217.569 85.5867 217.396 84.66 217.396 83.54C217.396 82.42 217.569 81.4867 217.916 80.74C218.276 79.98 218.822 79.4133 219.556 79.04C220.289 78.6533 221.222 78.46 222.356 78.46H226.876V89.08C226.876 89.9867 226.649 90.7667 226.196 91.42C225.756 92.0867 225.129 92.5933 224.316 92.94C223.516 93.2867 222.569 93.46 221.476 93.46ZM229.016 93.46C228.843 93.46 228.656 93.4533 228.456 93.44C228.256 93.4267 228.049 93.4067 227.836 93.38L227.936 91.1C228.149 91.1133 228.349 91.1267 228.536 91.14C228.736 91.1533 228.883 91.16 228.976 91.16C229.496 91.16 229.909 90.9533 230.216 90.54C230.536 90.1267 230.696 89.5467 230.696 88.8V78.46H233.376V88.8C233.376 89.7067 233.189 90.5133 232.816 91.22C232.456 91.9267 231.949 92.4733 231.296 92.86C230.643 93.26 229.883 93.46 229.016 93.46ZM235.521 88.5V86.18H242.781L240.961 87.76V84.4C240.961 83.4533 240.861 82.72 240.661 82.2C240.474 81.68 240.154 81.3133 239.701 81.1C239.261 80.8867 238.654 80.78 237.881 80.78H236.261V78.46H237.881C239.107 78.46 240.147 78.66 241.001 79.06C241.867 79.46 242.521 80.1 242.961 80.98C243.414 81.8467 243.641 82.9867 243.641 84.4V88.5H235.521Z" fill="#1E1E1E"/>
</g>
<defs>
<filter id="filter0_d_70_534" x="0" y="0" width="352" height="170" filterUnits="userSpaceOnUse" color-interpolation-filters="sRGB">
<feFlood flood-opacity="0" result="BackgroundImageFix"/>
<feColorMatrix in="SourceAlpha" type="matrix" values="0 0 0 0 0 0 0 0 0 0 0 0 0 0 0 0 0 0 127 0" result="hardAlpha"/>
<feOffset dy="4"/>
<feGaussianBlur stdDeviation="5"/>
<feComposite in2="hardAlpha" operator="out"/>
<feColorMatrix type="matrix" values="0 0 0 0 0 0 0 0 0 0 0 0 0 0 0 0 0 0 0.08 0"/>
<feBlend mode="normal" in2="BackgroundImageFix" result="effect1_dropShadow_70_534"/>
<feBlend mode="normal" in="SourceGraphic" in2="effect1_dropShadow_70_534" result="shape"/>
</filter>
</defs>
</svg>
