<svg width="22" height="22" viewBox="0 0 22 22" fill="none" xmlns="http://www.w3.org/2000/svg">
<path d="M9.16637 21.083C9.16637 21.3261 9.06979 21.5593 8.89789 21.7312C8.72599 21.9031 8.49284 21.9996 8.24973 21.9996H1.83327C1.34706 21.9996 0.880759 21.8065 0.536953 21.4627C0.193148 21.1189 0 20.6526 0 20.1664V1.83364C0 1.34743 0.193148 0.881125 0.536953 0.537319C0.880759 0.193514 1.34706 0.000366211 1.83327 0.000366211H8.24973C8.49284 0.000366211 8.72599 0.0969403 8.89789 0.268843C9.06979 0.440746 9.16637 0.673896 9.16637 0.917003C9.16637 1.16011 9.06979 1.39326 8.89789 1.56516C8.72599 1.73707 8.49284 1.83364 8.24973 1.83364H1.83327V20.1664H8.24973C8.49284 20.1664 8.72599 20.2629 8.89789 20.4348C9.06979 20.6068 9.16637 20.8399 9.16637 21.083ZM21.7312 10.3515L17.148 5.7683C16.976 5.5963 16.7427 5.49968 16.4995 5.49968C16.2562 5.49968 16.0229 5.5963 15.8509 5.7683C15.6789 5.9403 15.5823 6.17358 15.5823 6.41682C15.5823 6.66007 15.6789 6.89335 15.8509 7.06534L18.8701 10.0834H8.24973C8.00662 10.0834 7.77347 10.1799 7.60157 10.3518C7.42967 10.5237 7.33309 10.7569 7.33309 11C7.33309 11.2431 7.42967 11.4763 7.60157 11.6482C7.77347 11.8201 8.00662 11.9166 8.24973 11.9166H18.8701L15.8509 14.9347C15.6789 15.1067 15.5823 15.3399 15.5823 15.5832C15.5823 15.8264 15.6789 16.0597 15.8509 16.2317C16.0229 16.4037 16.2562 16.5003 16.4995 16.5003C16.7427 16.5003 16.976 16.4037 17.148 16.2317L21.7312 11.6485C21.8164 11.5634 21.884 11.4623 21.9301 11.351C21.9763 11.2397 22 11.1205 22 11C22 10.8795 21.9763 10.7603 21.9301 10.649C21.884 10.5377 21.8164 10.4366 21.7312 10.3515Z" fill="#B2675E"/>
</svg>
