<svg width="11" height="21" viewBox="0 0 11 21" fill="none" xmlns="http://www.w3.org/2000/svg">
<path d="M2.29593 10.5L10.7879 1.773C10.8578 1.70267 10.9131 1.61917 10.9506 1.52734C10.988 1.43551 11.0068 1.33717 11.006 1.238C11.0052 1.13884 10.9847 1.04082 10.9458 0.949622C10.9068 0.858425 10.8501 0.775859 10.7791 0.706701C10.708 0.637544 10.6239 0.583168 10.5317 0.546722C10.4395 0.510275 10.3409 0.49248 10.2418 0.494368C10.1426 0.496256 10.0448 0.517788 9.95405 0.557719C9.86327 0.59765 9.78132 0.655187 9.71293 0.726999L0.712928 9.977C0.576706 10.117 0.500488 10.3047 0.500488 10.5C0.500488 10.6953 0.576706 10.883 0.712928 11.023L9.71293 20.273C9.78132 20.3448 9.86327 20.4023 9.95405 20.4423C10.0448 20.4822 10.1426 20.5037 10.2418 20.5056C10.3409 20.5075 10.4395 20.4897 10.5317 20.4533C10.6239 20.4168 10.708 20.3625 10.7791 20.2933C10.8501 20.2241 10.9068 20.1416 10.9458 20.0504C10.9847 19.9592 11.0052 19.8612 11.006 19.762C11.0068 19.6628 10.988 19.5645 10.9506 19.4727C10.9131 19.3808 10.8578 19.2973 10.7879 19.227L2.29593 10.5Z" fill="#1E1E1E"/>
</svg>
