<svg width="15" height="20" viewBox="0 0 15 20" fill="none" xmlns="http://www.w3.org/2000/svg">
<path fill-rule="evenodd" clip-rule="evenodd" d="M13.0218 8.85662H11.7973V6.2456C11.7973 3.71499 9.71441 1.63254 7.18461 1.63254C4.65441 1.63254 2.57155 3.71499 2.57155 6.2456V8.85662H1.34706V6.2456C1.34706 3.01948 3.96094 0.408051 7.18461 0.408051C10.4083 0.408051 13.0218 3.01948 13.0218 6.2456V8.85662Z" fill="#545454"/>
<path fill-rule="evenodd" clip-rule="evenodd" d="M1.95952 9.5107C1.59339 9.5107 1.30768 9.79601 1.30768 10.1625V18.0005C1.30768 18.3674 1.59339 18.6527 1.95952 18.6527H12.4097C12.7758 18.6527 13.0611 18.3674 13.0611 18.0005V10.1625C13.0611 9.79601 12.7758 9.5107 12.4097 9.5107H1.95952ZM12.4097 19.9585H1.95952C0.899516 19.9585 -7.62939e-05 19.0609 -7.62939e-05 18.0005V10.1625C-7.62939e-05 9.10254 0.899516 8.20499 1.95952 8.20499H12.4097C13.4693 8.20499 14.3689 9.10254 14.3689 10.1625V18.0005C14.3689 19.1025 13.4693 19.9585 12.4097 19.9585Z" fill="#545454"/>
<path fill-rule="evenodd" clip-rule="evenodd" d="M8.49012 12.1221C8.49012 12.8572 7.91992 13.4278 7.18441 13.4278C6.44931 13.4278 5.8791 12.8572 5.8791 12.1221C5.8791 11.387 6.44931 10.8164 7.18441 10.8164C7.91992 10.8164 8.49012 11.4287 8.49012 12.1221Z" fill="#545454"/>
<path fill-rule="evenodd" clip-rule="evenodd" d="M7.51156 12.1221H6.85727L6.20584 16.0413H8.16339L7.51156 12.1221Z" fill="#545454"/>
</svg>
