<svg width="160" height="27" viewBox="0 0 160 27" fill="none" xmlns="http://www.w3.org/2000/svg">
<path d="M8.81428 26.944C7.19028 26.944 5.73428 26.6453 4.44628 26.048C3.17695 25.4693 2.17828 24.6573 1.45028 23.612C0.722281 22.5667 0.358281 21.3813 0.358281 20.056C0.358281 19.6827 0.386281 19.188 0.442281 18.572C0.498281 17.956 0.572948 17.2653 0.666281 16.5C0.778281 15.7347 0.890281 14.96 1.00228 14.176C1.13295 13.3733 1.25428 12.5987 1.36628 11.852L5.06228 12.356C4.85695 13.6067 4.67961 14.7547 4.53028 15.8C4.39961 16.8267 4.29695 17.704 4.22228 18.432C4.14761 19.16 4.11028 19.692 4.11028 20.028C4.11028 20.7747 4.29695 21.4187 4.67028 21.96C5.04361 22.5013 5.57562 22.9213 6.26628 23.22C6.97561 23.5373 7.82495 23.696 8.81428 23.696C9.84095 23.696 10.6716 23.5467 11.3063 23.248C11.9409 22.9493 12.3983 22.5387 12.6783 22.016C12.9769 21.4933 13.1263 20.9053 13.1263 20.252V0.204H16.8783V20.252C16.8783 21.596 16.5236 22.772 15.8143 23.78C15.1236 24.788 14.1716 25.5627 12.9583 26.104C11.7449 26.664 10.3636 26.944 8.81428 26.944ZM33.2084 20V16.752H36.1484V20H33.2084ZM25.6484 26.944C24.9577 26.944 24.2297 26.888 23.4644 26.776C22.7177 26.6827 21.9151 26.552 21.0564 26.384L21.6164 23.388C22.5497 23.5 23.3431 23.584 23.9964 23.64C24.6497 23.696 25.2004 23.724 25.6484 23.724C26.9924 23.724 27.9631 23.4813 28.5604 22.996C29.1577 22.5107 29.4564 21.7827 29.4564 20.812V8.52L30.3804 9.192H26.8804C26.1151 9.192 25.4991 9.28533 25.0324 9.472C24.5657 9.64 24.2204 10.004 23.9964 10.564C23.7911 11.1053 23.6884 11.936 23.6884 13.056C23.6884 14.12 23.7817 14.9227 23.9684 15.464C24.1737 15.9867 24.5097 16.332 24.9764 16.5C25.4431 16.668 26.0777 16.752 26.8804 16.752H29.4564V20H26.8804C25.2937 20 23.9871 19.748 22.9604 19.244C21.9337 18.74 21.1684 17.9747 20.6644 16.948C20.1791 15.9213 19.9364 14.624 19.9364 13.056C19.9364 11.488 20.1791 10.1813 20.6644 9.136C21.1684 8.072 21.9337 7.27867 22.9604 6.756C23.9871 6.21467 25.2937 5.944 26.8804 5.944H33.2084V20.812C33.2084 22.0813 32.8911 23.1733 32.2564 24.088C31.6404 25.0213 30.7631 25.7307 29.6244 26.216C28.5044 26.7013 27.1791 26.944 25.6484 26.944ZM36.1484 20V16.752C36.2604 16.752 36.3444 16.7893 36.4004 16.864C36.4751 16.9387 36.5311 17.0507 36.5684 17.2C36.6244 17.3493 36.6617 17.5267 36.6804 17.732C36.6991 17.9187 36.7084 18.1333 36.7084 18.376C36.7084 18.6187 36.6991 18.8427 36.6804 19.048C36.6617 19.2533 36.6244 19.4307 36.5684 19.58C36.5311 19.7107 36.4751 19.8133 36.4004 19.888C36.3444 19.9627 36.2604 20 36.1484 20ZM36.1523 20V16.752H48.1923L46.9323 17.788V12.608C46.9323 11.488 46.5777 10.6387 45.8683 10.06C45.1777 9.48133 44.0763 9.192 42.5643 9.192C42.135 9.192 41.547 9.22933 40.8003 9.304C40.0537 9.36 39.2417 9.45333 38.3643 9.584L38.0003 6.616C38.803 6.42933 39.615 6.27067 40.4363 6.14C41.2763 6.00933 42.0977 5.944 42.9003 5.944C44.431 5.944 45.775 6.21467 46.9323 6.756C48.0897 7.27867 48.995 8.03467 49.6483 9.024C50.3203 10.0133 50.6563 11.208 50.6563 12.608V20H36.1523ZM36.1523 20C36.0403 20 35.9563 19.9627 35.9003 19.888C35.8257 19.8133 35.7697 19.7107 35.7323 19.58C35.6763 19.4307 35.639 19.2533 35.6203 19.048C35.6017 18.8427 35.5923 18.6187 35.5923 18.376C35.5923 18.04 35.611 17.76 35.6483 17.536C35.6857 17.2933 35.751 17.1067 35.8443 16.976C35.919 16.8267 36.0217 16.752 36.1523 16.752V20ZM40.9963 3.732V0.539999H44.7483V3.732H40.9963ZM53.4598 20V16.752H63.6238L61.0758 18.964V14.26C61.0758 12.9347 60.9358 11.908 60.6558 11.18C60.3945 10.452 59.9465 9.93867 59.3118 9.64C58.6958 9.34133 57.8465 9.192 56.7638 9.192H54.4958V5.944H56.7638C58.4812 5.944 59.9372 6.224 61.1318 6.784C62.3452 7.344 63.2598 8.24 63.8758 9.472C64.5105 10.6853 64.8278 12.2813 64.8278 14.26V20H53.4598ZM89.9681 20V16.752H92.9081V20H89.9681ZM81.9041 26.944C80.2801 26.944 78.8241 26.6453 77.5361 26.048C76.2668 25.4693 75.2681 24.6573 74.5401 23.612C73.8121 22.5667 73.4481 21.3813 73.4481 20.056C73.4481 19.6827 73.4761 19.188 73.5321 18.572C73.5881 17.956 73.6628 17.2653 73.7561 16.5C73.8681 15.7347 73.9801 14.96 74.0921 14.176C74.2228 13.3733 74.3441 12.5987 74.4561 11.852L78.1521 12.356C77.9468 13.6067 77.7695 14.7547 77.6201 15.8C77.4895 16.8267 77.3868 17.704 77.3121 18.432C77.2375 19.16 77.2001 19.692 77.2001 20.028C77.2001 20.7747 77.3868 21.4187 77.7601 21.96C78.1335 22.5013 78.6655 22.9213 79.3561 23.22C80.0655 23.5373 80.9148 23.696 81.9041 23.696C82.9308 23.696 83.7615 23.5467 84.3961 23.248C85.0308 22.9493 85.4881 22.5387 85.7681 22.016C86.0668 21.4933 86.2161 20.9053 86.2161 20.252V0.204H89.9681V20.252C89.9681 21.596 89.6135 22.772 88.9041 23.78C88.2135 24.788 87.2615 25.5627 86.0481 26.104C84.8348 26.664 83.4535 26.944 81.9041 26.944ZM92.9081 20V16.752C93.0201 16.752 93.1041 16.7893 93.1601 16.864C93.2348 16.9387 93.2908 17.0507 93.3281 17.2C93.3841 17.3493 93.4215 17.5267 93.4401 17.732C93.4588 17.9187 93.4681 18.1333 93.4681 18.376C93.4681 18.6187 93.4588 18.8427 93.4401 19.048C93.4215 19.2533 93.3841 19.4307 93.3281 19.58C93.2908 19.7107 93.2348 19.8133 93.1601 19.888C93.1041 19.9627 93.0201 20 92.9081 20ZM101.094 20V16.752H104.594V20H101.094ZM104.594 20V16.752C104.687 16.752 104.771 16.7893 104.846 16.864C104.921 16.9387 104.977 17.0507 105.014 17.2C105.051 17.3493 105.079 17.5267 105.098 17.732C105.135 17.9187 105.154 18.1333 105.154 18.376C105.154 18.6187 105.135 18.8427 105.098 19.048C105.079 19.2533 105.051 19.4307 105.014 19.58C104.977 19.7107 104.921 19.8133 104.846 19.888C104.79 19.9627 104.706 20 104.594 20ZM92.918 20C92.806 20 92.722 19.9627 92.666 19.888C92.5913 19.8133 92.5353 19.7107 92.498 19.58C92.442 19.4307 92.4046 19.2533 92.386 19.048C92.3673 18.8427 92.358 18.6187 92.358 18.376C92.358 18.04 92.3766 17.76 92.414 17.536C92.4513 17.2933 92.5166 17.1067 92.61 16.976C92.6846 16.8267 92.7873 16.752 92.918 16.752V20ZM92.918 20V16.752H99.554L97.37 18.572V5.944H101.094V20H92.918ZM93.926 25.964V22.772H97.538V25.964H93.926ZM99.022 25.964V22.772H102.634V25.964H99.022ZM119.098 20V16.752H122.066V20H119.098ZM104.594 20C104.482 20 104.398 19.9627 104.342 19.888C104.267 19.8133 104.211 19.7107 104.174 19.58C104.118 19.4307 104.08 19.2533 104.062 19.048C104.043 18.8427 104.034 18.6187 104.034 18.376C104.034 18.04 104.052 17.76 104.09 17.536C104.127 17.2933 104.192 17.1067 104.286 16.976C104.36 16.8267 104.463 16.752 104.594 16.752V20ZM104.594 20V16.752H116.634L115.374 17.788V12.608C115.374 11.488 115.019 10.6387 114.31 10.06C113.619 9.48133 112.518 9.192 111.006 9.192C110.576 9.192 109.988 9.22933 109.242 9.304C108.495 9.36 107.683 9.45333 106.806 9.584L106.442 6.616C107.244 6.42933 108.056 6.27067 108.878 6.14C109.718 6.00933 110.539 5.944 111.342 5.944C112.872 5.944 114.216 6.21467 115.374 6.756C116.531 7.27867 117.436 8.03467 118.09 9.024C118.762 10.0133 119.098 11.208 119.098 12.608V20H104.594ZM122.066 20V16.752C122.159 16.752 122.243 16.7893 122.318 16.864C122.392 16.9387 122.448 17.0507 122.486 17.2C122.523 17.3493 122.551 17.5267 122.57 17.732C122.607 17.9187 122.626 18.1333 122.626 18.376C122.626 18.6187 122.607 18.8427 122.57 19.048C122.551 19.2533 122.523 19.4307 122.486 19.58C122.448 19.7107 122.392 19.8133 122.318 19.888C122.243 19.9627 122.159 20 122.066 20ZM109.998 25.964V22.772H113.75V25.964H109.998ZM145.558 20V16.752H148.526V20H145.558ZM122.066 20C121.954 20 121.87 19.9627 121.814 19.888C121.74 19.8133 121.684 19.7107 121.646 19.58C121.59 19.4307 121.553 19.2533 121.534 19.048C121.516 18.8427 121.506 18.6187 121.506 18.376C121.506 18.04 121.525 17.76 121.562 17.536C121.6 17.2933 121.665 17.1067 121.758 16.976C121.833 16.8267 121.936 16.752 122.066 16.752V20ZM138.53 20C137.765 20 137 19.86 136.234 19.58C135.488 19.2813 134.797 18.8427 134.162 18.264L136.458 15.884C136.832 16.1827 137.177 16.4067 137.494 16.556C137.83 16.6867 138.176 16.752 138.53 16.752H143.766L141.834 18.516V12.3C141.834 12.0013 141.797 11.5533 141.722 10.956C141.666 10.34 141.573 9.64933 141.442 8.884C141.33 8.1 141.19 7.30667 141.022 6.504L144.718 5.944C144.849 6.616 144.97 7.372 145.082 8.212C145.213 9.03333 145.325 9.81733 145.418 10.564C145.512 11.292 145.558 11.8707 145.558 12.3V20H138.53ZM122.066 20V16.752H126.154L125.314 17.62V8.8H129.066V20H122.066ZM129.066 20V16.752H131.334C131.932 16.752 132.389 16.668 132.706 16.5C133.024 16.3133 133.238 15.9493 133.35 15.408C133.481 14.848 133.546 14.0173 133.546 12.916V7.4H137.298V12.916C137.298 14.5773 137.084 15.9307 136.654 16.976C136.244 18.0213 135.6 18.7867 134.722 19.272C133.845 19.7573 132.716 20 131.334 20H129.066ZM148.526 20V16.752C148.62 16.752 148.704 16.7893 148.778 16.864C148.853 16.9387 148.909 17.0507 148.946 17.2C148.984 17.3493 149.012 17.5267 149.03 17.732C149.068 17.9187 149.086 18.1333 149.086 18.376C149.086 18.6187 149.068 18.8427 149.03 19.048C149.012 19.2533 148.984 19.4307 148.946 19.58C148.909 19.7107 148.853 19.8133 148.778 19.888C148.704 19.9627 148.62 20 148.526 20ZM148.535 20V16.752H155.171L152.987 18.572V5.944H156.711V20H148.535ZM148.535 20C148.423 20 148.339 19.9627 148.283 19.888C148.208 19.8133 148.152 19.7107 148.115 19.58C148.059 19.4307 148.022 19.2533 148.003 19.048C147.984 18.8427 147.975 18.6187 147.975 18.376C147.975 18.04 147.994 17.76 148.031 17.536C148.068 17.2933 148.134 17.1067 148.227 16.976C148.302 16.8267 148.404 16.752 148.535 16.752V20ZM150.523 3.368V0.176H154.135V3.368H150.523ZM155.619 3.368V0.176H159.231V3.368H155.619Z" fill="#F9F3E4"/>
</svg>
