<svg width="95" height="31" viewBox="0 0 95 31" fill="none" xmlns="http://www.w3.org/2000/svg">
<g filter="url(#filter0_d_49_1469)">
<path d="M9.75667 24.092C8.96467 24.092 8.22067 24.008 7.52467 23.84C6.82867 23.672 6.21667 23.414 5.68867 23.066C5.17267 22.718 4.76467 22.268 4.46467 21.716C4.17667 21.164 4.03267 20.51 4.03267 19.754C4.03267 18.974 4.19467 18.284 4.51867 17.684C4.84267 17.096 5.25667 16.58 5.76067 16.136C6.26467 15.68 6.79867 15.272 7.36267 14.912C7.93867 14.54 8.47867 14.186 8.98267 13.85C9.48667 13.514 9.90067 13.172 10.2247 12.824C10.5487 12.464 10.7107 12.068 10.7107 11.636C10.7107 11.48 10.6687 11.336 10.5847 11.204C10.5127 11.06 10.3867 10.946 10.2067 10.862C10.0387 10.766 9.79867 10.718 9.48667 10.718C9.28267 10.718 9.07267 10.742 8.85667 10.79C8.64067 10.826 8.43067 10.88 8.22667 10.952C8.02267 11.012 7.83067 11.09 7.65067 11.186C7.96267 11.438 8.26867 11.72 8.56867 12.032C8.88067 12.332 9.16267 12.626 9.41467 12.914C9.67867 13.19 9.88267 13.43 10.0267 13.634C10.3027 13.778 10.6027 13.91 10.9267 14.03C11.2507 14.138 11.5927 14.234 11.9527 14.318C12.3247 14.402 12.7087 14.468 13.1047 14.516C13.5007 14.552 13.9087 14.57 14.3287 14.57C14.7847 14.57 15.1087 14.69 15.3007 14.93C15.4927 15.158 15.5887 15.446 15.5887 15.794C15.5887 16.166 15.4627 16.478 15.2107 16.73C14.9587 16.97 14.6047 17.09 14.1487 17.09C13.1527 17.09 12.3007 17.018 11.5927 16.874C10.8967 16.73 10.2667 16.514 9.70267 16.226C9.15067 15.926 8.58067 15.56 7.99267 15.128C7.84867 14.876 7.63867 14.6 7.36267 14.3C7.08667 13.988 6.80467 13.694 6.51667 13.418C6.24067 13.142 6.00667 12.926 5.81467 12.77C5.77867 12.734 5.71867 12.614 5.63467 12.41C5.55067 12.194 5.47267 11.966 5.40067 11.726C5.34067 11.486 5.31067 11.318 5.31067 11.222C5.31067 10.982 5.42467 10.712 5.65267 10.412C5.88067 10.1 6.19867 9.806 6.60667 9.53C7.02667 9.242 7.51267 9.008 8.06467 8.828C8.61667 8.636 9.21667 8.54 9.86467 8.54C11.0407 8.54 11.8867 8.792 12.4027 9.296C12.9307 9.788 13.1947 10.424 13.1947 11.204C13.1947 11.924 13.0327 12.566 12.7087 13.13C12.3967 13.694 11.9887 14.21 11.4847 14.678C10.9807 15.146 10.4467 15.578 9.88267 15.974C9.33067 16.37 8.80267 16.754 8.29867 17.126C7.79467 17.51 7.38067 17.894 7.05667 18.278C6.74467 18.674 6.58867 19.1 6.58867 19.556C6.58867 19.94 6.68467 20.258 6.87667 20.51C7.08067 20.774 7.33867 20.984 7.65067 21.14C7.96267 21.296 8.30467 21.404 8.67667 21.464C9.06067 21.536 9.43267 21.572 9.79267 21.572C10.1647 21.572 10.5487 21.542 10.9447 21.482C11.3527 21.422 11.7727 21.326 12.2047 21.194C12.6487 21.074 13.1047 20.918 13.5727 20.726L14.3287 22.886C13.8727 23.126 13.3867 23.336 12.8707 23.516C12.3547 23.708 11.8327 23.852 11.3047 23.948C10.7767 24.044 10.2607 24.092 9.75667 24.092ZM14.1543 17.09L14.3343 14.588C15.3303 14.588 16.1283 14.582 16.7283 14.57C17.3403 14.558 17.8143 14.534 18.1503 14.498C18.4983 14.45 18.7563 14.396 18.9243 14.336C19.0923 14.264 19.2363 14.186 19.3563 14.102C19.5003 13.994 19.6203 13.85 19.7163 13.67C19.8243 13.478 19.9083 13.226 19.9683 12.914C20.0283 12.602 20.0583 12.212 20.0583 11.744C20.0583 11.156 20.0043 10.664 19.8963 10.268C19.8003 9.86 19.6563 9.554 19.4643 9.35C19.2843 9.146 19.0623 9.044 18.7983 9.044C18.6063 9.044 18.4263 9.11 18.2583 9.242C18.0903 9.362 17.9523 9.53 17.8443 9.746C17.7363 9.962 17.6823 10.208 17.6823 10.484C17.6823 10.64 17.7243 10.778 17.8083 10.898C17.8923 11.018 18.0243 11.108 18.2043 11.168C18.3843 11.228 18.6123 11.258 18.8883 11.258C19.1523 11.258 19.4283 11.228 19.7163 11.168C20.0163 11.096 20.2923 11 20.5443 10.88L20.6163 13.022C20.4243 13.154 20.2023 13.274 19.9503 13.382C19.6983 13.49 19.4283 13.574 19.1403 13.634C18.8643 13.682 18.5823 13.706 18.2943 13.706C17.6583 13.706 17.1063 13.622 16.6383 13.454C16.1823 13.274 15.8283 12.986 15.5763 12.59C15.3243 12.194 15.1983 11.654 15.1983 10.97C15.1983 10.442 15.2883 9.92 15.4683 9.404C15.6483 8.876 15.9063 8.402 16.2423 7.982C16.5783 7.55 16.9743 7.208 17.4303 6.956C17.8863 6.692 18.3903 6.56 18.9423 6.56C19.7583 6.56 20.4303 6.8 20.9583 7.28C21.4983 7.748 21.8943 8.384 22.1463 9.188C22.4103 9.98 22.5423 10.862 22.5423 11.834C22.5423 12.686 22.4163 13.43 22.1643 14.066C21.9123 14.69 21.6123 15.182 21.2643 15.542C20.9763 15.842 20.6463 16.094 20.2743 16.298C19.9023 16.502 19.4463 16.664 18.9063 16.784C18.3783 16.892 17.7243 16.97 16.9443 17.018C16.1763 17.066 15.2463 17.09 14.1543 17.09ZM18.9063 4.886C18.5343 4.886 18.2163 4.76 17.9523 4.508C17.7003 4.256 17.5743 3.944 17.5743 3.572C17.5743 3.2 17.7003 2.882 17.9523 2.618C18.2163 2.354 18.5343 2.222 18.9063 2.222C19.2663 2.222 19.5723 2.354 19.8243 2.618C20.0883 2.882 20.2203 3.2 20.2203 3.572C20.2203 3.944 20.0883 4.256 19.8243 4.508C19.5723 4.76 19.2663 4.886 18.9063 4.886ZM27.1662 14.57C27.7062 14.57 28.1202 14.522 28.4082 14.426C28.6962 14.33 28.8942 14.204 29.0022 14.048C29.1102 13.892 29.1642 13.724 29.1642 13.544C29.1642 13.256 29.0802 12.92 28.9122 12.536C28.7562 12.152 28.5582 11.75 28.3182 11.33C28.0782 10.91 27.8262 10.508 27.5622 10.124C27.3102 9.74 27.0822 9.404 26.8782 9.116L29.0202 7.694C29.5362 8.39 29.9802 9.08 30.3522 9.764C30.7242 10.436 31.0242 11.06 31.2522 11.636C31.4922 12.212 31.6602 12.704 31.7562 13.112C31.8522 13.496 31.9962 13.796 32.1882 14.012C32.3922 14.216 32.6262 14.36 32.8902 14.444C33.1542 14.528 33.4182 14.57 33.6822 14.57C34.1382 14.57 34.4622 14.69 34.6542 14.93C34.8582 15.158 34.9602 15.446 34.9602 15.794C34.9602 16.166 34.8342 16.478 34.5822 16.73C34.3422 16.97 33.9822 17.09 33.5022 17.09C32.9742 17.09 32.5122 17.018 32.1162 16.874C31.7202 16.73 31.3842 16.502 31.1082 16.19C30.8322 15.878 30.5982 15.482 30.4062 15.002L31.5042 15.236C31.4082 15.572 31.1862 15.884 30.8382 16.172C30.5022 16.448 30.0522 16.676 29.4882 16.856C28.9362 17.024 28.2822 17.108 27.5262 17.108C27.1662 17.108 26.7642 17.078 26.3202 17.018C25.8882 16.958 25.4562 16.868 25.0242 16.748C24.6042 16.628 24.2202 16.472 23.8722 16.28L24.7542 13.994C25.1982 14.186 25.6242 14.33 26.0322 14.426C26.4522 14.522 26.8302 14.57 27.1662 14.57ZM33.5254 17.09L33.7054 14.57C34.2694 14.57 34.6654 14.516 34.8934 14.408C35.1334 14.288 35.2774 14.072 35.3254 13.76C35.3734 13.436 35.3854 12.968 35.3614 12.356L35.0734 3.824H37.6294L37.9354 12.338C37.9594 12.938 38.0314 13.4 38.1514 13.724C38.2714 14.048 38.4694 14.27 38.7454 14.39C39.0334 14.51 39.4174 14.57 39.8974 14.57C40.3534 14.57 40.6774 14.69 40.8694 14.93C41.0614 15.158 41.1574 15.446 41.1574 15.794C41.1574 16.166 41.0314 16.478 40.7794 16.73C40.5274 16.97 40.1734 17.09 39.7174 17.09C39.1894 17.09 38.6974 17.03 38.2414 16.91C37.7854 16.79 37.4074 16.562 37.1074 16.226C36.8074 15.89 36.6094 15.404 36.5134 14.768L37.3054 14.786C37.1014 15.41 36.8374 15.89 36.5134 16.226C36.1894 16.55 35.7814 16.778 35.2894 16.91C34.8094 17.03 34.2214 17.09 33.5254 17.09ZM39.7129 17.09L39.8929 14.57C40.4449 14.57 40.8409 14.516 41.0809 14.408C41.3209 14.288 41.4649 14.072 41.5129 13.76C41.5609 13.436 41.5729 12.968 41.5489 12.356L41.2249 3.824H43.7629L44.1229 12.536C44.1469 13.232 44.1169 13.862 44.0329 14.426C43.9609 14.978 43.7749 15.452 43.4749 15.848C43.1869 16.244 42.7369 16.55 42.1249 16.766C41.5249 16.982 40.7209 17.09 39.7129 17.09ZM49.8137 16.496C49.8137 16.22 49.8377 15.896 49.8857 15.524C49.9337 15.152 50.0237 14.732 50.1557 14.264C50.2877 13.784 50.4857 13.25 50.7497 12.662L52.9637 13.436C52.8317 13.808 52.7177 14.15 52.6217 14.462C52.5257 14.762 52.4537 15.044 52.4057 15.308C52.3577 15.56 52.3337 15.812 52.3337 16.064C52.3337 16.604 52.4657 17.072 52.7297 17.468C53.0057 17.876 53.3777 18.188 53.8457 18.404C54.3257 18.632 54.8777 18.746 55.5017 18.746C56.5217 18.746 57.3017 18.578 57.8417 18.242C58.3937 17.918 58.7657 17.402 58.9577 16.694C59.1617 15.974 59.2397 15.044 59.1917 13.904L58.8317 3.824H61.3697L61.6397 12.338C61.6637 12.938 61.7477 13.4 61.8917 13.724C62.0357 14.048 62.2577 14.27 62.5577 14.39C62.8697 14.51 63.2717 14.57 63.7637 14.57C64.2197 14.57 64.5437 14.69 64.7357 14.93C64.9277 15.158 65.0237 15.446 65.0237 15.794C65.0237 16.166 64.8977 16.478 64.6457 16.73C64.3937 16.97 64.0397 17.09 63.5837 17.09C63.3197 17.09 63.0377 17.054 62.7377 16.982C62.4377 16.91 62.1497 16.796 61.8737 16.64C61.5977 16.484 61.3577 16.28 61.1537 16.028C60.9497 15.764 60.8117 15.44 60.7397 15.056L61.7117 14.57C61.7117 15.782 61.5677 16.808 61.2797 17.648C61.0037 18.488 60.5957 19.166 60.0557 19.682C59.5277 20.198 58.8737 20.57 58.0937 20.798C57.3257 21.038 56.4377 21.158 55.4297 21.158C54.6617 21.158 53.9357 21.062 53.2517 20.87C52.5797 20.678 51.9857 20.39 51.4697 20.006C50.9537 19.622 50.5457 19.136 50.2457 18.548C49.9577 17.972 49.8137 17.288 49.8137 16.496ZM63.584 17.09L63.764 14.588C64.232 14.6 64.664 14.594 65.06 14.57C65.456 14.546 65.81 14.51 66.122 14.462C66.446 14.414 66.728 14.36 66.968 14.3C67.22 14.24 67.43 14.186 67.598 14.138C68.006 14.006 68.354 13.85 68.642 13.67C68.93 13.478 69.152 13.262 69.308 13.022C69.464 12.782 69.542 12.524 69.542 12.248C69.542 12.032 69.494 11.816 69.398 11.6C69.314 11.372 69.188 11.186 69.02 11.042C68.852 10.898 68.654 10.826 68.426 10.826C68.21 10.826 68.012 10.892 67.832 11.024C67.652 11.156 67.508 11.336 67.4 11.564C67.292 11.78 67.238 12.032 67.238 12.32C67.238 12.572 67.298 12.812 67.418 13.04C67.538 13.256 67.706 13.466 67.922 13.67C68.138 13.874 68.396 14.066 68.696 14.246L66.302 15.164C66.038 14.912 65.786 14.642 65.546 14.354C65.318 14.066 65.126 13.742 64.97 13.382C64.826 13.01 64.754 12.596 64.754 12.14C64.754 11.588 64.862 11.084 65.078 10.628C65.294 10.172 65.582 9.782 65.942 9.458C66.302 9.122 66.704 8.864 67.148 8.684C67.592 8.504 68.036 8.414 68.48 8.414C69.2 8.414 69.824 8.582 70.352 8.918C70.88 9.254 71.288 9.692 71.576 10.232C71.876 10.772 72.026 11.36 72.026 11.996C72.026 12.584 71.918 13.112 71.702 13.58C71.486 14.036 71.192 14.444 70.82 14.804C70.46 15.152 70.058 15.458 69.614 15.722C69.182 15.986 68.744 16.208 68.3 16.388C68.084 16.484 67.814 16.574 67.49 16.658C67.166 16.742 66.8 16.82 66.392 16.892C65.984 16.952 65.546 17 65.078 17.036C64.61 17.072 64.112 17.09 63.584 17.09ZM73.088 17.09C72.392 17.09 71.708 17.054 71.036 16.982C70.364 16.91 69.74 16.802 69.164 16.658C68.6 16.514 68.108 16.34 67.688 16.136L68.93 14.192C69.29 14.288 69.71 14.366 70.19 14.426C70.682 14.474 71.192 14.51 71.72 14.534C72.26 14.558 72.776 14.57 73.268 14.57C73.724 14.57 74.048 14.69 74.24 14.93C74.444 15.158 74.546 15.446 74.546 15.794C74.546 16.166 74.42 16.478 74.168 16.73C73.916 16.97 73.556 17.09 73.088 17.09ZM70.064 6.776C69.716 6.776 69.416 6.656 69.164 6.416C68.924 6.164 68.804 5.87 68.804 5.534C68.804 5.186 68.924 4.886 69.164 4.634C69.416 4.382 69.716 4.256 70.064 4.256C70.4 4.256 70.688 4.382 70.928 4.634C71.168 4.886 71.288 5.186 71.288 5.534C71.288 5.87 71.168 6.164 70.928 6.416C70.688 6.656 70.4 6.776 70.064 6.776ZM66.95 6.758C66.602 6.758 66.302 6.638 66.05 6.398C65.81 6.146 65.69 5.852 65.69 5.516C65.69 5.168 65.81 4.868 66.05 4.616C66.302 4.364 66.602 4.238 66.95 4.238C67.286 4.238 67.574 4.364 67.814 4.616C68.054 4.868 68.174 5.168 68.174 5.516C68.174 5.852 68.054 6.146 67.814 6.398C67.574 6.638 67.286 6.758 66.95 6.758ZM73.1113 17.09L73.2913 14.57C73.7233 14.57 74.0953 14.528 74.4073 14.444C74.7193 14.36 74.9833 14.192 75.1993 13.94C75.4153 13.676 75.5953 13.292 75.7393 12.788C75.8953 12.284 76.0333 11.612 76.1533 10.772L78.5113 11.168C78.4873 11.348 78.4513 11.558 78.4033 11.798C78.3673 12.038 78.3313 12.284 78.2953 12.536C78.2713 12.776 78.2593 13.004 78.2593 13.22C78.2593 13.436 78.3013 13.628 78.3853 13.796C78.4693 13.964 78.6013 14.108 78.7813 14.228C78.9733 14.336 79.2193 14.42 79.5193 14.48C79.8313 14.54 80.2093 14.57 80.6533 14.57C81.1093 14.57 81.4333 14.69 81.6253 14.93C81.8173 15.158 81.9133 15.446 81.9133 15.794C81.9133 16.166 81.7873 16.478 81.5353 16.73C81.2953 16.97 80.9413 17.09 80.4733 17.09C79.9333 17.09 79.4413 17.048 78.9973 16.964C78.5653 16.88 78.1873 16.742 77.8633 16.55C77.5513 16.346 77.2933 16.082 77.0893 15.758C76.8973 15.422 76.7773 15.014 76.7293 14.534H77.5933C77.3773 15.11 77.1013 15.572 76.7653 15.92C76.4413 16.256 76.0753 16.508 75.6673 16.676C75.2593 16.844 74.8333 16.952 74.3893 17C73.9573 17.06 73.5313 17.09 73.1113 17.09ZM78.8893 9.152C78.5413 9.152 78.2413 9.032 77.9893 8.792C77.7493 8.54 77.6293 8.246 77.6293 7.91C77.6293 7.562 77.7493 7.262 77.9893 7.01C78.2413 6.758 78.5413 6.632 78.8893 6.632C79.2253 6.632 79.5133 6.758 79.7533 7.01C79.9933 7.262 80.1133 7.562 80.1133 7.91C80.1133 8.246 79.9933 8.54 79.7533 8.792C79.5133 9.032 79.2253 9.152 78.8893 9.152ZM75.7753 9.134C75.4273 9.134 75.1273 9.014 74.8753 8.774C74.6353 8.522 74.5153 8.228 74.5153 7.892C74.5153 7.544 74.6353 7.244 74.8753 6.992C75.1273 6.74 75.4273 6.614 75.7753 6.614C76.1113 6.614 76.3993 6.74 76.6393 6.992C76.8793 7.244 76.9993 7.544 76.9993 7.892C76.9993 8.228 76.8793 8.522 76.6393 8.774C76.3993 9.014 76.1113 9.134 75.7753 9.134ZM80.4766 17.09L80.6566 14.57C81.1846 14.57 81.5986 14.534 81.8986 14.462C82.2106 14.39 82.4326 14.258 82.5646 14.066C82.6966 13.862 82.7626 13.574 82.7626 13.202C82.7626 12.866 82.7146 12.464 82.6186 11.996C82.5346 11.528 82.4206 11.042 82.2766 10.538C82.1326 10.034 81.9886 9.572 81.8446 9.152L84.3286 8.468C84.4726 8.876 84.6166 9.35 84.7606 9.89C84.9046 10.43 85.0246 10.988 85.1206 11.564C85.2286 12.128 85.2826 12.674 85.2826 13.202C85.2826 13.862 85.1986 14.42 85.0306 14.876C84.8626 15.32 84.6286 15.692 84.3286 15.992C84.0406 16.28 83.6926 16.508 83.2846 16.676C82.8886 16.832 82.4506 16.94 81.9706 17C81.4906 17.06 80.9926 17.09 80.4766 17.09ZM83.0686 6.974C82.6966 6.974 82.3786 6.848 82.1146 6.596C81.8626 6.344 81.7366 6.032 81.7366 5.66C81.7366 5.288 81.8626 4.97 82.1146 4.706C82.3786 4.442 82.6966 4.31 83.0686 4.31C83.4286 4.31 83.7346 4.442 83.9866 4.706C84.2506 4.97 84.3826 5.288 84.3826 5.66C84.3826 6.032 84.2506 6.344 83.9866 6.596C83.7346 6.848 83.4286 6.974 83.0686 6.974ZM87.6295 17L87.2515 3.824H89.7715L90.1495 17H87.6295Z" fill="white"/>
</g>
<defs>
<filter id="filter0_d_49_1469" x="0.0327148" y="0.221985" width="94.1167" height="29.87" filterUnits="userSpaceOnUse" color-interpolation-filters="sRGB">
<feFlood flood-opacity="0" result="BackgroundImageFix"/>
<feColorMatrix in="SourceAlpha" type="matrix" values="0 0 0 0 0 0 0 0 0 0 0 0 0 0 0 0 0 0 127 0" result="hardAlpha"/>
<feOffset dy="2"/>
<feGaussianBlur stdDeviation="2"/>
<feComposite in2="hardAlpha" operator="out"/>
<feColorMatrix type="matrix" values="0 0 0 0 0 0 0 0 0 0 0 0 0 0 0 0 0 0 0.25 0"/>
<feBlend mode="normal" in2="BackgroundImageFix" result="effect1_dropShadow_49_1469"/>
<feBlend mode="normal" in="SourceGraphic" in2="effect1_dropShadow_49_1469" result="shape"/>
</filter>
</defs>
</svg>
