<svg width="26" height="25" viewBox="0 0 26 25" fill="none" xmlns="http://www.w3.org/2000/svg">
<mask id="mask0_424_677" style="mask-type:alpha" maskUnits="userSpaceOnUse" x="0" y="0" width="26" height="25">
<rect x="0.5" width="25" height="25" fill="#D9D9D9"/>
</mask>
<g mask="url(#mask0_424_677)">
<path d="M5.70833 21.875C5.13542 21.875 4.64497 21.671 4.23698 21.263C3.82899 20.855 3.625 20.3646 3.625 19.7917V5.20833C3.625 4.63542 3.82899 4.14497 4.23698 3.73698C4.64497 3.32899 5.13542 3.125 5.70833 3.125H13V5.20833H5.70833V19.7917H20.2917V12.5H22.375V19.7917C22.375 20.3646 22.171 20.855 21.763 21.263C21.355 21.671 20.8646 21.875 20.2917 21.875H5.70833ZM10.6042 16.3542L9.14583 14.8958L18.8333 5.20833H15.0833V3.125H22.375V10.4167H20.2917V6.66667L10.6042 16.3542Z" fill="#8391A1"/>
</g>
</svg>
