<svg width="86" height="23" viewBox="0 0 86 23" fill="none" xmlns="http://www.w3.org/2000/svg">
<path d="M5.868 22.5061C5.076 22.5061 4.332 22.4221 3.636 22.2541C2.94 22.0861 2.328 21.8281 1.8 21.4801C1.284 21.1321 0.876 20.6821 0.576 20.1301C0.288 19.5781 0.144 18.9241 0.144 18.1681C0.144 17.3881 0.306 16.6981 0.63 16.0981C0.954 15.5101 1.368 14.9941 1.872 14.5501C2.376 14.0941 2.91 13.6861 3.474 13.3261C4.05 12.9541 4.59 12.6001 5.094 12.2641C5.598 11.9281 6.012 11.5861 6.336 11.2381C6.66 10.8781 6.822 10.4821 6.822 10.0501C6.822 9.89406 6.78 9.75006 6.696 9.61806C6.624 9.47406 6.498 9.36006 6.318 9.27606C6.15 9.18006 5.91 9.13206 5.598 9.13206C5.394 9.13206 5.184 9.15606 4.968 9.20406C4.752 9.24006 4.542 9.29406 4.338 9.36606C4.134 9.42606 3.942 9.50406 3.762 9.60006C4.074 9.85206 4.38 10.1341 4.68 10.4461C4.992 10.7461 5.274 11.0401 5.526 11.3281C5.79 11.6041 5.994 11.8441 6.138 12.0481C6.414 12.1921 6.714 12.3241 7.038 12.4441C7.362 12.5521 7.704 12.6481 8.064 12.7321C8.436 12.8161 8.82 12.8821 9.216 12.9301C9.612 12.9661 10.02 12.9841 10.44 12.9841C10.896 12.9841 11.22 13.1041 11.412 13.3441C11.604 13.5721 11.7 13.8601 11.7 14.2081C11.7 14.5801 11.574 14.8921 11.322 15.1441C11.07 15.3841 10.716 15.5041 10.26 15.5041C9.264 15.5041 8.412 15.4321 7.704 15.2881C7.008 15.1441 6.378 14.9281 5.814 14.6401C5.262 14.3401 4.692 13.9741 4.104 13.5421C3.96 13.2901 3.75 13.0141 3.474 12.7141C3.198 12.4021 2.916 12.1081 2.628 11.8321C2.352 11.5561 2.118 11.3401 1.926 11.1841C1.89 11.1481 1.83 11.0281 1.746 10.8241C1.662 10.6081 1.584 10.3801 1.512 10.1401C1.452 9.90006 1.422 9.73206 1.422 9.63606C1.422 9.39606 1.536 9.12606 1.764 8.82606C1.992 8.51406 2.31 8.22006 2.718 7.94406C3.138 7.65606 3.624 7.42206 4.176 7.24206C4.728 7.05006 5.328 6.95406 5.976 6.95406C7.152 6.95406 7.998 7.20606 8.514 7.71006C9.042 8.20206 9.306 8.83806 9.306 9.61806C9.306 10.3381 9.144 10.9801 8.82 11.5441C8.508 12.1081 8.1 12.6241 7.596 13.0921C7.092 13.5601 6.558 13.9921 5.994 14.3881C5.442 14.7841 4.914 15.1681 4.41 15.5401C3.906 15.9241 3.492 16.3081 3.168 16.6921C2.856 17.0881 2.7 17.5141 2.7 17.9701C2.7 18.3541 2.796 18.6721 2.988 18.9241C3.192 19.1881 3.45 19.3981 3.762 19.5541C4.074 19.7101 4.416 19.8181 4.788 19.8781C5.172 19.9501 5.544 19.9861 5.904 19.9861C6.276 19.9861 6.66 19.9561 7.056 19.8961C7.464 19.8361 7.884 19.7401 8.316 19.6081C8.76 19.4881 9.216 19.3321 9.684 19.1401L10.44 21.3001C9.984 21.5401 9.498 21.7501 8.982 21.9301C8.466 22.1221 7.944 22.2661 7.416 22.3621C6.888 22.4581 6.372 22.5061 5.868 22.5061ZM10.2656 15.5041L10.4456 13.0021C11.4416 13.0021 12.2396 12.9961 12.8396 12.9841C13.4516 12.9721 13.9256 12.9481 14.2616 12.9121C14.6096 12.8641 14.8676 12.8101 15.0356 12.7501C15.2036 12.6781 15.3476 12.6001 15.4676 12.5161C15.6116 12.4081 15.7316 12.2641 15.8276 12.0841C15.9356 11.8921 16.0196 11.6401 16.0796 11.3281C16.1396 11.0161 16.1696 10.6261 16.1696 10.1581C16.1696 9.57006 16.1156 9.07806 16.0076 8.68206C15.9116 8.27406 15.7676 7.96806 15.5756 7.76406C15.3956 7.56006 15.1736 7.45806 14.9096 7.45806C14.7176 7.45806 14.5376 7.52406 14.3696 7.65606C14.2016 7.77606 14.0636 7.94406 13.9556 8.16006C13.8476 8.37606 13.7936 8.62206 13.7936 8.89806C13.7936 9.05406 13.8356 9.19206 13.9196 9.31206C14.0036 9.43206 14.1356 9.52206 14.3156 9.58206C14.4956 9.64206 14.7236 9.67206 14.9996 9.67206C15.2636 9.67206 15.5396 9.64206 15.8276 9.58206C16.1276 9.51006 16.4036 9.41406 16.6556 9.29406L16.7276 11.4361C16.5356 11.5681 16.3136 11.6881 16.0616 11.7961C15.8096 11.9041 15.5396 11.9881 15.2516 12.0481C14.9756 12.0961 14.6936 12.1201 14.4056 12.1201C13.7696 12.1201 13.2176 12.0361 12.7496 11.8681C12.2936 11.6881 11.9396 11.4001 11.6876 11.0041C11.4356 10.6081 11.3096 10.0681 11.3096 9.38406C11.3096 8.85606 11.3996 8.33406 11.5796 7.81806C11.7596 7.29006 12.0176 6.81606 12.3536 6.39606C12.6896 5.96406 13.0856 5.62206 13.5416 5.37006C13.9976 5.10606 14.5016 4.97406 15.0536 4.97406C15.8696 4.97406 16.5416 5.21406 17.0696 5.69406C17.6096 6.16206 18.0056 6.79806 18.2576 7.60206C18.5216 8.39406 18.6536 9.27606 18.6536 10.2481C18.6536 11.1001 18.5276 11.8441 18.2756 12.4801C18.0236 13.1041 17.7236 13.5961 17.3756 13.9561C17.0876 14.2561 16.7576 14.5081 16.3856 14.7121C16.0136 14.9161 15.5576 15.0781 15.0176 15.1981C14.4896 15.3061 13.8356 15.3841 13.0556 15.4321C12.2876 15.4801 11.3576 15.5041 10.2656 15.5041ZM15.0176 3.30006C14.6456 3.30006 14.3276 3.17406 14.0636 2.92206C13.8116 2.67006 13.6856 2.35806 13.6856 1.98606C13.6856 1.61406 13.8116 1.29606 14.0636 1.03206C14.3276 0.768062 14.6456 0.636062 15.0176 0.636062C15.3776 0.636062 15.6836 0.768062 15.9356 1.03206C16.1996 1.29606 16.3316 1.61406 16.3316 1.98606C16.3316 2.35806 16.1996 2.67006 15.9356 2.92206C15.6836 3.17406 15.3776 3.30006 15.0176 3.30006ZM23.2775 12.9841C23.8175 12.9841 24.2315 12.9361 24.5195 12.8401C24.8075 12.7441 25.0055 12.6181 25.1135 12.4621C25.2215 12.3061 25.2755 12.1381 25.2755 11.9581C25.2755 11.6701 25.1915 11.3341 25.0235 10.9501C24.8675 10.5661 24.6695 10.1641 24.4295 9.74406C24.1895 9.32406 23.9375 8.92206 23.6735 8.53806C23.4215 8.15406 23.1935 7.81806 22.9895 7.53006L25.1315 6.10806C25.6475 6.80406 26.0915 7.49406 26.4635 8.17806C26.8355 8.85006 27.1355 9.47406 27.3635 10.0501C27.6035 10.6261 27.7715 11.1181 27.8675 11.5261C27.9635 11.9101 28.1075 12.2101 28.2995 12.4261C28.5035 12.6301 28.7375 12.7741 29.0015 12.8581C29.2655 12.9421 29.5295 12.9841 29.7935 12.9841C30.2495 12.9841 30.5735 13.1041 30.7655 13.3441C30.9695 13.5721 31.0715 13.8601 31.0715 14.2081C31.0715 14.5801 30.9455 14.8921 30.6935 15.1441C30.4535 15.3841 30.0935 15.5041 29.6135 15.5041C29.0855 15.5041 28.6235 15.4321 28.2275 15.2881C27.8315 15.1441 27.4955 14.9161 27.2195 14.6041C26.9435 14.2921 26.7095 13.8961 26.5175 13.4161L27.6155 13.6501C27.5195 13.9861 27.2975 14.2981 26.9495 14.5861C26.6135 14.8621 26.1635 15.0901 25.5995 15.2701C25.0475 15.4381 24.3935 15.5221 23.6375 15.5221C23.2775 15.5221 22.8755 15.4921 22.4315 15.4321C21.9995 15.3721 21.5675 15.2821 21.1355 15.1621C20.7155 15.0421 20.3315 14.8861 19.9835 14.6941L20.8655 12.4081C21.3095 12.6001 21.7355 12.7441 22.1435 12.8401C22.5635 12.9361 22.9415 12.9841 23.2775 12.9841ZM29.6367 15.5041L29.8167 12.9841C30.3687 12.9841 30.7647 12.9301 31.0047 12.8221C31.2447 12.7021 31.3887 12.4861 31.4367 12.1741C31.4847 11.8501 31.4967 11.3821 31.4727 10.7701L31.1487 2.23806H33.6867L34.0467 10.9501C34.0707 11.6461 34.0407 12.2761 33.9567 12.8401C33.8847 13.3921 33.6987 13.8661 33.3987 14.2621C33.1107 14.6581 32.6607 14.9641 32.0487 15.1801C31.4487 15.3961 30.6447 15.5041 29.6367 15.5041ZM36.4205 15.4141L36.0425 2.23806H38.5625L38.9405 15.4141H36.4205ZM49.7405 22.4881C49.5245 21.6481 49.3385 20.8621 49.1825 20.1301C49.0385 19.4101 48.9305 18.7561 48.8585 18.1681C48.7865 17.5921 48.7505 17.1001 48.7505 16.6921C48.7505 15.8521 48.8885 15.1501 49.1645 14.5861C49.4525 14.0221 49.8305 13.5721 50.2985 13.2361C50.7785 12.8881 51.3005 12.6421 51.8645 12.4981C52.4285 12.3421 52.9925 12.2641 53.5565 12.2641C54.1325 12.2641 54.6605 12.3121 55.1405 12.4081C55.1645 12.0361 55.1345 11.7001 55.0505 11.4001C54.9785 11.1001 54.8645 10.8421 54.7085 10.6261C54.5645 10.4101 54.3845 10.2421 54.1685 10.1221C53.9645 10.0021 53.7425 9.94206 53.5025 9.94206C53.2745 9.94206 53.0465 10.0021 52.8185 10.1221C52.5905 10.2301 52.3745 10.3921 52.1705 10.6081C51.9785 10.8241 51.7925 11.1001 51.6125 11.4361L49.6505 10.3561C49.9745 9.62406 50.3585 9.04806 50.8025 8.62806C51.2465 8.19606 51.7085 7.89006 52.1885 7.71006C52.6805 7.51806 53.1605 7.42206 53.6285 7.42206C54.3485 7.42206 54.9665 7.57806 55.4825 7.89006C56.0105 8.19006 56.4365 8.58606 56.7605 9.07806C57.0845 9.55806 57.3245 10.0741 57.4805 10.6261C57.6365 11.1781 57.7145 11.7061 57.7145 12.2101C57.7145 12.5941 57.6725 12.9781 57.5885 13.3621C57.5165 13.7341 57.4265 14.0701 57.3185 14.3701C57.2225 14.6701 57.1265 14.9041 57.0305 15.0721C56.3705 14.8921 55.7465 14.7601 55.1585 14.6761C54.5705 14.5921 54.0365 14.5681 53.5565 14.6041C53.0885 14.6281 52.6805 14.7241 52.3325 14.8921C51.9965 15.0481 51.7325 15.2821 51.5405 15.5941C51.3605 15.9061 51.2705 16.3021 51.2705 16.7821C51.2705 17.2261 51.3065 17.7301 51.3785 18.2941C51.4505 18.8701 51.5525 19.4641 51.6845 20.0761C51.8165 20.6881 51.9665 21.2941 52.1345 21.8941L49.7405 22.4881ZM64.0478 15.5041C62.9318 15.5041 62.0678 15.3901 61.4558 15.1621C60.8558 14.9341 60.4358 14.5801 60.1958 14.1001C59.9558 13.6081 59.8178 12.9901 59.7818 12.2461L59.4038 2.23806H61.9238L62.3018 11.0401C62.3258 11.5921 62.3858 12.0061 62.4818 12.2821C62.5778 12.5581 62.7578 12.7441 63.0218 12.8401C63.2978 12.9361 63.6998 12.9841 64.2278 12.9841C64.6838 12.9841 65.0078 13.1041 65.1998 13.3441C65.4038 13.5721 65.5058 13.8601 65.5058 14.2081C65.5058 14.5801 65.3798 14.8921 65.1278 15.1441C64.8758 15.3841 64.5158 15.5041 64.0478 15.5041ZM64.0723 15.5041L64.2523 12.9841C64.5523 12.9841 64.7803 12.9241 64.9363 12.8041C65.0923 12.6841 65.2483 12.4741 65.4043 12.1741C65.5603 11.8741 65.7763 11.4661 66.0523 10.9501C66.3523 10.3741 66.6643 9.89406 66.9883 9.51006C67.3123 9.11406 67.6363 8.80206 67.9603 8.57406C68.2963 8.33406 68.6263 8.16606 68.9503 8.07006C69.2863 7.96206 69.6163 7.90806 69.9403 7.90806C70.3843 7.90806 70.7983 8.00406 71.1823 8.19606C71.5783 8.37606 71.9563 8.69406 72.3163 9.15006C72.6763 9.59406 73.0183 10.2061 73.3423 10.9861C73.5703 11.5261 73.7983 11.9401 74.0263 12.2281C74.2543 12.5161 74.4883 12.7141 74.7283 12.8221C74.9803 12.9301 75.2323 12.9841 75.4843 12.9841C75.9403 12.9841 76.2643 13.1041 76.4563 13.3441C76.6483 13.5721 76.7443 13.8601 76.7443 14.2081C76.7443 14.5801 76.6183 14.8921 76.3663 15.1441C76.1143 15.3841 75.7603 15.5041 75.3043 15.5041C74.7163 15.5041 74.1823 15.4081 73.7023 15.2161C73.2223 15.0241 72.8443 14.7361 72.5683 14.3521L73.0903 13.9561C72.9823 14.2081 72.8203 14.4721 72.6043 14.7481C72.4003 15.0241 72.1303 15.2581 71.7943 15.4501C71.4703 15.6421 71.0803 15.7381 70.6243 15.7381C70.3243 15.7381 69.9703 15.6781 69.5623 15.5581C69.1663 15.4501 68.7523 15.2641 68.3203 15.0001C67.9003 14.7241 67.5103 14.3521 67.1503 13.8841C66.9223 14.3041 66.6703 14.6341 66.3943 14.8741C66.1183 15.1021 65.7943 15.2641 65.4223 15.3601C65.0503 15.4561 64.6003 15.5041 64.0723 15.5041ZM68.1943 11.7601C68.3143 11.9401 68.4583 12.1201 68.6263 12.3001C68.7943 12.4801 68.9803 12.6421 69.1843 12.7861C69.3883 12.9181 69.6043 13.0261 69.8323 13.1101C70.0723 13.1941 70.3063 13.2361 70.5343 13.2361C70.7743 13.2361 70.9723 13.1461 71.1283 12.9661C71.2843 12.7741 71.2903 12.4921 71.1463 12.1201C71.0863 11.9641 71.0023 11.7901 70.8943 11.5981C70.7983 11.3941 70.6843 11.2021 70.5523 11.0221C70.4323 10.8421 70.2943 10.6921 70.1383 10.5721C69.9943 10.4521 69.8443 10.3921 69.6883 10.3921C69.5323 10.3921 69.3703 10.4401 69.2023 10.5361C69.0343 10.6321 68.8663 10.7821 68.6983 10.9861C68.5303 11.1781 68.3623 11.4361 68.1943 11.7601ZM75.3047 15.5041L75.4847 12.9841C76.2047 12.9841 76.7567 12.9481 77.1407 12.8761C77.5247 12.8041 77.7887 12.6721 77.9327 12.4801C78.0887 12.2761 78.1667 11.9881 78.1667 11.6161C78.1667 11.2801 78.1187 10.8781 78.0227 10.4101C77.9387 9.94206 77.8247 9.45606 77.6807 8.95206C77.5487 8.44806 77.4047 7.98606 77.2487 7.56606L79.7327 6.88206C79.8887 7.29006 80.0387 7.76406 80.1827 8.30406C80.3267 8.84406 80.4467 9.40206 80.5427 9.97806C80.6387 10.5421 80.6867 11.0881 80.6867 11.6161C80.6867 12.4321 80.5547 13.0981 80.2907 13.6141C80.0267 14.1181 79.6547 14.5081 79.1747 14.7841C78.7067 15.0601 78.1427 15.2521 77.4827 15.3601C76.8227 15.4561 76.0967 15.5041 75.3047 15.5041ZM80.1827 5.42406C79.8347 5.42406 79.5347 5.30406 79.2827 5.06406C79.0427 4.81206 78.9227 4.51806 78.9227 4.18206C78.9227 3.83406 79.0427 3.53406 79.2827 3.28206C79.5347 3.03006 79.8347 2.90406 80.1827 2.90406C80.5187 2.90406 80.8067 3.03006 81.0467 3.28206C81.2867 3.53406 81.4067 3.83406 81.4067 4.18206C81.4067 4.51806 81.2867 4.81206 81.0467 5.06406C80.8067 5.30406 80.5187 5.42406 80.1827 5.42406ZM77.0687 5.40606C76.7207 5.40606 76.4207 5.28606 76.1687 5.04606C75.9287 4.79406 75.8087 4.50006 75.8087 4.16406C75.8087 3.81606 75.9287 3.51606 76.1687 3.26406C76.4207 3.01206 76.7207 2.88606 77.0687 2.88606C77.4047 2.88606 77.6927 3.01206 77.9327 3.26406C78.1727 3.51606 78.2927 3.81606 78.2927 4.16406C78.2927 4.50006 78.1727 4.79406 77.9327 5.04606C77.6927 5.28606 77.4047 5.40606 77.0687 5.40606ZM83.2134 15.4141L82.8354 2.23806H85.3554L85.7334 15.4141H83.2134Z" fill="white"/>
</svg>
