<svg width="16" height="19" viewBox="0 0 16 19" fill="none" xmlns="http://www.w3.org/2000/svg">
<path d="M5.55662 10.49C5.65662 10.49 7.97662 10.59 9.35662 10.25H9.36662C10.9566 9.86 13.1666 8.74 13.7366 5.08C13.7366 5.08 15.0066 0.5 8.70662 0.5H3.29662C2.80662 0.5 2.38662 0.86 2.30662 1.34L0.00662099 15.9C-0.043379 16.2 0.196621 16.48 0.496621 16.48H3.92662L4.76662 11.16C4.82662 10.78 5.15662 10.49 5.55662 10.49Z" fill="white"/>
<path d="M14.6165 5.79001C13.8065 9.52001 11.2565 11.49 7.19652 11.49H5.72652L4.69652 18.01C4.65652 18.27 4.85652 18.5 5.11652 18.5H7.01652C7.35652 18.5 7.65652 18.25 7.70652 17.91C7.78652 17.51 8.22652 14.59 8.31652 14.09C8.36652 13.75 8.66652 13.5 9.00652 13.5H9.44652C12.2665 13.5 14.4765 12.35 15.1265 9.04001C15.3865 7.70001 15.2465 6.60001 14.6165 5.79001Z" fill="white"/>
</svg>
