<svg width="368" height="252" viewBox="0 0 368 252" fill="none" xmlns="http://www.w3.org/2000/svg">
<rect width="368" height="252" rx="8"/>
<rect width="368" height="252" rx="8" fill="black" fill-opacity="0.3"/>
<circle cx="124" cy="227" r="10" fill="#D9D9D9"/>
<circle cx="164" cy="227" r="8.5" stroke="#D9D9D9" stroke-width="3"/>
<circle cx="204" cy="227" r="8.5" stroke="#D9D9D9" stroke-width="3"/>
<circle cx="244" cy="227" r="8.5" stroke="#D9D9D9" stroke-width="3"/>
<path d="M118.934 137C117.8 137 116.867 136.82 116.134 136.46C115.4 136.1 114.854 135.553 114.494 134.82C114.147 134.087 113.974 133.16 113.974 132.04C113.974 130.92 114.147 129.987 114.494 129.24C114.854 128.48 115.4 127.913 116.134 127.54C116.867 127.153 117.8 126.96 118.934 126.96H123.454V135.74H120.774V128.7L121.434 129.28H118.934C118.387 129.28 117.947 129.347 117.614 129.48C117.28 129.6 117.034 129.86 116.874 130.26C116.727 130.647 116.654 131.24 116.654 132.04C116.654 132.8 116.72 133.373 116.854 133.76C117 134.133 117.24 134.38 117.574 134.5C117.907 134.62 118.36 134.68 118.934 134.68H125.554V137H118.934ZM125.554 137V134.68C125.634 134.68 125.694 134.707 125.734 134.76C125.787 134.813 125.827 134.893 125.854 135C125.894 135.107 125.92 135.233 125.934 135.38C125.947 135.513 125.954 135.667 125.954 135.84C125.954 136.013 125.947 136.173 125.934 136.32C125.92 136.467 125.894 136.593 125.854 136.7C125.827 136.793 125.787 136.867 125.734 136.92C125.694 136.973 125.634 137 125.554 137ZM115.954 125.12V122.84H118.534V125.12H115.954ZM119.594 125.12V122.84H122.174V125.12H119.594ZM137.377 137V134.68H139.497V137H137.377ZM125.557 137C125.477 137 125.417 136.973 125.377 136.92C125.323 136.867 125.283 136.793 125.257 136.7C125.217 136.593 125.19 136.467 125.177 136.32C125.163 136.173 125.157 136.013 125.157 135.84C125.157 135.6 125.17 135.4 125.197 135.24C125.223 135.067 125.27 134.933 125.337 134.84C125.39 134.733 125.463 134.68 125.557 134.68V137ZM125.557 137V134.68H135.937L134.717 135.72V132.04C134.717 131.32 134.637 130.76 134.477 130.36C134.317 129.947 134.037 129.66 133.637 129.5C133.25 129.327 132.71 129.24 132.017 129.24C131.47 129.24 130.93 129.28 130.397 129.36C129.877 129.427 129.47 129.52 129.177 129.64L130.837 128.08C130.757 128.387 130.677 128.773 130.597 129.24C130.53 129.707 130.47 130.207 130.417 130.74C130.363 131.26 130.337 131.773 130.337 132.28C130.337 132.747 130.357 133.233 130.397 133.74C130.45 134.247 130.503 134.693 130.557 135.08C130.623 135.467 130.677 135.733 130.717 135.88L128.177 136.58C128.123 136.393 128.057 136.087 127.977 135.66C127.897 135.233 127.823 134.727 127.757 134.14C127.703 133.553 127.677 132.933 127.677 132.28C127.677 131.613 127.71 130.973 127.777 130.36C127.843 129.733 127.917 129.173 127.997 128.68C128.09 128.173 128.177 127.767 128.257 127.46C128.577 127.34 129.077 127.22 129.757 127.1C130.437 126.98 131.19 126.92 132.017 126.92C133.217 126.92 134.21 127.087 134.997 127.42C135.797 127.753 136.39 128.293 136.777 129.04C137.177 129.787 137.377 130.793 137.377 132.06V137H125.557ZM139.497 137V134.68C139.563 134.68 139.623 134.707 139.677 134.76C139.73 134.813 139.77 134.893 139.797 135C139.823 135.107 139.843 135.233 139.857 135.38C139.883 135.513 139.897 135.667 139.897 135.84C139.897 136.013 139.883 136.173 139.857 136.32C139.843 136.467 139.823 136.593 139.797 136.7C139.77 136.793 139.73 136.867 139.677 136.92C139.623 136.973 139.563 137 139.497 137ZM139.502 137V134.68H154.622L152.362 136.64V132.44C152.362 131.68 152.262 131.073 152.062 130.62C151.862 130.153 151.569 129.813 151.182 129.6C150.809 129.387 150.355 129.28 149.822 129.28C149.249 129.28 148.702 129.393 148.182 129.62C147.675 129.847 147.202 130.14 146.762 130.5C146.322 130.86 145.915 131.247 145.542 131.66C145.169 132.073 144.835 132.473 144.542 132.86C144.249 133.233 143.995 133.553 143.782 133.82L143.182 131.88C143.702 131.253 144.169 130.68 144.582 130.16C144.995 129.64 145.389 129.18 145.762 128.78C146.149 128.38 146.549 128.047 146.962 127.78C147.389 127.513 147.849 127.313 148.342 127.18C148.849 127.033 149.435 126.96 150.102 126.96C150.995 126.96 151.755 127.113 152.382 127.42C153.009 127.713 153.515 128.12 153.902 128.64C154.302 129.16 154.589 129.747 154.762 130.4C154.949 131.053 155.042 131.733 155.042 132.44V137H139.502ZM142.022 134.68V126.96H144.702V134.68H142.022ZM139.502 137C139.422 137 139.362 136.973 139.322 136.92C139.269 136.867 139.229 136.793 139.202 136.7C139.162 136.593 139.135 136.467 139.122 136.32C139.109 136.173 139.102 136.013 139.102 135.84C139.102 135.6 139.115 135.4 139.142 135.24C139.169 135.067 139.215 134.933 139.282 134.84C139.335 134.733 139.409 134.68 139.502 134.68V137ZM160.876 137V134.68H163.156V137H160.876ZM158.216 137V122.86H160.876V137H158.216ZM163.156 137V134.68C163.236 134.68 163.296 134.707 163.336 134.76C163.389 134.813 163.429 134.893 163.456 135C163.496 135.107 163.523 135.233 163.536 135.38C163.549 135.513 163.556 135.667 163.556 135.84C163.556 136.013 163.549 136.173 163.536 136.32C163.523 136.467 163.496 136.593 163.456 136.7C163.429 136.793 163.389 136.867 163.336 136.92C163.296 136.973 163.236 137 163.156 137ZM163.154 137V134.68H167.394C167.968 134.68 168.521 134.573 169.054 134.36C169.588 134.133 170.074 133.84 170.514 133.48C170.968 133.107 171.361 132.7 171.694 132.26C172.041 131.807 172.308 131.347 172.494 130.88C172.694 130.413 172.794 129.973 172.794 129.56V128.28L174.074 130.4C173.381 130.027 172.674 129.747 171.954 129.56C171.234 129.373 170.548 129.28 169.894 129.28C169.254 129.28 168.568 129.373 167.834 129.56C167.114 129.747 166.414 130.027 165.734 130.4L167.014 128.28V129.56C167.014 129.973 167.108 130.413 167.294 130.88C167.494 131.347 167.761 131.807 168.094 132.26C168.428 132.7 168.821 133.107 169.274 133.48C169.728 133.84 170.221 134.133 170.754 134.36C171.288 134.573 171.834 134.68 172.394 134.68H176.514V137H173.234C172.194 137 171.221 136.833 170.314 136.5C169.408 136.167 168.588 135.727 167.854 135.18C167.121 134.62 166.488 134.013 165.954 133.36C165.434 132.693 165.034 132.033 164.754 131.38C164.474 130.713 164.334 130.107 164.334 129.56V128.42C164.908 128.1 165.514 127.833 166.154 127.62C166.808 127.407 167.454 127.247 168.094 127.14C168.748 127.02 169.348 126.96 169.894 126.96C170.454 126.96 171.054 127.02 171.694 127.14C172.334 127.247 172.974 127.407 173.614 127.62C174.268 127.833 174.881 128.1 175.454 128.42V129.56C175.454 130.107 175.314 130.713 175.034 131.38C174.754 132.033 174.348 132.693 173.814 133.36C173.294 134.013 172.668 134.62 171.934 135.18C171.201 135.727 170.381 136.167 169.474 136.5C168.568 136.833 167.594 137 166.554 137H163.154ZM163.154 137C163.074 137 163.014 136.973 162.974 136.92C162.921 136.867 162.881 136.793 162.854 136.7C162.814 136.593 162.788 136.467 162.774 136.32C162.761 136.173 162.754 136.013 162.754 135.84C162.754 135.6 162.768 135.4 162.794 135.24C162.821 135.067 162.868 134.933 162.934 134.84C162.988 134.733 163.061 134.68 163.154 134.68V137ZM176.514 137V134.68C176.594 134.68 176.661 134.707 176.714 134.76C176.768 134.813 176.808 134.893 176.834 135C176.861 135.107 176.881 135.233 176.894 135.38C176.908 135.513 176.914 135.667 176.914 135.84C176.914 136.013 176.908 136.173 176.894 136.32C176.881 136.467 176.861 136.593 176.834 136.7C176.808 136.793 176.768 136.867 176.714 136.92C176.661 136.973 176.594 137 176.514 137ZM178.774 137V122.86H181.454V137H178.774ZM176.514 137V134.68H178.774V137H176.514ZM176.514 137C176.434 137 176.374 136.973 176.334 136.92C176.28 136.867 176.24 136.793 176.214 136.7C176.174 136.593 176.147 136.467 176.134 136.32C176.12 136.173 176.114 136.013 176.114 135.84C176.114 135.6 176.127 135.4 176.154 135.24C176.18 135.067 176.227 134.933 176.294 134.84C176.347 134.733 176.42 134.68 176.514 134.68V137ZM184.661 137V122.86H187.321V137H184.661ZM199.246 137C198.113 137 197.18 136.82 196.446 136.46C195.713 136.1 195.166 135.553 194.806 134.82C194.46 134.087 194.286 133.16 194.286 132.04C194.286 130.92 194.46 129.987 194.806 129.24C195.166 128.48 195.713 127.913 196.446 127.54C197.18 127.153 198.113 126.96 199.246 126.96H203.766V135.74H201.086V128.7L201.746 129.28H199.246C198.7 129.28 198.26 129.347 197.926 129.48C197.593 129.6 197.346 129.86 197.186 130.26C197.04 130.647 196.966 131.24 196.966 132.04C196.966 132.8 197.033 133.373 197.166 133.76C197.313 134.133 197.553 134.38 197.886 134.5C198.22 134.62 198.673 134.68 199.246 134.68H205.866V137H199.246ZM205.866 137V134.68C205.946 134.68 206.006 134.707 206.046 134.76C206.1 134.813 206.14 134.893 206.166 135C206.206 135.107 206.233 135.233 206.246 135.38C206.26 135.513 206.266 135.667 206.266 135.84C206.266 136.013 206.26 136.173 206.246 136.32C206.233 136.467 206.206 136.593 206.166 136.7C206.14 136.793 206.1 136.867 206.046 136.92C206.006 136.973 205.946 137 205.866 137ZM211.709 137V134.68H214.209V137H211.709ZM214.209 137V134.68C214.276 134.68 214.336 134.707 214.389 134.76C214.442 134.813 214.482 134.893 214.509 135C214.536 135.107 214.556 135.233 214.569 135.38C214.596 135.513 214.609 135.667 214.609 135.84C214.609 136.013 214.596 136.173 214.569 136.32C214.556 136.467 214.536 136.593 214.509 136.7C214.482 136.793 214.442 136.867 214.389 136.92C214.349 136.973 214.289 137 214.209 137ZM205.869 137C205.789 137 205.729 136.973 205.689 136.92C205.636 136.867 205.596 136.793 205.569 136.7C205.529 136.593 205.502 136.467 205.489 136.32C205.476 136.173 205.469 136.013 205.469 135.84C205.469 135.6 205.482 135.4 205.509 135.24C205.536 135.067 205.582 134.933 205.649 134.84C205.702 134.733 205.776 134.68 205.869 134.68V137ZM205.869 137V134.68H210.609L209.049 135.98V126.96H211.709V137H205.869ZM206.589 141.26V138.98H209.169V141.26H206.589ZM210.229 141.26V138.98H212.809V141.26H210.229ZM216.469 137V122.86H219.149V137H216.469ZM214.209 137V134.68H216.469V137H214.209ZM214.209 137C214.129 137 214.069 136.973 214.029 136.92C213.976 136.867 213.936 136.793 213.909 136.7C213.869 136.593 213.842 136.467 213.829 136.32C213.816 136.173 213.809 136.013 213.809 135.84C213.809 135.6 213.822 135.4 213.849 135.24C213.876 135.067 213.922 134.933 213.989 134.84C214.042 134.733 214.116 134.68 214.209 134.68V137ZM229.477 137V134.68H231.577V137H229.477ZM221.357 137V134.68H228.617L226.797 136.26V132.9C226.797 131.953 226.697 131.22 226.497 130.7C226.31 130.18 225.99 129.813 225.537 129.6C225.097 129.387 224.49 129.28 223.717 129.28H222.097V126.96H223.717C224.943 126.96 225.983 127.16 226.837 127.56C227.703 127.96 228.357 128.6 228.797 129.48C229.25 130.347 229.477 131.487 229.477 132.9V137H221.357ZM231.577 137V134.68C231.657 134.68 231.723 134.707 231.777 134.76C231.83 134.813 231.87 134.893 231.897 135C231.923 135.107 231.943 135.233 231.957 135.38C231.97 135.513 231.977 135.667 231.977 135.84C231.977 136.013 231.97 136.173 231.957 136.32C231.943 136.467 231.923 136.593 231.897 136.7C231.87 136.793 231.83 136.867 231.777 136.92C231.723 136.973 231.657 137 231.577 137ZM237.412 137V134.68H239.912V137H237.412ZM239.912 137V134.68C239.979 134.68 240.039 134.707 240.092 134.76C240.146 134.813 240.186 134.893 240.212 135C240.239 135.107 240.259 135.233 240.272 135.38C240.299 135.513 240.312 135.667 240.312 135.84C240.312 136.013 240.299 136.173 240.272 136.32C240.259 136.467 240.239 136.593 240.212 136.7C240.186 136.793 240.146 136.867 240.092 136.92C240.052 136.973 239.992 137 239.912 137ZM231.572 137C231.492 137 231.432 136.973 231.392 136.92C231.339 136.867 231.299 136.793 231.272 136.7C231.232 136.593 231.206 136.467 231.192 136.32C231.179 136.173 231.172 136.013 231.172 135.84C231.172 135.6 231.186 135.4 231.212 135.24C231.239 135.067 231.286 134.933 231.352 134.84C231.406 134.733 231.479 134.68 231.572 134.68V137ZM231.572 137V134.68H236.312L234.752 135.98V126.96H237.412V137H231.572ZM232.292 141.26V138.98H234.872V141.26H232.292ZM235.932 141.26V138.98H238.512V141.26H235.932ZM239.912 137V134.68H255.032L252.772 136.64V132.44C252.772 131.68 252.672 131.073 252.472 130.62C252.272 130.153 251.979 129.813 251.592 129.6C251.219 129.387 250.765 129.28 250.232 129.28C249.659 129.28 249.112 129.393 248.592 129.62C248.085 129.847 247.612 130.14 247.172 130.5C246.732 130.86 246.325 131.247 245.952 131.66C245.579 132.073 245.245 132.473 244.952 132.86C244.659 133.233 244.405 133.553 244.192 133.82L243.592 131.88C244.112 131.253 244.579 130.68 244.992 130.16C245.405 129.64 245.799 129.18 246.172 128.78C246.559 128.38 246.959 128.047 247.372 127.78C247.799 127.513 248.259 127.313 248.752 127.18C249.259 127.033 249.845 126.96 250.512 126.96C251.405 126.96 252.165 127.113 252.792 127.42C253.419 127.713 253.925 128.12 254.312 128.64C254.712 129.16 254.999 129.747 255.172 130.4C255.359 131.053 255.452 131.733 255.452 132.44V137H239.912ZM242.432 134.68V126.96H245.112V134.68H242.432ZM239.912 137C239.832 137 239.772 136.973 239.732 136.92C239.679 136.867 239.639 136.793 239.612 136.7C239.572 136.593 239.545 136.467 239.532 136.32C239.519 136.173 239.512 136.013 239.512 135.84C239.512 135.6 239.525 135.4 239.552 135.24C239.579 135.067 239.625 134.933 239.692 134.84C239.745 134.733 239.819 134.68 239.912 134.68V137Z" fill="#F9F3E4"/>
</svg>
