<svg width="368" height="252" viewBox="0 0 368 252" fill="none" xmlns="http://www.w3.org/2000/svg">
<rect width="368" height="252" rx="8"/>
<rect width="368" height="252" rx="8" fill="black" fill-opacity="0.3"/>
<circle cx="124" cy="227" r="8.5" stroke="#D9D9D9" stroke-width="3"/>
<circle cx="164" cy="227" r="8.5" stroke="#D9D9D9" stroke-width="3"/>
<circle cx="204" cy="227" r="8.5" stroke="#D9D9D9" stroke-width="3"/>
<circle cx="244" cy="227" r="10" fill="#D9D9D9"/>
<path d="M133.18 137V134.68H135.28V137H133.18ZM125.06 137V134.68H132.32L130.5 136.26V132.9C130.5 131.953 130.4 131.22 130.2 130.7C130.013 130.18 129.693 129.813 129.24 129.6C128.8 129.387 128.193 129.28 127.42 129.28H125.8V126.96H127.42C128.646 126.96 129.686 127.16 130.54 127.56C131.406 127.96 132.06 128.6 132.5 129.48C132.953 130.347 133.18 131.487 133.18 132.9V137H125.06ZM135.28 137V134.68C135.36 134.68 135.426 134.707 135.48 134.76C135.533 134.813 135.573 134.893 135.6 135C135.626 135.107 135.646 135.233 135.66 135.38C135.673 135.513 135.68 135.667 135.68 135.84C135.68 136.013 135.673 136.173 135.66 136.32C135.646 136.467 135.626 136.593 135.6 136.7C135.573 136.793 135.533 136.867 135.48 136.92C135.426 136.973 135.36 137 135.28 137ZM137.535 137V122.86H140.215V137H137.535ZM135.275 137V134.68H137.535V137H135.275ZM135.275 137C135.195 137 135.135 136.973 135.095 136.92C135.042 136.867 135.002 136.793 134.975 136.7C134.935 136.593 134.909 136.467 134.895 136.32C134.882 136.173 134.875 136.013 134.875 135.84C134.875 135.6 134.889 135.4 134.915 135.24C134.942 135.067 134.989 134.933 135.055 134.84C135.109 134.733 135.182 134.68 135.275 134.68V137ZM146.083 137V134.68H148.363V137H146.083ZM143.423 137V122.86H146.083V137H143.423ZM148.363 137V134.68C148.443 134.68 148.503 134.707 148.543 134.76C148.596 134.813 148.636 134.893 148.663 135C148.703 135.107 148.73 135.233 148.743 135.38C148.756 135.513 148.763 135.667 148.763 135.84C148.763 136.013 148.756 136.173 148.743 136.32C148.73 136.467 148.703 136.593 148.663 136.7C148.636 136.793 148.596 136.867 148.543 136.92C148.503 136.973 148.443 137 148.363 137ZM148.361 137V134.68H156.961L156.061 135.42V131.72C156.061 130.92 155.808 130.313 155.301 129.9C154.808 129.487 154.021 129.28 152.941 129.28C152.635 129.28 152.215 129.307 151.681 129.36C151.148 129.4 150.568 129.467 149.941 129.56L149.681 127.44C150.255 127.307 150.835 127.193 151.421 127.1C152.021 127.007 152.608 126.96 153.181 126.96C154.275 126.96 155.235 127.153 156.061 127.54C156.888 127.913 157.535 128.453 158.001 129.16C158.481 129.867 158.721 130.72 158.721 131.72V137H148.361ZM148.361 137C148.281 137 148.221 136.973 148.181 136.92C148.128 136.867 148.088 136.793 148.061 136.7C148.021 136.593 147.995 136.467 147.981 136.32C147.968 136.173 147.961 136.013 147.961 135.84C147.961 135.6 147.975 135.4 148.001 135.24C148.028 135.067 148.075 134.933 148.141 134.84C148.195 134.733 148.268 134.68 148.361 134.68V137ZM151.821 125.38V123.1H154.501V125.38H151.821ZM165.319 137V134.04H168.099V137H165.319ZM169.923 137V134.68H177.183L175.363 136.26V132.9C175.363 131.953 175.263 131.22 175.063 130.7C174.876 130.18 174.556 129.813 174.103 129.6C173.663 129.387 173.056 129.28 172.283 129.28H170.663V126.96H172.283C173.51 126.96 174.55 127.16 175.403 127.56C176.27 127.96 176.923 128.6 177.363 129.48C177.816 130.347 178.043 131.487 178.043 132.9V137H169.923ZM189.16 137C188.027 137 187.094 136.82 186.36 136.46C185.627 136.1 185.08 135.553 184.72 134.82C184.374 134.087 184.2 133.16 184.2 132.04C184.2 130.92 184.374 129.987 184.72 129.24C185.08 128.48 185.627 127.913 186.36 127.54C187.094 127.153 188.027 126.96 189.16 126.96H193.68V135.74H191V128.7L191.66 129.28H189.16C188.614 129.28 188.174 129.347 187.84 129.48C187.507 129.6 187.26 129.86 187.1 130.26C186.954 130.647 186.88 131.24 186.88 132.04C186.88 132.8 186.947 133.373 187.08 133.76C187.227 134.133 187.467 134.38 187.8 134.5C188.134 134.62 188.587 134.68 189.16 134.68H195.78V137H189.16ZM195.78 137V134.68C195.86 134.68 195.92 134.707 195.96 134.76C196.014 134.813 196.054 134.893 196.08 135C196.12 135.107 196.147 135.233 196.16 135.38C196.174 135.513 196.18 135.667 196.18 135.84C196.18 136.013 196.174 136.173 196.16 136.32C196.147 136.467 196.12 136.593 196.08 136.7C196.054 136.793 196.014 136.867 195.96 136.92C195.92 136.973 195.86 137 195.78 137ZM201.623 137V134.68H204.123V137H201.623ZM204.123 137V134.68C204.19 134.68 204.25 134.707 204.303 134.76C204.357 134.813 204.397 134.893 204.423 135C204.45 135.107 204.47 135.233 204.483 135.38C204.51 135.513 204.523 135.667 204.523 135.84C204.523 136.013 204.51 136.173 204.483 136.32C204.47 136.467 204.45 136.593 204.423 136.7C204.397 136.793 204.357 136.867 204.303 136.92C204.263 136.973 204.203 137 204.123 137ZM195.783 137C195.703 137 195.643 136.973 195.603 136.92C195.55 136.867 195.51 136.793 195.483 136.7C195.443 136.593 195.417 136.467 195.403 136.32C195.39 136.173 195.383 136.013 195.383 135.84C195.383 135.6 195.397 135.4 195.423 135.24C195.45 135.067 195.497 134.933 195.563 134.84C195.617 134.733 195.69 134.68 195.783 134.68V137ZM195.783 137V134.68H200.523L198.963 135.98V126.96H201.623V137H195.783ZM196.503 141.26V138.98H199.083V141.26H196.503ZM200.143 141.26V138.98H202.723V141.26H200.143ZM206.383 137V122.86H209.063V137H206.383ZM204.123 137V134.68H206.383V137H204.123ZM204.123 137C204.043 137 203.983 136.973 203.943 136.92C203.89 136.867 203.85 136.793 203.823 136.7C203.783 136.593 203.756 136.467 203.743 136.32C203.73 136.173 203.723 136.013 203.723 135.84C203.723 135.6 203.736 135.4 203.763 135.24C203.79 135.067 203.836 134.933 203.903 134.84C203.956 134.733 204.03 134.68 204.123 134.68V137ZM219.391 137V134.68H221.491V137H219.391ZM211.271 137V134.68H218.531L216.711 136.26V132.9C216.711 131.953 216.611 131.22 216.411 130.7C216.224 130.18 215.904 129.813 215.451 129.6C215.011 129.387 214.404 129.28 213.631 129.28H212.011V126.96H213.631C214.857 126.96 215.897 127.16 216.751 127.56C217.617 127.96 218.271 128.6 218.711 129.48C219.164 130.347 219.391 131.487 219.391 132.9V137H211.271ZM221.491 137V134.68C221.571 134.68 221.637 134.707 221.691 134.76C221.744 134.813 221.784 134.893 221.811 135C221.837 135.107 221.857 135.233 221.871 135.38C221.884 135.513 221.891 135.667 221.891 135.84C221.891 136.013 221.884 136.173 221.871 136.32C221.857 136.467 221.837 136.593 221.811 136.7C221.784 136.793 221.744 136.867 221.691 136.92C221.637 136.973 221.571 137 221.491 137ZM227.326 137V134.68H229.826V137H227.326ZM229.826 137V134.68C229.893 134.68 229.953 134.707 230.006 134.76C230.06 134.813 230.1 134.893 230.126 135C230.153 135.107 230.173 135.233 230.186 135.38C230.213 135.513 230.226 135.667 230.226 135.84C230.226 136.013 230.213 136.173 230.186 136.32C230.173 136.467 230.153 136.593 230.126 136.7C230.1 136.793 230.06 136.867 230.006 136.92C229.966 136.973 229.906 137 229.826 137ZM221.486 137C221.406 137 221.346 136.973 221.306 136.92C221.253 136.867 221.213 136.793 221.186 136.7C221.146 136.593 221.12 136.467 221.106 136.32C221.093 136.173 221.086 136.013 221.086 135.84C221.086 135.6 221.1 135.4 221.126 135.24C221.153 135.067 221.2 134.933 221.266 134.84C221.32 134.733 221.393 134.68 221.486 134.68V137ZM221.486 137V134.68H226.226L224.666 135.98V126.96H227.326V137H221.486ZM222.206 141.26V138.98H224.786V141.26H222.206ZM225.846 141.26V138.98H228.426V141.26H225.846ZM229.826 137V134.68H244.946L242.686 136.64V132.44C242.686 131.68 242.586 131.073 242.386 130.62C242.186 130.153 241.893 129.813 241.506 129.6C241.133 129.387 240.68 129.28 240.146 129.28C239.573 129.28 239.026 129.393 238.506 129.62C238 129.847 237.526 130.14 237.086 130.5C236.646 130.86 236.24 131.247 235.866 131.66C235.493 132.073 235.16 132.473 234.866 132.86C234.573 133.233 234.32 133.553 234.106 133.82L233.506 131.88C234.026 131.253 234.493 130.68 234.906 130.16C235.32 129.64 235.713 129.18 236.086 128.78C236.473 128.38 236.873 128.047 237.286 127.78C237.713 127.513 238.173 127.313 238.666 127.18C239.173 127.033 239.76 126.96 240.426 126.96C241.32 126.96 242.08 127.113 242.706 127.42C243.333 127.713 243.84 128.12 244.226 128.64C244.626 129.16 244.913 129.747 245.086 130.4C245.273 131.053 245.366 131.733 245.366 132.44V137H229.826ZM232.346 134.68V126.96H235.026V134.68H232.346ZM229.826 137C229.746 137 229.686 136.973 229.646 136.92C229.593 136.867 229.553 136.793 229.526 136.7C229.486 136.593 229.46 136.467 229.446 136.32C229.433 136.173 229.426 136.013 229.426 135.84C229.426 135.6 229.44 135.4 229.466 135.24C229.493 135.067 229.54 134.933 229.606 134.84C229.66 134.733 229.733 134.68 229.826 134.68V137Z" fill="#F9F3E4"/>
</svg>
