<svg width="368" height="252" viewBox="0 0 368 252" fill="none" xmlns="http://www.w3.org/2000/svg">
<rect width="368" height="252" rx="8"/>
<rect width="368" height="252" rx="8" fill="black" fill-opacity="0.3"/>
<circle cx="124" cy="227" r="8.5" stroke="#D9D9D9" stroke-width="3"/>
<circle cx="164" cy="227" r="10" fill="#D9D9D9"/>
<circle cx="204" cy="227" r="8.5" stroke="#D9D9D9" stroke-width="3"/>
<circle cx="244" cy="227" r="8.5" stroke="#D9D9D9" stroke-width="3"/>
<path d="M130.8 137V132.46C130.8 131.14 131.007 130.08 131.42 129.28C131.833 128.467 132.447 127.88 133.26 127.52C134.073 127.147 135.073 126.96 136.26 126.96C137.46 126.96 138.467 127.147 139.28 127.52C140.093 127.88 140.707 128.467 141.12 129.28C141.533 130.08 141.74 131.14 141.74 132.46V137H130.8ZM133.48 135.88L132.2 134.68H140.34L139.08 135.88V132.52C139.08 131.72 139 131.087 138.84 130.62C138.68 130.14 138.393 129.8 137.98 129.6C137.58 129.387 137.007 129.28 136.26 129.28C135.527 129.28 134.953 129.387 134.54 129.6C134.14 129.8 133.86 130.14 133.7 130.62C133.553 131.087 133.48 131.72 133.48 132.52V135.88ZM133.16 125.12V122.84H135.74V125.12H133.16ZM136.8 125.12V122.84H139.38V125.12H136.8ZM147.179 137V134.68H149.759V137H147.179ZM143.299 141.96C143.126 141.96 142.939 141.953 142.739 141.94C142.539 141.927 142.332 141.907 142.119 141.88L142.219 139.6C142.432 139.613 142.632 139.627 142.819 139.64C143.019 139.653 143.166 139.66 143.259 139.66C143.779 139.66 144.192 139.453 144.499 139.04C144.819 138.627 144.979 138.047 144.979 137.3V126.96H147.659V137.3C147.659 138.207 147.472 139.013 147.099 139.72C146.739 140.427 146.232 140.973 145.579 141.36C144.926 141.76 144.166 141.96 143.299 141.96ZM149.759 137V134.68C149.839 134.68 149.899 134.707 149.939 134.76C149.992 134.813 150.032 134.893 150.059 135C150.099 135.107 150.126 135.233 150.139 135.38C150.152 135.513 150.159 135.667 150.159 135.84C150.159 136.013 150.152 136.173 150.139 136.32C150.126 136.467 150.099 136.593 150.059 136.7C150.032 136.793 149.992 136.867 149.939 136.92C149.899 136.973 149.839 137 149.759 137ZM149.766 137V134.68H163.646L161.786 136.18V132.76C161.786 131.613 161.632 130.693 161.326 130C161.032 129.307 160.559 128.807 159.906 128.5C159.266 128.18 158.432 128.02 157.406 128.02C156.912 128.02 156.372 128.04 155.786 128.08C155.199 128.107 154.612 128.147 154.026 128.2C153.452 128.24 152.932 128.287 152.466 128.34L152.186 126.54C152.639 126.42 153.166 126.293 153.766 126.16C154.366 126.027 154.992 125.913 155.646 125.82C156.312 125.727 156.959 125.68 157.586 125.68C158.452 125.68 159.292 125.8 160.106 126.04C160.932 126.267 161.672 126.653 162.326 127.2C162.979 127.733 163.499 128.453 163.886 129.36C164.272 130.267 164.466 131.4 164.466 132.76V137H149.766ZM151.826 134.68V133.68C151.826 133.04 151.986 132.447 152.306 131.9C152.639 131.34 153.092 130.9 153.666 130.58C154.239 130.247 154.879 130.08 155.586 130.08C156.292 130.08 156.926 130.247 157.486 130.58C158.046 130.9 158.486 131.333 158.806 131.88C159.139 132.427 159.306 133.027 159.306 133.68V134.68H157.186V133.68C157.186 133.347 157.112 133.053 156.966 132.8C156.819 132.533 156.626 132.32 156.386 132.16C156.146 132 155.879 131.92 155.586 131.92C155.292 131.92 155.019 132 154.766 132.16C154.526 132.32 154.332 132.533 154.186 132.8C154.039 133.053 153.966 133.347 153.966 133.68V134.68H151.826ZM149.766 137C149.686 137 149.626 136.973 149.586 136.92C149.532 136.867 149.492 136.793 149.466 136.7C149.426 136.593 149.399 136.467 149.386 136.32C149.372 136.173 149.366 136.013 149.366 135.84C149.366 135.6 149.379 135.4 149.406 135.24C149.432 135.067 149.479 134.933 149.546 134.84C149.599 134.733 149.672 134.68 149.766 134.68V137ZM166.6 141.96C166.427 141.96 166.24 141.953 166.04 141.94C165.84 141.927 165.633 141.907 165.42 141.88L165.52 139.6C165.733 139.613 165.933 139.627 166.12 139.64C166.32 139.653 166.467 139.66 166.56 139.66C167.08 139.66 167.493 139.453 167.8 139.04C168.12 138.627 168.28 138.047 168.28 137.3V126.96H170.96V137.3C170.96 138.207 170.773 139.013 170.4 139.72C170.04 140.427 169.533 140.973 168.88 141.36C168.227 141.76 167.467 141.96 166.6 141.96ZM168.28 125.12V122.84H170.96V125.12H168.28ZM182.42 137C181.287 137 180.353 136.82 179.62 136.46C178.887 136.1 178.34 135.553 177.98 134.82C177.633 134.087 177.46 133.16 177.46 132.04C177.46 130.92 177.633 129.987 177.98 129.24C178.34 128.48 178.887 127.913 179.62 127.54C180.353 127.153 181.287 126.96 182.42 126.96H186.94V135.74H184.26V128.7L184.92 129.28H182.42C181.873 129.28 181.433 129.347 181.1 129.48C180.767 129.6 180.52 129.86 180.36 130.26C180.213 130.647 180.14 131.24 180.14 132.04C180.14 132.8 180.207 133.373 180.34 133.76C180.487 134.133 180.727 134.38 181.06 134.5C181.393 134.62 181.847 134.68 182.42 134.68H189.04V137H182.42ZM189.04 137V134.68C189.12 134.68 189.18 134.707 189.22 134.76C189.273 134.813 189.313 134.893 189.34 135C189.38 135.107 189.407 135.233 189.42 135.38C189.433 135.513 189.44 135.667 189.44 135.84C189.44 136.013 189.433 136.173 189.42 136.32C189.407 136.467 189.38 136.593 189.34 136.7C189.313 136.793 189.273 136.867 189.22 136.92C189.18 136.973 189.12 137 189.04 137ZM194.883 137V134.68H197.383V137H194.883ZM197.383 137V134.68C197.45 134.68 197.51 134.707 197.563 134.76C197.616 134.813 197.656 134.893 197.683 135C197.71 135.107 197.73 135.233 197.743 135.38C197.77 135.513 197.783 135.667 197.783 135.84C197.783 136.013 197.77 136.173 197.743 136.32C197.73 136.467 197.71 136.593 197.683 136.7C197.656 136.793 197.616 136.867 197.563 136.92C197.523 136.973 197.463 137 197.383 137ZM189.043 137C188.963 137 188.903 136.973 188.863 136.92C188.81 136.867 188.77 136.793 188.743 136.7C188.703 136.593 188.676 136.467 188.663 136.32C188.65 136.173 188.643 136.013 188.643 135.84C188.643 135.6 188.656 135.4 188.683 135.24C188.71 135.067 188.756 134.933 188.823 134.84C188.876 134.733 188.95 134.68 189.043 134.68V137ZM189.043 137V134.68H193.783L192.223 135.98V126.96H194.883V137H189.043ZM189.763 141.26V138.98H192.343V141.26H189.763ZM193.403 141.26V138.98H195.983V141.26H193.403ZM199.643 137V122.86H202.323V137H199.643ZM197.383 137V134.68H199.643V137H197.383ZM197.383 137C197.303 137 197.243 136.973 197.203 136.92C197.149 136.867 197.109 136.793 197.083 136.7C197.043 136.593 197.016 136.467 197.003 136.32C196.989 136.173 196.983 136.013 196.983 135.84C196.983 135.6 196.996 135.4 197.023 135.24C197.049 135.067 197.096 134.933 197.163 134.84C197.216 134.733 197.289 134.68 197.383 134.68V137ZM212.65 137V134.68H214.75V137H212.65ZM204.53 137V134.68H211.79L209.97 136.26V132.9C209.97 131.953 209.87 131.22 209.67 130.7C209.484 130.18 209.164 129.813 208.71 129.6C208.27 129.387 207.664 129.28 206.89 129.28H205.27V126.96H206.89C208.117 126.96 209.157 127.16 210.01 127.56C210.877 127.96 211.53 128.6 211.97 129.48C212.424 130.347 212.65 131.487 212.65 132.9V137H204.53ZM214.75 137V134.68C214.83 134.68 214.897 134.707 214.95 134.76C215.004 134.813 215.044 134.893 215.07 135C215.097 135.107 215.117 135.233 215.13 135.38C215.144 135.513 215.15 135.667 215.15 135.84C215.15 136.013 215.144 136.173 215.13 136.32C215.117 136.467 215.097 136.593 215.07 136.7C215.044 136.793 215.004 136.867 214.95 136.92C214.897 136.973 214.83 137 214.75 137ZM220.586 137V134.68H223.086V137H220.586ZM223.086 137V134.68C223.153 134.68 223.213 134.707 223.266 134.76C223.319 134.813 223.359 134.893 223.386 135C223.413 135.107 223.433 135.233 223.446 135.38C223.473 135.513 223.486 135.667 223.486 135.84C223.486 136.013 223.473 136.173 223.446 136.32C223.433 136.467 223.413 136.593 223.386 136.7C223.359 136.793 223.319 136.867 223.266 136.92C223.226 136.973 223.166 137 223.086 137ZM214.746 137C214.666 137 214.606 136.973 214.566 136.92C214.513 136.867 214.473 136.793 214.446 136.7C214.406 136.593 214.379 136.467 214.366 136.32C214.353 136.173 214.346 136.013 214.346 135.84C214.346 135.6 214.359 135.4 214.386 135.24C214.413 135.067 214.459 134.933 214.526 134.84C214.579 134.733 214.653 134.68 214.746 134.68V137ZM214.746 137V134.68H219.486L217.926 135.98V126.96H220.586V137H214.746ZM215.466 141.26V138.98H218.046V141.26H215.466ZM219.106 141.26V138.98H221.686V141.26H219.106ZM223.086 137V134.68H238.206L235.946 136.64V132.44C235.946 131.68 235.846 131.073 235.646 130.62C235.446 130.153 235.153 129.813 234.766 129.6C234.393 129.387 233.939 129.28 233.406 129.28C232.833 129.28 232.286 129.393 231.766 129.62C231.259 129.847 230.786 130.14 230.346 130.5C229.906 130.86 229.499 131.247 229.126 131.66C228.753 132.073 228.419 132.473 228.126 132.86C227.833 133.233 227.579 133.553 227.366 133.82L226.766 131.88C227.286 131.253 227.753 130.68 228.166 130.16C228.579 129.64 228.973 129.18 229.346 128.78C229.733 128.38 230.133 128.047 230.546 127.78C230.973 127.513 231.433 127.313 231.926 127.18C232.433 127.033 233.019 126.96 233.686 126.96C234.579 126.96 235.339 127.113 235.966 127.42C236.593 127.713 237.099 128.12 237.486 128.64C237.886 129.16 238.173 129.747 238.346 130.4C238.533 131.053 238.626 131.733 238.626 132.44V137H223.086ZM225.606 134.68V126.96H228.286V134.68H225.606ZM223.086 137C223.006 137 222.946 136.973 222.906 136.92C222.853 136.867 222.813 136.793 222.786 136.7C222.746 136.593 222.719 136.467 222.706 136.32C222.693 136.173 222.686 136.013 222.686 135.84C222.686 135.6 222.699 135.4 222.726 135.24C222.753 135.067 222.799 134.933 222.866 134.84C222.919 134.733 222.993 134.68 223.086 134.68V137Z" fill="#F9F3E4"/>
</svg>
