<svg width="368" height="252" viewBox="0 0 368 252" fill="none" xmlns="http://www.w3.org/2000/svg">
<rect width="368" height="252" rx="8"/>
<rect width="368" height="252" rx="8" fill="black" fill-opacity="0.3"/>
<circle cx="124" cy="227" r="8.5" stroke="#D9D9D9" stroke-width="3"/>
<circle cx="164" cy="227" r="8.5" stroke="#D9D9D9" stroke-width="3"/>
<circle cx="204" cy="227" r="10" fill="#D9D9D9"/>
<circle cx="244" cy="227" r="8.5" stroke="#D9D9D9" stroke-width="3"/>
<path d="M129.115 137V134.68H131.215V137H129.115ZM120.995 137V134.68H128.255L126.435 136.26V132.9C126.435 131.953 126.335 131.22 126.135 130.7C125.949 130.18 125.629 129.813 125.175 129.6C124.735 129.387 124.129 129.28 123.355 129.28H121.735V126.96H123.355C124.582 126.96 125.622 127.16 126.475 127.56C127.342 127.96 127.995 128.6 128.435 129.48C128.889 130.347 129.115 131.487 129.115 132.9V137H120.995ZM131.215 137V134.68C131.295 134.68 131.362 134.707 131.415 134.76C131.469 134.813 131.509 134.893 131.535 135C131.562 135.107 131.582 135.233 131.595 135.38C131.609 135.513 131.615 135.667 131.615 135.84C131.615 136.013 131.609 136.173 131.595 136.32C131.582 136.467 131.562 136.593 131.535 136.7C131.509 136.793 131.469 136.867 131.415 136.92C131.362 136.973 131.295 137 131.215 137ZM143.031 137V134.68H145.151V137H143.031ZM131.211 137C131.131 137 131.071 136.973 131.031 136.92C130.978 136.867 130.938 136.793 130.911 136.7C130.871 136.593 130.844 136.467 130.831 136.32C130.818 136.173 130.811 136.013 130.811 135.84C130.811 135.6 130.824 135.4 130.851 135.24C130.878 135.067 130.924 134.933 130.991 134.84C131.044 134.733 131.118 134.68 131.211 134.68V137ZM131.211 137V134.68H141.591L140.371 135.72V132.04C140.371 131.32 140.291 130.76 140.131 130.36C139.971 129.947 139.691 129.66 139.291 129.5C138.904 129.327 138.364 129.24 137.671 129.24C137.124 129.24 136.584 129.28 136.051 129.36C135.531 129.427 135.124 129.52 134.831 129.64L136.491 128.08C136.411 128.387 136.331 128.773 136.251 129.24C136.184 129.707 136.124 130.207 136.071 130.74C136.018 131.26 135.991 131.773 135.991 132.28C135.991 132.747 136.011 133.233 136.051 133.74C136.104 134.247 136.158 134.693 136.211 135.08C136.278 135.467 136.331 135.733 136.371 135.88L133.831 136.58C133.778 136.393 133.711 136.087 133.631 135.66C133.551 135.233 133.478 134.727 133.411 134.14C133.358 133.553 133.331 132.933 133.331 132.28C133.331 131.613 133.364 130.973 133.431 130.36C133.498 129.733 133.571 129.173 133.651 128.68C133.744 128.173 133.831 127.767 133.911 127.46C134.231 127.34 134.731 127.22 135.411 127.1C136.091 126.98 136.844 126.92 137.671 126.92C138.871 126.92 139.864 127.087 140.651 127.42C141.451 127.753 142.044 128.293 142.431 129.04C142.831 129.787 143.031 130.793 143.031 132.06V137H131.211ZM145.151 137V134.68C145.218 134.68 145.278 134.707 145.331 134.76C145.384 134.813 145.424 134.893 145.451 135C145.478 135.107 145.498 135.233 145.511 135.38C145.538 135.513 145.551 135.667 145.551 135.84C145.551 136.013 145.538 136.173 145.511 136.32C145.498 136.467 145.478 136.593 145.451 136.7C145.424 136.793 145.384 136.867 145.331 136.92C145.278 136.973 145.218 137 145.151 137ZM145.156 137V134.68H153.756L152.856 135.42V131.72C152.856 130.92 152.603 130.313 152.096 129.9C151.603 129.487 150.816 129.28 149.736 129.28C149.43 129.28 149.01 129.307 148.476 129.36C147.943 129.4 147.363 129.467 146.736 129.56L146.476 127.44C147.05 127.307 147.63 127.193 148.216 127.1C148.816 127.007 149.403 126.96 149.976 126.96C151.07 126.96 152.03 127.153 152.856 127.54C153.683 127.913 154.33 128.453 154.796 129.16C155.276 129.867 155.516 130.72 155.516 131.72V137H145.156ZM145.156 137C145.076 137 145.016 136.973 144.976 136.92C144.923 136.867 144.883 136.793 144.856 136.7C144.816 136.593 144.79 136.467 144.776 136.32C144.763 136.173 144.756 136.013 144.756 135.84C144.756 135.6 144.77 135.4 144.796 135.24C144.823 135.067 144.87 134.933 144.936 134.84C144.99 134.733 145.063 134.68 145.156 134.68V137ZM158.519 137V122.86H161.179V137H158.519ZM168.384 137V134.04H171.164V137H168.384ZM172.988 137V134.68H180.248L178.428 136.26V132.9C178.428 131.953 178.328 131.22 178.128 130.7C177.941 130.18 177.621 129.813 177.168 129.6C176.728 129.387 176.121 129.28 175.348 129.28H173.728V126.96H175.348C176.574 126.96 177.614 127.16 178.468 127.56C179.334 127.96 179.988 128.6 180.428 129.48C180.881 130.347 181.108 131.487 181.108 132.9V137H172.988ZM192.225 137C191.092 137 190.158 136.82 189.425 136.46C188.692 136.1 188.145 135.553 187.785 134.82C187.438 134.087 187.265 133.16 187.265 132.04C187.265 130.92 187.438 129.987 187.785 129.24C188.145 128.48 188.692 127.913 189.425 127.54C190.158 127.153 191.092 126.96 192.225 126.96H196.745V135.74H194.065V128.7L194.725 129.28H192.225C191.678 129.28 191.238 129.347 190.905 129.48C190.572 129.6 190.325 129.86 190.165 130.26C190.018 130.647 189.945 131.24 189.945 132.04C189.945 132.8 190.012 133.373 190.145 133.76C190.292 134.133 190.532 134.38 190.865 134.5C191.198 134.62 191.652 134.68 192.225 134.68H198.845V137H192.225ZM198.845 137V134.68C198.925 134.68 198.985 134.707 199.025 134.76C199.078 134.813 199.118 134.893 199.145 135C199.185 135.107 199.212 135.233 199.225 135.38C199.238 135.513 199.245 135.667 199.245 135.84C199.245 136.013 199.238 136.173 199.225 136.32C199.212 136.467 199.185 136.593 199.145 136.7C199.118 136.793 199.078 136.867 199.025 136.92C198.985 136.973 198.925 137 198.845 137ZM204.688 137V134.68H207.188V137H204.688ZM207.188 137V134.68C207.254 134.68 207.314 134.707 207.368 134.76C207.421 134.813 207.461 134.893 207.488 135C207.514 135.107 207.534 135.233 207.548 135.38C207.574 135.513 207.588 135.667 207.588 135.84C207.588 136.013 207.574 136.173 207.548 136.32C207.534 136.467 207.514 136.593 207.488 136.7C207.461 136.793 207.421 136.867 207.368 136.92C207.328 136.973 207.268 137 207.188 137ZM198.848 137C198.768 137 198.708 136.973 198.668 136.92C198.614 136.867 198.574 136.793 198.548 136.7C198.508 136.593 198.481 136.467 198.468 136.32C198.454 136.173 198.448 136.013 198.448 135.84C198.448 135.6 198.461 135.4 198.488 135.24C198.514 135.067 198.561 134.933 198.628 134.84C198.681 134.733 198.754 134.68 198.848 134.68V137ZM198.848 137V134.68H203.588L202.028 135.98V126.96H204.688V137H198.848ZM199.568 141.26V138.98H202.148V141.26H199.568ZM203.208 141.26V138.98H205.788V141.26H203.208ZM209.448 137V122.86H212.128V137H209.448ZM207.188 137V134.68H209.448V137H207.188ZM207.188 137C207.107 137 207.047 136.973 207.007 136.92C206.954 136.867 206.914 136.793 206.887 136.7C206.847 136.593 206.821 136.467 206.807 136.32C206.794 136.173 206.787 136.013 206.787 135.84C206.787 135.6 206.801 135.4 206.827 135.24C206.854 135.067 206.901 134.933 206.967 134.84C207.021 134.733 207.094 134.68 207.188 134.68V137ZM222.455 137V134.68H224.555V137H222.455ZM214.335 137V134.68H221.595L219.775 136.26V132.9C219.775 131.953 219.675 131.22 219.475 130.7C219.288 130.18 218.968 129.813 218.515 129.6C218.075 129.387 217.468 129.28 216.695 129.28H215.075V126.96H216.695C217.922 126.96 218.962 127.16 219.815 127.56C220.682 127.96 221.335 128.6 221.775 129.48C222.228 130.347 222.455 131.487 222.455 132.9V137H214.335ZM224.555 137V134.68C224.635 134.68 224.702 134.707 224.755 134.76C224.808 134.813 224.848 134.893 224.875 135C224.902 135.107 224.922 135.233 224.935 135.38C224.948 135.513 224.955 135.667 224.955 135.84C224.955 136.013 224.948 136.173 224.935 136.32C224.922 136.467 224.902 136.593 224.875 136.7C224.848 136.793 224.808 136.867 224.755 136.92C224.702 136.973 224.635 137 224.555 137ZM230.391 137V134.68H232.891V137H230.391ZM232.891 137V134.68C232.957 134.68 233.017 134.707 233.071 134.76C233.124 134.813 233.164 134.893 233.191 135C233.217 135.107 233.237 135.233 233.251 135.38C233.277 135.513 233.291 135.667 233.291 135.84C233.291 136.013 233.277 136.173 233.251 136.32C233.237 136.467 233.217 136.593 233.191 136.7C233.164 136.793 233.124 136.867 233.071 136.92C233.031 136.973 232.971 137 232.891 137ZM224.551 137C224.471 137 224.411 136.973 224.371 136.92C224.317 136.867 224.277 136.793 224.251 136.7C224.211 136.593 224.184 136.467 224.171 136.32C224.157 136.173 224.151 136.013 224.151 135.84C224.151 135.6 224.164 135.4 224.191 135.24C224.217 135.067 224.264 134.933 224.331 134.84C224.384 134.733 224.457 134.68 224.551 134.68V137ZM224.551 137V134.68H229.291L227.731 135.98V126.96H230.391V137H224.551ZM225.271 141.26V138.98H227.851V141.26H225.271ZM228.911 141.26V138.98H231.491V141.26H228.911ZM232.891 137V134.68H248.011L245.751 136.64V132.44C245.751 131.68 245.651 131.073 245.451 130.62C245.251 130.153 244.957 129.813 244.571 129.6C244.197 129.387 243.744 129.28 243.211 129.28C242.637 129.28 242.091 129.393 241.571 129.62C241.064 129.847 240.591 130.14 240.151 130.5C239.711 130.86 239.304 131.247 238.931 131.66C238.557 132.073 238.224 132.473 237.931 132.86C237.637 133.233 237.384 133.553 237.171 133.82L236.571 131.88C237.091 131.253 237.557 130.68 237.971 130.16C238.384 129.64 238.777 129.18 239.151 128.78C239.537 128.38 239.937 128.047 240.351 127.78C240.777 127.513 241.237 127.313 241.731 127.18C242.237 127.033 242.824 126.96 243.491 126.96C244.384 126.96 245.144 127.113 245.771 127.42C246.397 127.713 246.904 128.12 247.291 128.64C247.691 129.16 247.977 129.747 248.151 130.4C248.337 131.053 248.431 131.733 248.431 132.44V137H232.891ZM235.411 134.68V126.96H238.091V134.68H235.411ZM232.891 137C232.811 137 232.751 136.973 232.711 136.92C232.657 136.867 232.617 136.793 232.591 136.7C232.551 136.593 232.524 136.467 232.511 136.32C232.497 136.173 232.491 136.013 232.491 135.84C232.491 135.6 232.504 135.4 232.531 135.24C232.557 135.067 232.604 134.933 232.671 134.84C232.724 134.733 232.797 134.68 232.891 134.68V137Z" fill="#F9F3E4"/>
</svg>
