<svg width="40" height="41" viewBox="0 0 40 41" fill="none" xmlns="http://www.w3.org/2000/svg">
<path d="M20.0592 0.34594C16.1149 0.34594 12.2591 1.51892 8.97949 3.71655C5.69988 5.91417 3.14373 9.03775 1.63429 12.6923C0.124852 16.3468 -0.270086 20.3681 0.499419 24.2477C1.26893 28.1274 3.16831 31.691 5.95739 34.4881C8.74648 37.2851 12.3 39.1899 16.1685 39.9616C20.0371 40.7333 24.047 40.3373 27.6911 38.8235C31.3352 37.3098 34.4499 34.7463 36.6412 31.4573C38.8326 28.1684 40.0023 24.3016 40.0023 20.3459C39.9967 15.0433 37.8937 9.9595 34.1549 6.20999C30.4161 2.46047 25.3467 0.351539 20.0592 0.34594ZM9.71955 33.7113C10.8293 31.9707 12.3582 30.5383 14.1652 29.546C15.9721 28.5538 17.9991 28.0337 20.0592 28.0337C22.1194 28.0337 24.1463 28.5538 25.9533 29.546C27.7603 30.5383 29.2891 31.9707 30.3989 33.7113C27.4426 36.0171 23.8043 37.2689 20.0592 37.2689C16.3141 37.2689 12.6758 36.0171 9.71955 33.7113ZM13.9229 18.8075C13.9229 17.5904 14.2828 16.4006 14.9571 15.3886C15.6313 14.3766 16.5897 13.5878 17.711 13.1221C18.8322 12.6563 20.066 12.5344 21.2564 12.7719C22.4467 13.0093 23.5401 13.5954 24.3983 14.456C25.2564 15.3167 25.8409 16.4132 26.0776 17.6069C26.3144 18.8006 26.1929 20.038 25.7284 21.1624C25.264 22.2869 24.4775 23.248 23.4684 23.9242C22.4593 24.6004 21.2729 24.9613 20.0592 24.9613C18.4318 24.9613 16.871 24.313 15.7202 23.1589C14.5694 22.0048 13.9229 20.4396 13.9229 18.8075ZM32.6694 31.5786C30.9584 29.0922 28.5526 27.1687 25.7545 26.0498C27.2575 24.8626 28.3543 23.2351 28.8923 21.3938C29.4303 19.5525 29.3828 17.5888 28.7563 15.7758C28.1299 13.9629 26.9557 12.3907 25.3969 11.278C23.8382 10.1653 21.9725 9.56743 20.0592 9.56743C18.146 9.56743 16.2802 10.1653 14.7215 11.278C13.1628 12.3907 11.9886 13.9629 11.3621 15.7758C10.7357 17.5888 10.6882 19.5525 11.2262 21.3938C11.7641 23.2351 12.8609 24.8626 14.364 26.0498C11.5658 27.1687 9.16005 29.0922 7.44911 31.5786C5.28715 29.1405 3.87408 26.1276 3.38006 22.9027C2.88603 19.6778 3.33212 16.3784 4.6646 13.4019C5.99708 10.4254 8.15915 7.89859 10.8904 6.12582C13.6217 4.35305 16.8058 3.40987 20.0592 3.40987C23.3127 3.40987 26.4967 4.35305 29.228 6.12582C31.9593 7.89859 34.1214 10.4254 35.4539 13.4019C36.7864 16.3784 37.2324 19.6778 36.7384 22.9027C36.2444 26.1276 34.8313 29.1405 32.6694 31.5786Z" fill="#0B8FAC"/>
</svg>
