<svg width="32" height="19" viewBox="0 0 32 19" fill="none" xmlns="http://www.w3.org/2000/svg">
<path d="M6.1007 8.73768H4.90354L5.74508 9.58915L9.54657 13.4355L9.55277 13.4418L9.55919 13.4478C9.6525 13.5358 9.72767 13.6422 9.77994 13.7609C9.8322 13.8796 9.8604 14.0079 9.86267 14.1383C9.86494 14.2686 9.84124 14.3979 9.79312 14.5184C9.74501 14.6389 9.67355 14.748 9.58331 14.8393C9.49308 14.9306 9.38593 15.0023 9.26843 15.0503C9.15094 15.0983 9.0253 15.1218 8.89895 15.1196C8.7726 15.1173 8.64782 15.0893 8.53202 15.0371C8.4162 14.9849 8.31156 14.9095 8.22451 14.8149L8.21854 14.8084L8.21234 14.8022L1.94086 8.45666L1.26549 7.77333L1.94086 7.09L8.20548 0.751428C8.38467 0.585262 8.619 0.495847 8.85996 0.500148C9.10352 0.504497 9.33709 0.604302 9.5111 0.780371L9.86501 0.430592L9.5111 0.780371C9.6853 0.956622 9.78608 1.19558 9.79047 1.44723C9.79481 1.69622 9.70441 1.93628 9.53971 2.11809L5.74508 5.95751L4.90354 6.80898H6.1007H25.166C26.6948 6.80898 28.1622 7.4234 29.245 8.51901C30.328 9.61482 30.9375 11.1023 30.9375 12.6545C30.9375 14.2067 30.328 15.6942 29.245 16.79C28.1622 17.8856 26.6948 18.5 25.166 18.5H21.3066C21.0573 18.5 20.817 18.3998 20.6389 18.2196C20.4606 18.0392 20.3594 17.7933 20.3594 17.5357C20.3594 17.278 20.4606 17.0321 20.6389 16.8517C20.817 16.6715 21.0573 16.5713 21.3066 16.5713H25.166C26.1962 16.5713 27.1829 16.1572 27.9095 15.422C28.6359 14.687 29.043 13.6914 29.043 12.6545C29.043 11.6176 28.6359 10.622 27.9095 9.88696C27.1829 9.15178 26.1962 8.73768 25.166 8.73768H6.1007Z" fill="#B2675E" stroke="#B2675E"/>
</svg>
