<svg width="22" height="23" viewBox="0 0 22 23" fill="none" xmlns="http://www.w3.org/2000/svg">
<path d="M20.3484 1.66683C19.2896 0.608016 17.8535 0.0131836 16.3561 0.0131836C14.8587 0.0131836 13.4226 0.608016 12.3638 1.66683L1.60379 12.4258C0.567111 13.4891 -0.00887853 14.9181 0.000603523 16.4032C0.0100856 17.8882 0.604276 19.3097 1.65445 20.3598C2.70463 21.4098 4.12622 22.0038 5.61127 22.0131C7.09631 22.0224 8.52522 21.4462 9.58845 20.4094L20.3495 9.65042C21.4065 8.5908 22.0001 7.15512 21.9999 5.65841C21.9997 4.16169 21.4058 2.72617 20.3484 1.66683ZM8.38948 19.2104C7.64877 19.9512 6.64411 20.3675 5.5965 20.3676C4.54888 20.3677 3.54414 19.9516 2.80329 19.2109C2.06245 18.4702 1.64619 17.4655 1.64609 16.4179C1.64599 15.3703 2.06206 14.3656 2.80276 13.6247L7.58274 8.84475L13.1695 14.4304L8.38948 19.2104ZM19.1495 8.45145L14.3674 13.2314L8.78277 7.64578L13.5638 2.8658C14.3075 2.13934 15.3075 1.73533 16.3471 1.74141C17.3867 1.74748 18.3819 2.16314 19.117 2.89824C19.8521 3.63335 20.2678 4.62861 20.2739 5.66818C20.2799 6.70776 19.8759 7.70781 19.1495 8.45145ZM17.5137 6.19769C17.5926 6.27645 17.6551 6.36998 17.6978 6.47294C17.7405 6.57589 17.7625 6.68625 17.7625 6.7977C17.7625 6.90915 17.7405 7.01951 17.6978 7.12246C17.6551 7.22542 17.5926 7.31895 17.5137 7.39772L14.9695 9.94195C14.8907 10.0207 14.7972 10.0831 14.6943 10.1257C14.5913 10.1683 14.481 10.1902 14.3696 10.1901C14.2583 10.1901 14.148 10.1681 14.0451 10.1254C13.9422 10.0827 13.8487 10.0202 13.77 9.94142C13.6913 9.86263 13.6288 9.7691 13.5863 9.66617C13.5437 9.56325 13.5218 9.45294 13.5218 9.34156C13.5219 9.23018 13.5439 9.11989 13.5866 9.01701C13.6292 8.91412 13.6917 8.82065 13.7705 8.74192L16.3148 6.19769C16.4738 6.03876 16.6894 5.94949 16.9143 5.94949C17.1391 5.94949 17.3547 6.03876 17.5137 6.19769Z" fill="#B2675E"/>
</svg>
