<svg width="22" height="23" viewBox="0 0 22 23" fill="none" xmlns="http://www.w3.org/2000/svg">
<path d="M21.4458 4.77277C21.3945 4.64592 21.3131 4.5334 21.2088 4.44488C21.1044 4.35636 20.9802 4.29447 20.8466 4.26452C20.7131 4.23457 20.5743 4.23746 20.4422 4.27293C20.31 4.3084 20.1884 4.37539 20.0878 4.46817L15.8256 8.40147L14.0033 8.01015L13.612 6.18787L17.5453 1.92565C17.6381 1.82506 17.7051 1.70347 17.7405 1.57131C17.776 1.43914 17.7789 1.30034 17.7489 1.16682C17.719 1.03329 17.6571 0.909023 17.5686 0.804669C17.4801 0.700314 17.3675 0.618987 17.2407 0.567662C16.0846 0.100017 14.8314 -0.076553 13.5912 0.0534661C12.3509 0.183485 11.1616 0.616114 10.1276 1.31334C9.0937 2.01057 8.24683 2.95105 7.66142 4.05216C7.07601 5.15327 6.76998 6.3813 6.77023 7.62835C6.76886 8.6814 6.98489 9.7234 7.4048 10.6891L1.03686 16.1951C1.02099 16.2078 1.00619 16.2226 0.991379 16.2363C0.35661 16.8711 0 17.732 0 18.6297C0 19.0742 0.0875498 19.5144 0.257651 19.925C0.427752 20.3357 0.677073 20.7088 0.991379 21.0231C1.30568 21.3374 1.67882 21.5868 2.08948 21.7569C2.50014 21.927 2.94028 22.0145 3.38478 22.0145C4.28248 22.0145 5.14341 21.6579 5.77818 21.0231C5.79193 21.0094 5.80673 20.9935 5.81943 20.9787L11.3243 14.6087C12.484 15.1177 13.7522 15.3295 15.0143 15.2248C16.2764 15.1202 17.4924 14.7024 18.5524 14.0094C19.6123 13.3163 20.4827 12.3699 21.0847 11.2557C21.6867 10.1415 22.0013 8.89476 22 7.62835C22.0016 6.64961 21.8134 5.67984 21.4458 4.77277ZM14.3851 13.551C13.3836 13.5497 12.3987 13.295 11.5221 12.8107C11.3523 12.7169 11.1554 12.6843 10.9644 12.7184C10.7734 12.7524 10.5999 12.8511 10.473 12.9979L4.56085 19.8449C4.24092 20.1489 3.81491 20.3158 3.37365 20.3102C2.93239 20.3045 2.5108 20.1267 2.19875 19.8147C1.88671 19.5027 1.70891 19.0811 1.70326 18.6398C1.69761 18.1985 1.86456 17.7725 2.16851 17.4526L9.01027 11.5416C9.15729 11.4146 9.25615 11.2409 9.29024 11.0497C9.32432 10.8584 9.29157 10.6613 9.19747 10.4913C8.65812 9.51583 8.405 8.40791 8.46722 7.29497C8.52943 6.18202 8.90446 5.10922 9.54919 4.19991C10.1939 3.2906 11.0822 2.58169 12.1118 2.15468C13.1415 1.72767 14.2707 1.59989 15.3698 1.78604L12.07 5.36186C11.9782 5.46146 11.9116 5.58165 11.8759 5.71232C11.8402 5.84299 11.8364 5.98033 11.8648 6.11278L12.4634 8.8975C12.4976 9.05677 12.5771 9.20276 12.6923 9.31796C12.8075 9.43315 12.9535 9.51264 13.1128 9.54688L15.8996 10.1455C16.0321 10.1739 16.1694 10.1701 16.3001 10.1344C16.4307 10.0987 16.5509 10.0321 16.6505 9.94031L20.2264 6.64053C20.3689 7.48981 20.3248 8.35995 20.0969 9.19043C19.8691 10.0209 19.4632 10.7918 18.9072 11.4495C18.3513 12.1072 17.6588 12.6359 16.8779 12.9988C16.0969 13.3617 15.2463 13.5502 14.3851 13.551Z" fill="#B2675E"/>
</svg>
