<svg width="22" height="22" viewBox="0 0 22 22" fill="none" xmlns="http://www.w3.org/2000/svg">
<path d="M22 7.6286C22.0004 7.54993 21.9897 7.47159 21.9683 7.39591L20.4505 2.0863C20.3485 1.734 20.1352 1.42414 19.8426 1.20301C19.55 0.981881 19.1937 0.861335 18.8269 0.859375H3.17308C2.80631 0.861335 2.45001 0.981881 2.15739 1.20301C1.86477 1.42414 1.65154 1.734 1.54952 2.0863L0.0327891 7.39591C0.0109391 7.47154 -9.97846e-05 7.54988 6.79587e-07 7.6286V9.32091C6.79587e-07 9.97771 0.152922 10.6255 0.446654 11.213C0.740387 11.8004 1.16686 12.3114 1.69231 12.7055V19.4747C1.69231 19.9236 1.8706 20.354 2.18797 20.6714C2.50534 20.9888 2.93579 21.1671 3.38461 21.1671H18.6154C19.0642 21.1671 19.4946 20.9888 19.812 20.6714C20.1294 20.354 20.3077 19.9236 20.3077 19.4747V12.7055C20.8331 12.3114 21.2596 11.8004 21.5533 11.213C21.8471 10.6255 22 9.97771 22 9.32091V7.6286ZM3.17308 2.55168H18.8269L20.0348 6.78245H1.96836L3.17308 2.55168ZM8.46153 8.47475H13.5385V9.32091C13.5385 9.99415 13.271 10.6398 12.795 11.1159C12.3189 11.5919 11.6732 11.8594 11 11.8594C10.3268 11.8594 9.68108 11.5919 9.20503 11.1159C8.72898 10.6398 8.46153 9.99415 8.46153 9.32091V8.47475ZM6.76923 8.47475V9.32091C6.76923 9.99415 6.50178 10.6398 6.02573 11.1159C5.54968 11.5919 4.90401 11.8594 4.23077 11.8594C3.55753 11.8594 2.91186 11.5919 2.4358 11.1159C1.95975 10.6398 1.69231 9.99415 1.69231 9.32091V8.47475H6.76923ZM18.6154 19.4747H3.38461V13.4671C3.66317 13.5232 3.94661 13.5516 4.23077 13.5517C4.88757 13.5517 5.53536 13.3988 6.12282 13.105C6.71029 12.8113 7.2213 12.3848 7.61538 11.8594C8.00946 12.3848 8.52047 12.8113 9.10794 13.105C9.6954 13.3988 10.3432 13.5517 11 13.5517C11.6568 13.5517 12.3046 13.3988 12.892 13.105C13.4795 12.8113 13.9905 12.3848 14.3846 11.8594C14.7787 12.3848 15.2897 12.8113 15.8772 13.105C16.4646 13.3988 17.1124 13.5517 17.7692 13.5517C18.0534 13.5516 18.3368 13.5232 18.6154 13.4671V19.4747ZM17.7692 11.8594C17.096 11.8594 16.4503 11.5919 15.9743 11.1159C15.4982 10.6398 15.2308 9.99415 15.2308 9.32091V8.47475H20.3077V9.32091C20.3077 9.99415 20.0402 10.6398 19.5642 11.1159C19.0881 11.5919 18.4425 11.8594 17.7692 11.8594Z" fill="#B2675E"/>
</svg>
