<svg width="149" height="30" viewBox="0 0 149 30" fill="none" xmlns="http://www.w3.org/2000/svg">
<path d="M9.71286 24C7.71553 24 6.02619 23.7387 4.64486 23.216C3.28219 22.6933 2.24619 21.9187 1.53686 20.892C0.846193 19.8653 0.500859 18.5867 0.500859 17.056C0.500859 16.608 0.528859 16.1413 0.584859 15.656C0.640859 15.152 0.706193 14.676 0.780859 14.228C0.874193 13.7613 0.958193 13.3507 1.03286 12.996C1.10753 12.6413 1.16353 12.38 1.20086 12.212L4.84086 12.912C4.78486 13.2107 4.71019 13.5933 4.61686 14.06C4.52353 14.5267 4.43953 15.0213 4.36486 15.544C4.29019 16.048 4.25286 16.5333 4.25286 17C4.25286 17.728 4.36486 18.3347 4.58886 18.82C4.83153 19.3053 5.18619 19.6973 5.65286 19.996C6.11953 20.276 6.70753 20.472 7.41686 20.584C8.12619 20.696 8.95686 20.752 9.90886 20.752H17.3849V9.944H21.1369V24H9.71286ZM9.15286 29.964V26.772H12.9049V29.964H9.15286ZM29.0858 24V20.752H32.2778V24H29.0858ZM25.3618 24V4.204H29.0858V24H25.3618ZM32.2778 24V20.752C32.3898 20.752 32.4738 20.7893 32.5298 20.864C32.6045 20.9387 32.6605 21.0507 32.6978 21.2C32.7538 21.3493 32.7911 21.5267 32.8098 21.732C32.8285 21.9187 32.8378 22.1333 32.8378 22.376C32.8378 22.6187 32.8285 22.8427 32.8098 23.048C32.7911 23.2533 32.7538 23.4307 32.6978 23.58C32.6605 23.7107 32.6045 23.8133 32.5298 23.888C32.4738 23.9627 32.3898 24 32.2778 24ZM55.7674 24V20.752H58.7354V24H55.7674ZM32.2754 24C32.1634 24 32.0794 23.9627 32.0234 23.888C31.9487 23.8133 31.8927 23.7107 31.8554 23.58C31.7994 23.4307 31.7621 23.2533 31.7434 23.048C31.7247 22.8427 31.7154 22.6187 31.7154 22.376C31.7154 22.04 31.7341 21.76 31.7714 21.536C31.8087 21.2933 31.8741 21.1067 31.9674 20.976C32.0421 20.8267 32.1447 20.752 32.2754 20.752V24ZM48.7394 24C47.9741 24 47.2087 23.86 46.4434 23.58C45.6967 23.2813 45.0061 22.8427 44.3714 22.264L46.6674 19.884C47.0407 20.1827 47.3861 20.4067 47.7034 20.556C48.0394 20.6867 48.3847 20.752 48.7394 20.752H53.9754L52.0434 22.516V16.3C52.0434 16.0013 52.0061 15.5533 51.9314 14.956C51.8754 14.34 51.7821 13.6493 51.6514 12.884C51.5394 12.1 51.3994 11.3067 51.2314 10.504L54.9274 9.944C55.0581 10.616 55.1794 11.372 55.2914 12.212C55.4221 13.0333 55.5341 13.8173 55.6274 14.564C55.7207 15.292 55.7674 15.8707 55.7674 16.3V24H48.7394ZM32.2754 24V20.752H36.3634L35.5234 21.62V12.8H39.2754V24H32.2754ZM39.2754 24V20.752H41.5434C42.1407 20.752 42.5981 20.668 42.9154 20.5C43.2327 20.3133 43.4474 19.9493 43.5594 19.408C43.6901 18.848 43.7554 18.0173 43.7554 16.916V11.4H47.5074V16.916C47.5074 18.5773 47.2927 19.9307 46.8634 20.976C46.4527 22.0213 45.8087 22.7867 44.9314 23.272C44.0541 23.7573 42.9247 24 41.5434 24H39.2754ZM58.7354 24V20.752C58.8287 20.752 58.9127 20.7893 58.9874 20.864C59.0621 20.9387 59.1181 21.0507 59.1554 21.2C59.1927 21.3493 59.2207 21.5267 59.2394 21.732C59.2767 21.9187 59.2954 22.1333 59.2954 22.376C59.2954 22.6187 59.2767 22.8427 59.2394 23.048C59.2207 23.2533 59.1927 23.4307 59.1554 23.58C59.1181 23.7107 59.0621 23.8133 58.9874 23.888C58.9127 23.9627 58.8287 24 58.7354 24ZM58.7441 24V20.752H70.7841L69.5241 21.788V16.608C69.5241 15.488 69.1695 14.6387 68.4601 14.06C67.7695 13.4813 66.6681 13.192 65.1561 13.192C64.7268 13.192 64.1388 13.2293 63.3921 13.304C62.6455 13.36 61.8335 13.4533 60.9561 13.584L60.5921 10.616C61.3948 10.4293 62.2068 10.2707 63.0281 10.14C63.8681 10.0093 64.6895 9.944 65.4921 9.944C67.0228 9.944 68.3668 10.2147 69.5241 10.756C70.6815 11.2787 71.5868 12.0347 72.2401 13.024C72.9121 14.0133 73.2481 15.208 73.2481 16.608V24H58.7441ZM58.7441 24C58.6321 24 58.5481 23.9627 58.4921 23.888C58.4175 23.8133 58.3615 23.7107 58.3241 23.58C58.2681 23.4307 58.2308 23.2533 58.2121 23.048C58.1935 22.8427 58.1841 22.6187 58.1841 22.376C58.1841 22.04 58.2028 21.76 58.2401 21.536C58.2775 21.2933 58.3428 21.1067 58.4361 20.976C58.5108 20.8267 58.6135 20.752 58.7441 20.752V24ZM85.7893 23.356C85.0053 22.4787 84.4173 21.62 84.0253 20.78C83.652 19.94 83.4653 19.044 83.4653 18.092C83.4653 17.084 83.652 16.16 84.0253 15.32C84.4173 14.48 84.9493 13.752 85.6213 13.136C86.2933 12.52 87.068 12.044 87.9453 11.708C88.8413 11.3533 89.784 11.176 90.7733 11.176C91.5386 11.176 92.2853 11.2787 93.0133 11.484C93.76 11.6707 94.404 11.9507 94.9453 12.324L93.2653 15.04C92.892 14.8347 92.5093 14.6853 92.1173 14.592C91.744 14.48 91.3426 14.424 90.9133 14.424C90.1853 14.424 89.5413 14.5827 88.9813 14.9C88.4213 15.1987 87.9826 15.6187 87.6653 16.16C87.3666 16.7013 87.2173 17.3267 87.2173 18.036C87.2173 18.6147 87.32 19.156 87.5253 19.66C87.7493 20.164 88.104 20.6867 88.5893 21.228L85.7893 23.356ZM82.0933 24V20.752H96.2893V24H82.0933ZM103.461 24V20.752H106.653V24H103.461ZM99.7368 24V4.204H103.461V24H99.7368ZM106.653 24V20.752C106.765 20.752 106.849 20.7893 106.905 20.864C106.979 20.9387 107.035 21.0507 107.073 21.2C107.129 21.3493 107.166 21.5267 107.185 21.732C107.203 21.9187 107.213 22.1333 107.213 22.376C107.213 22.6187 107.203 22.8427 107.185 23.048C107.166 23.2533 107.129 23.4307 107.073 23.58C107.035 23.7107 106.979 23.8133 106.905 23.888C106.849 23.9627 106.765 24 106.653 24ZM130.142 24V20.752H133.11V24H130.142ZM106.65 24C106.538 24 106.454 23.9627 106.398 23.888C106.324 23.8133 106.268 23.7107 106.23 23.58C106.174 23.4307 106.137 23.2533 106.118 23.048C106.1 22.8427 106.09 22.6187 106.09 22.376C106.09 22.04 106.109 21.76 106.146 21.536C106.184 21.2933 106.249 21.1067 106.342 20.976C106.417 20.8267 106.52 20.752 106.65 20.752V24ZM123.114 24C122.349 24 121.584 23.86 120.818 23.58C120.072 23.2813 119.381 22.8427 118.746 22.264L121.042 19.884C121.416 20.1827 121.761 20.4067 122.078 20.556C122.414 20.6867 122.76 20.752 123.114 20.752H128.35L126.418 22.516V16.3C126.418 16.0013 126.381 15.5533 126.306 14.956C126.25 14.34 126.157 13.6493 126.026 12.884C125.914 12.1 125.774 11.3067 125.606 10.504L129.302 9.944C129.433 10.616 129.554 11.372 129.666 12.212C129.797 13.0333 129.909 13.8173 130.002 14.564C130.096 15.292 130.142 15.8707 130.142 16.3V24H123.114ZM106.65 24V20.752H110.738L109.898 21.62V12.8H113.65V24H106.65ZM113.65 24V20.752H115.918C116.516 20.752 116.973 20.668 117.29 20.5C117.608 20.3133 117.822 19.9493 117.934 19.408C118.065 18.848 118.13 18.0173 118.13 16.916V11.4H121.882V16.916C121.882 18.5773 121.668 19.9307 121.238 20.976C120.828 22.0213 120.184 22.7867 119.306 23.272C118.429 23.7573 117.3 24 115.918 24H113.65ZM133.11 24V20.752C133.204 20.752 133.288 20.7893 133.362 20.864C133.437 20.9387 133.493 21.0507 133.53 21.2C133.568 21.3493 133.596 21.5267 133.614 21.732C133.652 21.9187 133.67 22.1333 133.67 22.376C133.67 22.6187 133.652 22.8427 133.614 23.048C133.596 23.2533 133.568 23.4307 133.53 23.58C133.493 23.7107 133.437 23.8133 133.362 23.888C133.288 23.9627 133.204 24 133.11 24ZM118.41 3.084V0.283998H121.658V3.084H118.41ZM115.694 7.368V4.176H119.306V7.368H115.694ZM120.79 7.368V4.176H124.402V7.368H120.79ZM133.119 24V20.752H138.243L136.059 22.572V9.944H139.811V24H133.119ZM133.119 24C133.007 24 132.923 23.9627 132.867 23.888C132.792 23.8133 132.736 23.7107 132.699 23.58C132.643 23.4307 132.606 23.2533 132.587 23.048C132.568 22.8427 132.559 22.6187 132.559 22.376C132.559 22.04 132.578 21.76 132.615 21.536C132.652 21.2933 132.718 21.1067 132.811 20.976C132.886 20.8267 132.988 20.752 133.119 20.752V24ZM136.059 7.368V4.176H139.811V7.368H136.059ZM144.362 24V4.204H148.086V24H144.362Z" fill="#F9F3E4"/>
</svg>
