<svg width="25" height="26" viewBox="0 0 25 26" fill="none" xmlns="http://www.w3.org/2000/svg">
<path d="M24.6044 22.7315L19.3276 17.4524C20.9097 15.3907 21.6484 12.8043 21.3937 10.2179C21.1391 7.63152 19.9101 5.23886 17.9562 3.52527C16.0023 1.81168 13.4698 0.905474 10.8723 0.990483C8.2748 1.07549 5.8069 2.14535 3.96922 3.98303C2.13154 5.82072 1.06168 8.28861 0.976674 10.8861C0.891664 13.4836 1.79787 16.0161 3.51146 17.9701C5.22505 19.924 7.61771 21.1529 10.2041 21.4076C12.7904 21.6622 15.3768 20.9235 17.4386 19.3414L22.7199 24.6238C22.8439 24.7478 22.9912 24.8462 23.1532 24.9133C23.3153 24.9805 23.489 25.015 23.6644 25.015C23.8398 25.015 24.0135 24.9805 24.1755 24.9133C24.3376 24.8462 24.4848 24.7478 24.6089 24.6238C24.7329 24.4998 24.8313 24.3525 24.8984 24.1905C24.9655 24.0284 25.0001 23.8547 25.0001 23.6793C25.0001 23.5039 24.9655 23.3302 24.8984 23.1682C24.8313 23.0061 24.7329 22.8589 24.6089 22.7348L24.6044 22.7315ZM3.66037 11.23C3.66037 9.73559 4.10351 8.27475 4.93375 7.03221C5.76399 5.78966 6.94405 4.82121 8.32469 4.24933C9.70534 3.67745 11.2246 3.52782 12.6902 3.81936C14.1559 4.1109 15.5022 4.83052 16.5589 5.88722C17.6156 6.94392 18.3353 8.29024 18.6268 9.75593C18.9183 11.2216 18.7687 12.7408 18.1968 14.1215C17.625 15.5021 16.6565 16.6822 15.414 17.5124C14.1714 18.3427 12.7106 18.7858 11.2162 18.7858C9.21288 18.7837 7.29223 17.987 5.87569 16.5705C4.45914 15.1539 3.66243 13.2333 3.66037 11.23Z" fill="#F9F3E4"/>
</svg>
