<svg width="22" height="23" viewBox="0 0 22 23" fill="none" xmlns="http://www.w3.org/2000/svg">
<path d="M21.4458 4.77265C21.3945 4.64579 21.3131 4.53328 21.2088 4.44476C21.1044 4.35624 20.9802 4.29435 20.8466 4.2644C20.7131 4.23445 20.5743 4.23734 20.4422 4.27281C20.31 4.30828 20.1884 4.37527 20.0878 4.46805L15.8256 8.40135L14.0033 8.01003L13.612 6.18775L17.5453 1.92553C17.6381 1.82494 17.7051 1.70335 17.7405 1.57118C17.776 1.43902 17.7789 1.30022 17.7489 1.16669C17.719 1.03317 17.6571 0.908901 17.5686 0.804546C17.4801 0.700192 17.3675 0.618865 17.2407 0.56754C16.0846 0.099895 14.8314 -0.076675 13.5912 0.053344C12.3509 0.183363 11.1616 0.615992 10.1276 1.31322C9.0937 2.01044 8.24683 2.95093 7.66142 4.05204C7.07601 5.15314 6.76998 6.38117 6.77023 7.62823C6.76886 8.68128 6.98489 9.72328 7.4048 10.689L1.03686 16.195C1.02099 16.2077 1.00619 16.2225 0.991379 16.2362C0.35661 16.871 0 17.7319 0 18.6296C0 19.0741 0.0875498 19.5143 0.257651 19.9249C0.427752 20.3356 0.677073 20.7087 0.991379 21.023C1.30568 21.3373 1.67882 21.5866 2.08948 21.7567C2.50014 21.9268 2.94028 22.0144 3.38478 22.0144C4.28248 22.0144 5.14341 21.6578 5.77818 21.023C5.79193 21.0093 5.80673 20.9934 5.81943 20.9786L11.3243 14.6085C12.484 15.1176 13.7522 15.3293 15.0143 15.2247C16.2764 15.1201 17.4924 14.7023 18.5524 14.0093C19.6123 13.3162 20.4827 12.3698 21.0847 11.2556C21.6867 10.1414 22.0013 8.89464 22 7.62823C22.0016 6.64949 21.8134 5.67972 21.4458 4.77265ZM14.3851 13.5509C13.3836 13.5495 12.3987 13.2949 11.5221 12.8106C11.3523 12.7168 11.1554 12.6842 10.9644 12.7182C10.7734 12.7523 10.5999 12.851 10.473 12.9978L4.56085 19.8448C4.24092 20.1488 3.81491 20.3157 3.37365 20.3101C2.93239 20.3044 2.5108 20.1266 2.19875 19.8146C1.88671 19.5025 1.70891 19.0809 1.70326 18.6397C1.69761 18.1984 1.86456 17.7724 2.16851 17.4525L9.01027 11.5414C9.15729 11.4145 9.25615 11.2408 9.29024 11.0495C9.32432 10.8583 9.29157 10.6612 9.19747 10.4912C8.65812 9.5157 8.405 8.40779 8.46722 7.29484C8.52943 6.1819 8.90446 5.1091 9.54919 4.19979C10.1939 3.29048 11.0822 2.58156 12.1118 2.15455C13.1415 1.72754 14.2707 1.59977 15.3698 1.78592L12.07 5.36174C11.9782 5.46134 11.9116 5.58153 11.8759 5.7122C11.8402 5.84287 11.8364 5.98021 11.8648 6.11265L12.4634 8.89738C12.4976 9.05664 12.5771 9.20264 12.6923 9.31784C12.8075 9.43303 12.9535 9.51252 13.1128 9.54675L15.8996 10.1454C16.0321 10.1738 16.1694 10.17 16.3001 10.1343C16.4307 10.0986 16.5509 10.032 16.6505 9.94019L20.2264 6.64041C20.3689 7.48969 20.3248 8.35983 20.0969 9.19031C19.8691 10.0208 19.4632 10.7917 18.9072 11.4494C18.3513 12.1071 17.6588 12.6357 16.8779 12.9987C16.0969 13.3616 15.2463 13.55 14.3851 13.5509Z" fill="#B2675E"/>
</svg>
