<svg width="22" height="22" viewBox="0 0 22 22" fill="none" xmlns="http://www.w3.org/2000/svg">
<path d="M22 7.62849C22.0004 7.54982 21.9897 7.47148 21.9683 7.3958L20.4505 2.08619C20.3485 1.73389 20.1352 1.42404 19.8426 1.20291C19.55 0.981774 19.1937 0.861228 18.8269 0.859268H3.17308C2.80631 0.861228 2.45001 0.981774 2.15739 1.20291C1.86477 1.42404 1.65154 1.73389 1.54952 2.08619L0.0327891 7.3958C0.0109391 7.47143 -9.97846e-05 7.54977 6.79587e-07 7.62849V9.3208C6.79587e-07 9.97761 0.152922 10.6254 0.446654 11.2129C0.740387 11.8003 1.16686 12.3113 1.69231 12.7054V19.4746C1.69231 19.9235 1.8706 20.3539 2.18797 20.6713C2.50534 20.9886 2.93579 21.1669 3.38461 21.1669H18.6154C19.0642 21.1669 19.4946 20.9886 19.812 20.6713C20.1294 20.3539 20.3077 19.9235 20.3077 19.4746V12.7054C20.8331 12.3113 21.2596 11.8003 21.5533 11.2129C21.8471 10.6254 22 9.97761 22 9.3208V7.62849ZM3.17308 2.55157H18.8269L20.0348 6.78234H1.96836L3.17308 2.55157ZM8.46153 8.47465H13.5385V9.3208C13.5385 9.99404 13.271 10.6397 12.795 11.1158C12.3189 11.5918 11.6732 11.8593 11 11.8593C10.3268 11.8593 9.68108 11.5918 9.20503 11.1158C8.72898 10.6397 8.46153 9.99404 8.46153 9.3208V8.47465ZM6.76923 8.47465V9.3208C6.76923 9.99404 6.50178 10.6397 6.02573 11.1158C5.54968 11.5918 4.90401 11.8593 4.23077 11.8593C3.55753 11.8593 2.91186 11.5918 2.4358 11.1158C1.95975 10.6397 1.69231 9.99404 1.69231 9.3208V8.47465H6.76923ZM18.6154 19.4746H3.38461V13.467C3.66317 13.5231 3.94661 13.5514 4.23077 13.5516C4.88757 13.5516 5.53536 13.3986 6.12282 13.1049C6.71029 12.8112 7.2213 12.3847 7.61538 11.8593C8.00946 12.3847 8.52047 12.8112 9.10794 13.1049C9.6954 13.3986 10.3432 13.5516 11 13.5516C11.6568 13.5516 12.3046 13.3986 12.892 13.1049C13.4795 12.8112 13.9905 12.3847 14.3846 11.8593C14.7787 12.3847 15.2897 12.8112 15.8772 13.1049C16.4646 13.3986 17.1124 13.5516 17.7692 13.5516C18.0534 13.5514 18.3368 13.5231 18.6154 13.467V19.4746ZM17.7692 11.8593C17.096 11.8593 16.4503 11.5918 15.9743 11.1158C15.4982 10.6397 15.2308 9.99404 15.2308 9.3208V8.47465H20.3077V9.3208C20.3077 9.99404 20.0402 10.6397 19.5642 11.1158C19.0881 11.5918 18.4425 11.8593 17.7692 11.8593Z" fill="#B2675E"/>
</svg>
