<svg width="66" height="43" viewBox="0 0 66 43" fill="none" xmlns="http://www.w3.org/2000/svg">
<path d="M2.33799 35V10.255H6.99299V35H2.33799ZM2.54799 7.455C2.10466 6.91833 1.76632 6.405 1.53299 5.915C1.29966 5.425 1.18299 4.9 1.18299 4.34C1.18299 3.54667 1.39299 2.835 1.81299 2.205C2.23299 1.55167 2.78132 1.05 3.45799 0.699999C4.13466 0.326665 4.88132 0.139998 5.69799 0.139998C6.14132 0.139998 6.59632 0.198331 7.06299 0.314998C7.52966 0.431665 7.92632 0.606664 8.25299 0.839998L7.06299 2.975C6.85299 2.85833 6.64299 2.78833 6.43299 2.765C6.24632 2.71833 6.04799 2.695 5.83799 2.695C5.27799 2.695 4.84632 2.84667 4.54299 3.15C4.23966 3.43 4.08799 3.815 4.08799 4.305C4.08799 4.585 4.14632 4.85333 4.26299 5.11C4.37966 5.36667 4.55466 5.64666 4.78799 5.95L2.54799 7.455ZM0.412988 7.735V5.18H8.88299V7.735H0.412988ZM25.7697 35V30.94H29.4447V35H25.7697ZM11.5597 35V30.94H24.2647L21.0797 33.705V27.825C21.0797 26.1683 20.9047 24.885 20.5547 23.975C20.228 23.065 19.668 22.4233 18.8747 22.05C18.1047 21.6767 17.043 21.49 15.6897 21.49H12.8547V17.43H15.6897C17.8363 17.43 19.6563 17.78 21.1497 18.48C22.6663 19.18 23.8097 20.3 24.5797 21.84C25.373 23.3567 25.7697 25.3517 25.7697 27.825V35H11.5597ZM29.4447 35V30.94C29.5847 30.94 29.7013 30.9867 29.7947 31.08C29.888 31.1733 29.958 31.3133 30.0047 31.5C30.0513 31.6867 30.0863 31.9083 30.1097 32.165C30.133 32.3983 30.1447 32.6667 30.1447 32.97C30.1447 33.2733 30.133 33.5533 30.1097 33.81C30.0863 34.0667 30.0513 34.2883 30.0047 34.475C29.958 34.6383 29.888 34.7667 29.7947 34.86C29.7013 34.9533 29.5847 35 29.4447 35ZM29.437 35V30.94H38.187V35H29.437ZM38.187 35V30.94C38.327 30.94 38.432 30.9867 38.502 31.08C38.5953 31.1733 38.6653 31.3133 38.712 31.5C38.782 31.6867 38.8287 31.9083 38.852 32.165C38.8753 32.3983 38.887 32.6667 38.887 32.97C38.887 33.2733 38.8753 33.5533 38.852 33.81C38.8287 34.0667 38.782 34.2883 38.712 34.475C38.6653 34.6383 38.5953 34.7667 38.502 34.86C38.432 34.9533 38.327 35 38.187 35ZM29.437 35C29.297 35 29.192 34.9533 29.122 34.86C29.0287 34.7667 28.9587 34.6383 28.912 34.475C28.842 34.2883 28.7953 34.0667 28.772 33.81C28.7487 33.5533 28.737 33.2733 28.737 32.97C28.737 32.55 28.7603 32.2 28.807 31.92C28.8537 31.6167 28.9353 31.3833 29.052 31.22C29.1453 31.0333 29.2737 30.94 29.437 30.94V35ZM38.187 35V30.94H46.937V35H38.187ZM46.937 35V30.94C47.077 30.94 47.182 30.9867 47.252 31.08C47.3453 31.1733 47.4153 31.3133 47.462 31.5C47.532 31.6867 47.5787 31.9083 47.602 32.165C47.6253 32.3983 47.637 32.6667 47.637 32.97C47.637 33.2733 47.6253 33.5533 47.602 33.81C47.5787 34.0667 47.532 34.2883 47.462 34.475C47.4153 34.6383 47.3453 34.7667 47.252 34.86C47.182 34.9533 47.077 35 46.937 35ZM38.187 35C38.047 35 37.942 34.9533 37.872 34.86C37.7787 34.7667 37.7087 34.6383 37.662 34.475C37.592 34.2883 37.5453 34.0667 37.522 33.81C37.4987 33.5533 37.487 33.2733 37.487 32.97C37.487 32.55 37.5103 32.2 37.557 31.92C37.6037 31.6167 37.6853 31.3833 37.802 31.22C37.8953 31.0333 38.0237 30.94 38.187 30.94V35ZM46.937 35V30.94H53.342L50.612 33.215V17.43H55.302V35H46.937ZM46.937 35C46.797 35 46.692 34.9533 46.622 34.86C46.5287 34.7667 46.4587 34.6383 46.412 34.475C46.342 34.2883 46.2953 34.0667 46.272 33.81C46.2487 33.5533 46.237 33.2733 46.237 32.97C46.237 32.55 46.2603 32.2 46.307 31.92C46.3537 31.6167 46.4353 31.3833 46.552 31.22C46.6453 31.0333 46.7737 30.94 46.937 30.94V35ZM50.612 42.455V38.465H55.302V42.455H50.612ZM60.9903 35V10.255H65.6453V35H60.9903Z" fill="#F9F3E4"/>
</svg>
