<svg width="380" height="154" viewBox="0 0 380 154" fill="none" xmlns="http://www.w3.org/2000/svg">
<g filter="url(#filter0_d_129_1064)">
<rect x="10" y="6" width="360" height="134" rx="16" fill="white"/>
</g>
<path fill-rule="evenodd" clip-rule="evenodd" d="M209.847 55.8332C209.847 55.6667 209.875 55.5001 209.875 55.3336C209.875 46.3058 202.681 39 193.806 39C187.403 39 181.903 42.8053 179.32 48.3056C178.194 47.7358 176.931 47.4028 175.597 47.4028C171.5 47.4028 168.083 50.4442 167.43 54.4167C162.514 56.111 159 60.8196 159 66.3611C159 73.3332 164.57 79 171.431 79H185.667V67.8889H178.972L190.111 56.264L201.25 67.8747H194.556V78.9858H209.875C216.153 78.9858 221.222 73.7775 221.222 67.4028C221.222 61.0279 216.125 55.8474 209.847 55.8332Z" fill="#167F71"/>
<path d="M129.026 103.112C128.036 103.112 127.178 102.907 126.45 102.496C125.722 102.076 125.162 101.483 124.77 100.718C124.387 99.9527 124.196 99.0473 124.196 98.002C124.196 96.966 124.387 96.07 124.77 95.314C125.162 94.5487 125.722 93.9607 126.45 93.55C127.178 93.13 128.036 92.92 129.026 92.92C129.698 92.92 130.328 93.0227 130.916 93.228C131.513 93.424 132.008 93.7133 132.4 94.096L131.812 95.412C131.354 95.048 130.906 94.7867 130.468 94.628C130.029 94.46 129.558 94.376 129.054 94.376C128.092 94.376 127.346 94.6887 126.814 95.314C126.291 95.93 126.03 96.826 126.03 98.002C126.03 99.178 126.291 100.083 126.814 100.718C127.346 101.343 128.092 101.656 129.054 101.656C129.558 101.656 130.029 101.577 130.468 101.418C130.906 101.25 131.354 100.984 131.812 100.62L132.4 101.936C132.008 102.319 131.513 102.613 130.916 102.818C130.328 103.014 129.698 103.112 129.026 103.112ZM133.934 103V92.696H135.684V103H133.934ZM137.571 103V95.93H139.321V103H137.571ZM137.487 92.724H139.433V94.446H137.487V92.724ZM144.414 103.098C143.676 103.098 143.037 102.953 142.496 102.664C141.964 102.365 141.553 101.945 141.264 101.404C140.984 100.853 140.844 100.209 140.844 99.472C140.844 98.7253 140.993 98.072 141.292 97.512C141.59 96.952 142.015 96.518 142.566 96.21C143.116 95.902 143.76 95.748 144.498 95.748C144.992 95.748 145.473 95.8273 145.94 95.986C146.416 96.1447 146.803 96.364 147.102 96.644L146.598 97.876C146.299 97.6333 145.982 97.4513 145.646 97.33C145.31 97.1993 144.974 97.134 144.638 97.134C144.022 97.134 143.532 97.33 143.168 97.722C142.813 98.114 142.636 98.688 142.636 99.444C142.636 100.191 142.813 100.76 143.168 101.152C143.522 101.544 144.017 101.74 144.652 101.74C144.978 101.74 145.31 101.679 145.646 101.558C145.982 101.427 146.299 101.236 146.598 100.984L147.102 102.216C146.794 102.496 146.397 102.715 145.912 102.874C145.436 103.023 144.936 103.098 144.414 103.098ZM153.106 103L149.704 99.402L152.924 95.944H155.052L151.398 99.808L151.482 98.926L155.29 103H153.106ZM148.262 103V92.696H150.012V103H148.262ZM159.829 103V92.696H161.579V97.358L161.369 97.372C161.593 96.84 161.924 96.4387 162.363 96.168C162.811 95.888 163.324 95.748 163.903 95.748C165.583 95.748 166.423 96.7187 166.423 98.66V103H164.673V98.73C164.673 98.1793 164.565 97.778 164.351 97.526C164.136 97.2647 163.805 97.134 163.357 97.134C162.815 97.134 162.381 97.3067 162.055 97.652C161.737 97.988 161.579 98.436 161.579 98.996V103H159.829ZM174.327 102.216C173.991 102.496 173.575 102.715 173.081 102.874C172.595 103.023 172.101 103.098 171.597 103.098C170.831 103.098 170.169 102.953 169.609 102.664C169.058 102.375 168.633 101.955 168.335 101.404C168.036 100.853 167.887 100.2 167.887 99.444C167.887 98.716 168.031 98.0767 168.321 97.526C168.61 96.966 169.011 96.532 169.525 96.224C170.038 95.9067 170.631 95.748 171.303 95.748C171.956 95.748 172.516 95.8927 172.983 96.182C173.449 96.462 173.809 96.868 174.061 97.4C174.322 97.932 174.453 98.562 174.453 99.29V99.556H169.427L169.441 98.618H173.417L172.941 99.094C172.95 98.4127 172.815 97.8947 172.535 97.54C172.264 97.1853 171.867 97.008 171.345 97.008C170.785 97.008 170.351 97.2087 170.043 97.61C169.735 98.002 169.581 98.5667 169.581 99.304C169.581 100.144 169.753 100.765 170.099 101.166C170.444 101.558 170.967 101.754 171.667 101.754C172.049 101.754 172.423 101.693 172.787 101.572C173.16 101.441 173.505 101.255 173.823 101.012L174.327 102.216ZM175.92 103V97.932C175.92 97.6053 175.911 97.274 175.892 96.938C175.883 96.5927 175.855 96.2567 175.808 95.93H177.46L177.656 97.75L177.46 97.652C177.582 97.0267 177.857 96.5553 178.286 96.238C178.716 95.9207 179.201 95.762 179.742 95.762C179.882 95.762 180.013 95.7713 180.134 95.79C180.256 95.8087 180.363 95.8367 180.456 95.874L180.428 97.47C180.139 97.3487 179.831 97.288 179.504 97.288C179.084 97.288 178.739 97.372 178.468 97.54C178.207 97.708 178.006 97.9367 177.866 98.226C177.736 98.506 177.67 98.8233 177.67 99.178V103H175.92ZM187.342 102.216C187.006 102.496 186.591 102.715 186.096 102.874C185.611 103.023 185.116 103.098 184.612 103.098C183.847 103.098 183.184 102.953 182.624 102.664C182.073 102.375 181.649 101.955 181.35 101.404C181.051 100.853 180.902 100.2 180.902 99.444C180.902 98.716 181.047 98.0767 181.336 97.526C181.625 96.966 182.027 96.532 182.54 96.224C183.053 95.9067 183.646 95.748 184.318 95.748C184.971 95.748 185.531 95.8927 185.998 96.182C186.465 96.462 186.824 96.868 187.076 97.4C187.337 97.932 187.468 98.562 187.468 99.29V99.556H182.442L182.456 98.618H186.432L185.956 99.094C185.965 98.4127 185.83 97.8947 185.55 97.54C185.279 97.1853 184.883 97.008 184.36 97.008C183.8 97.008 183.366 97.2087 183.058 97.61C182.75 98.002 182.596 98.5667 182.596 99.304C182.596 100.144 182.769 100.765 183.114 101.166C183.459 101.558 183.982 101.754 184.682 101.754C185.065 101.754 185.438 101.693 185.802 101.572C186.175 101.441 186.521 101.255 186.838 101.012L187.342 102.216ZM191.91 97.246V95.93H196.894V97.246H191.91ZM196.894 101.544V102.93C196.707 102.995 196.521 103.037 196.334 103.056C196.157 103.084 195.965 103.098 195.76 103.098C194.967 103.098 194.351 102.874 193.912 102.426C193.483 101.978 193.268 101.334 193.268 100.494V94.208L195.018 93.62V100.41C195.018 100.727 195.069 100.979 195.172 101.166C195.275 101.343 195.41 101.469 195.578 101.544C195.755 101.619 195.951 101.656 196.166 101.656C196.287 101.656 196.404 101.647 196.516 101.628C196.628 101.609 196.754 101.581 196.894 101.544ZM201.303 103.098C200.565 103.098 199.926 102.949 199.385 102.65C198.853 102.351 198.442 101.931 198.153 101.39C197.863 100.839 197.719 100.186 197.719 99.43C197.719 98.6833 197.863 98.0347 198.153 97.484C198.442 96.924 198.853 96.4947 199.385 96.196C199.926 95.8973 200.565 95.748 201.303 95.748C202.021 95.748 202.647 95.8973 203.179 96.196C203.72 96.4947 204.135 96.924 204.425 97.484C204.723 98.0347 204.873 98.6833 204.873 99.43C204.873 100.186 204.723 100.839 204.425 101.39C204.135 101.931 203.72 102.351 203.179 102.65C202.647 102.949 202.021 103.098 201.303 103.098ZM201.303 101.754C201.881 101.754 202.325 101.563 202.633 101.18C202.95 100.788 203.109 100.205 203.109 99.43C203.109 98.6647 202.95 98.0907 202.633 97.708C202.325 97.316 201.881 97.12 201.303 97.12C200.715 97.12 200.257 97.316 199.931 97.708C199.613 98.0907 199.455 98.6647 199.455 99.43C199.455 100.205 199.613 100.788 199.931 101.18C200.248 101.563 200.705 101.754 201.303 101.754ZM214.465 103.112C213.093 103.112 212.053 102.762 211.343 102.062C210.643 101.362 210.293 100.331 210.293 98.968V93.032H212.057V99.066C212.057 99.9247 212.258 100.578 212.659 101.026C213.07 101.465 213.672 101.684 214.465 101.684C215.231 101.684 215.814 101.46 216.215 101.012C216.626 100.564 216.831 99.9153 216.831 99.066V93.032H218.623V98.968C218.623 100.321 218.264 101.353 217.545 102.062C216.836 102.762 215.809 103.112 214.465 103.112ZM220.573 106.024V97.932C220.573 97.6053 220.563 97.274 220.545 96.938C220.535 96.5927 220.507 96.2567 220.461 95.93H222.113L222.267 97.33L222.169 97.414C222.318 96.8913 222.612 96.4853 223.051 96.196C223.489 95.8973 224.007 95.748 224.605 95.748C225.221 95.748 225.762 95.9067 226.229 96.224C226.705 96.532 227.078 96.966 227.349 97.526C227.619 98.0767 227.755 98.7253 227.755 99.472C227.755 100.209 227.619 100.853 227.349 101.404C227.078 101.945 226.709 102.365 226.243 102.664C225.776 102.953 225.23 103.098 224.605 103.098C224.007 103.098 223.489 102.958 223.051 102.678C222.612 102.389 222.318 101.983 222.169 101.46L222.323 101.236V106.024H220.573ZM224.157 101.754C224.735 101.754 225.183 101.558 225.501 101.166C225.818 100.765 225.977 100.2 225.977 99.472C225.977 98.7253 225.818 98.1467 225.501 97.736C225.183 97.3253 224.735 97.12 224.157 97.12C223.559 97.12 223.102 97.3207 222.785 97.722C222.477 98.114 222.323 98.688 222.323 99.444C222.323 100.181 222.477 100.751 222.785 101.152C223.102 101.553 223.559 101.754 224.157 101.754ZM229.254 103V92.696H231.004V103H229.254ZM236.111 103.098C235.374 103.098 234.734 102.949 234.193 102.65C233.661 102.351 233.25 101.931 232.961 101.39C232.672 100.839 232.527 100.186 232.527 99.43C232.527 98.6833 232.672 98.0347 232.961 97.484C233.25 96.924 233.661 96.4947 234.193 96.196C234.734 95.8973 235.374 95.748 236.111 95.748C236.83 95.748 237.455 95.8973 237.987 96.196C238.528 96.4947 238.944 96.924 239.233 97.484C239.532 98.0347 239.681 98.6833 239.681 99.43C239.681 100.186 239.532 100.839 239.233 101.39C238.944 101.931 238.528 102.351 237.987 102.65C237.455 102.949 236.83 103.098 236.111 103.098ZM236.111 101.754C236.69 101.754 237.133 101.563 237.441 101.18C237.758 100.788 237.917 100.205 237.917 99.43C237.917 98.6647 237.758 98.0907 237.441 97.708C237.133 97.316 236.69 97.12 236.111 97.12C235.523 97.12 235.066 97.316 234.739 97.708C234.422 98.0907 234.263 98.6647 234.263 99.43C234.263 100.205 234.422 100.788 234.739 101.18C235.056 101.563 235.514 101.754 236.111 101.754ZM243.934 103.098C243.318 103.098 242.772 102.953 242.296 102.664C241.82 102.365 241.452 101.945 241.19 101.404C240.938 100.853 240.812 100.209 240.812 99.472C240.812 98.7253 240.943 98.0767 241.204 97.526C241.466 96.966 241.83 96.532 242.296 96.224C242.772 95.9067 243.318 95.748 243.934 95.748C244.532 95.748 245.05 95.8973 245.488 96.196C245.936 96.4853 246.24 96.8913 246.398 97.414L246.23 97.512V95.93H247.952V103H246.23V101.404L246.398 101.46C246.24 101.983 245.936 102.389 245.488 102.678C245.05 102.958 244.532 103.098 243.934 103.098ZM244.41 101.754C244.989 101.754 245.437 101.553 245.754 101.152C246.072 100.751 246.23 100.181 246.23 99.444C246.23 98.688 246.072 98.114 245.754 97.722C245.437 97.3207 244.989 97.12 244.41 97.12C243.822 97.12 243.365 97.3253 243.038 97.736C242.712 98.1467 242.548 98.7253 242.548 99.472C242.548 100.2 242.712 100.765 243.038 101.166C243.365 101.558 243.822 101.754 244.41 101.754ZM256.62 103H254.898V101.208L255.066 101.46C254.908 101.983 254.604 102.389 254.156 102.678C253.718 102.958 253.2 103.098 252.602 103.098C251.986 103.098 251.44 102.949 250.964 102.65C250.498 102.342 250.134 101.908 249.872 101.348C249.611 100.788 249.48 100.139 249.48 99.402C249.48 98.6647 249.606 98.0207 249.858 97.47C250.12 96.9193 250.488 96.4947 250.964 96.196C251.44 95.8973 251.986 95.748 252.602 95.748C253.2 95.748 253.718 95.8973 254.156 96.196C254.604 96.4947 254.908 96.896 255.066 97.4L254.87 97.61V92.696H256.62V103ZM253.078 101.754C253.657 101.754 254.105 101.553 254.422 101.152C254.74 100.751 254.898 100.177 254.898 99.43C254.898 98.6927 254.74 98.1233 254.422 97.722C254.105 97.3207 253.657 97.12 253.078 97.12C252.49 97.12 252.033 97.3207 251.706 97.722C251.38 98.114 251.216 98.674 251.216 99.402C251.216 100.149 251.38 100.727 251.706 101.138C252.033 101.549 252.49 101.754 253.078 101.754Z" fill="#545454"/>
<defs>
<filter id="filter0_d_129_1064" x="0" y="0" width="380" height="154" filterUnits="userSpaceOnUse" color-interpolation-filters="sRGB">
<feFlood flood-opacity="0" result="BackgroundImageFix"/>
<feColorMatrix in="SourceAlpha" type="matrix" values="0 0 0 0 0 0 0 0 0 0 0 0 0 0 0 0 0 0 127 0" result="hardAlpha"/>
<feOffset dy="4"/>
<feGaussianBlur stdDeviation="5"/>
<feColorMatrix type="matrix" values="0 0 0 0 0 0 0 0 0 0 0 0 0 0 0 0 0 0 0.08 0"/>
<feBlend mode="normal" in2="BackgroundImageFix" result="effect1_dropShadow_129_1064"/>
<feBlend mode="normal" in="SourceGraphic" in2="effect1_dropShadow_129_1064" result="shape"/>
</filter>
</defs>
</svg>
