<svg width="129" height="26" viewBox="0 0 129 26" fill="none" xmlns="http://www.w3.org/2000/svg">
<g filter="url(#filter0_d_129_1607)">
<path d="M4.1535 13.552C4.1535 13.1787 4.2015 12.7147 4.2975 12.16C4.40417 11.5947 4.6335 10.9227 4.9855 10.144L6.9535 10.832C6.77217 11.3333 6.6335 11.7653 6.5375 12.128C6.4415 12.48 6.3935 12.8267 6.3935 13.168C6.3935 13.648 6.50017 14.0587 6.7135 14.4C6.9375 14.7413 7.26283 15.0027 7.6895 15.184C8.12683 15.3653 8.66017 15.456 9.2895 15.456C9.9295 15.456 10.4628 15.3867 10.8895 15.248C11.3162 15.1093 11.6522 14.912 11.8975 14.656C12.1428 14.4107 12.3188 14.1227 12.4255 13.792C12.5322 13.4613 12.5855 13.104 12.5855 12.72C12.5855 12.4213 12.5482 12.0853 12.4735 11.712C12.4095 11.3387 12.3135 10.9333 12.1855 10.496C12.0575 10.048 11.9135 9.57867 11.7535 9.088L13.9935 8.512C14.1002 8.91733 14.1855 9.264 14.2495 9.552C14.3242 9.84 14.3882 10.08 14.4415 10.272C14.4948 10.4533 14.5375 10.6027 14.5695 10.72C14.6762 11.04 14.8202 11.28 15.0015 11.44C15.1828 11.6 15.4175 11.7067 15.7055 11.76C16.0042 11.8133 16.3615 11.84 16.7775 11.84C17.1828 11.84 17.4708 11.9467 17.6415 12.16C17.8122 12.3627 17.8975 12.6187 17.8975 12.928C17.8975 13.2587 17.7855 13.536 17.5615 13.76C17.3375 13.9733 17.0228 14.08 16.6175 14.08C16.2548 14.08 15.8922 14.032 15.5295 13.936C15.1775 13.8293 14.8735 13.6587 14.6175 13.424C14.3615 13.1893 14.1962 12.8747 14.1215 12.48L14.7135 13.12C14.6922 13.8453 14.5482 14.4907 14.2815 15.056C14.0148 15.6213 13.6415 16.1013 13.1615 16.496C12.6922 16.8907 12.1215 17.1893 11.4495 17.392C10.7882 17.5947 10.0468 17.696 9.2255 17.696C8.51083 17.696 7.84417 17.616 7.2255 17.456C6.6175 17.3067 6.07883 17.0613 5.6095 16.72C5.15083 16.3893 4.7935 15.9627 4.5375 15.44C4.2815 14.9173 4.1535 14.288 4.1535 13.552ZM9.3695 7.472C9.03883 7.472 8.75617 7.36 8.5215 7.136C8.2975 6.912 8.1855 6.63467 8.1855 6.304C8.1855 5.97333 8.2975 5.69067 8.5215 5.456C8.75617 5.22133 9.03883 5.104 9.3695 5.104C9.6895 5.104 9.9615 5.22133 10.1855 5.456C10.4202 5.69067 10.5375 5.97333 10.5375 6.304C10.5375 6.63467 10.4202 6.912 10.1855 7.136C9.9615 7.36 9.6895 7.472 9.3695 7.472ZM15.9725 14.08L16.1325 11.84C16.5165 11.84 16.8472 11.8027 17.1245 11.728C17.4018 11.6533 17.6365 11.504 17.8285 11.28C18.0205 11.0453 18.1805 10.704 18.3085 10.256C18.4472 9.808 18.5698 9.21067 18.6765 8.464L20.7725 8.816C20.7512 8.976 20.7192 9.16267 20.6765 9.376C20.6445 9.58933 20.6125 9.808 20.5805 10.032C20.5592 10.2453 20.5485 10.448 20.5485 10.64C20.5485 10.832 20.5858 11.0027 20.6605 11.152C20.7352 11.3013 20.8525 11.4293 21.0125 11.536C21.1832 11.632 21.4018 11.7067 21.6685 11.76C21.9458 11.8133 22.2818 11.84 22.6765 11.84C23.0818 11.84 23.3698 11.9467 23.5405 12.16C23.7112 12.3627 23.7965 12.6187 23.7965 12.928C23.7965 13.2587 23.6845 13.536 23.4605 13.76C23.2472 13.9733 22.9325 14.08 22.5165 14.08C22.0365 14.08 21.5992 14.0427 21.2045 13.968C20.8205 13.8933 20.4845 13.7707 20.1965 13.6C19.9192 13.4187 19.6898 13.184 19.5085 12.896C19.3378 12.5973 19.2312 12.2347 19.1885 11.808H19.9565C19.7645 12.32 19.5192 12.7307 19.2205 13.04C18.9325 13.3387 18.6072 13.5627 18.2445 13.712C17.8818 13.8613 17.5032 13.9573 17.1085 14C16.7245 14.0533 16.3458 14.08 15.9725 14.08ZM20.4365 17.792C20.1272 17.792 19.8605 17.68 19.6365 17.456C19.4232 17.2427 19.3165 16.9867 19.3165 16.688C19.3165 16.3787 19.4232 16.112 19.6365 15.888C19.8605 15.664 20.1272 15.552 20.4365 15.552C20.7352 15.552 20.9912 15.664 21.2045 15.888C21.4178 16.112 21.5245 16.3787 21.5245 16.688C21.5245 16.9867 21.4178 17.2427 21.2045 17.456C20.9912 17.68 20.7352 17.792 20.4365 17.792ZM17.6685 17.792C17.3592 17.792 17.0925 17.68 16.8685 17.456C16.6552 17.2427 16.5485 16.9867 16.5485 16.688C16.5485 16.3787 16.6552 16.112 16.8685 15.888C17.0925 15.664 17.3592 15.552 17.6685 15.552C17.9672 15.552 18.2232 15.664 18.4365 15.888C18.6498 16.112 18.7565 16.3787 18.7565 16.688C18.7565 16.9867 18.6498 17.2427 18.4365 17.456C18.2232 17.68 17.9672 17.792 17.6685 17.792ZM21.8794 14.08L22.0394 11.84C22.2847 11.84 22.4927 11.7813 22.6634 11.664C22.8447 11.536 23.0314 11.328 23.2234 11.04C23.4154 10.7413 23.6394 10.3413 23.8954 9.84C24.2154 9.2 24.546 8.69867 24.8874 8.336C25.2394 7.97333 25.5967 7.71733 25.9594 7.568C26.3327 7.408 26.706 7.328 27.0794 7.328C27.5487 7.328 27.986 7.42933 28.3914 7.632C28.7967 7.83467 29.1487 8.112 29.4474 8.464C29.746 8.80533 29.9754 9.2 30.1354 9.648C30.306 10.0853 30.3914 10.5387 30.3914 11.008C30.3914 11.5733 30.2687 12.0853 30.0234 12.544C29.7887 12.992 29.458 13.3493 29.0314 13.616C28.6154 13.872 28.1354 14 27.5914 14C27.1327 14 26.5994 13.92 25.9914 13.76C25.3834 13.6 24.7434 13.264 24.0714 12.752L24.8874 10.816C25.3674 11.1467 25.8154 11.3867 26.2314 11.536C26.658 11.6853 27.01 11.76 27.2874 11.76C27.5007 11.76 27.6767 11.7387 27.8154 11.696C27.954 11.6533 28.0554 11.584 28.1194 11.488C28.1834 11.392 28.2154 11.264 28.2154 11.104C28.2154 10.88 28.162 10.6507 28.0554 10.416C27.9487 10.1813 27.8047 9.984 27.6234 9.824C27.4527 9.65333 27.25 9.568 27.0154 9.568C26.7914 9.568 26.5994 9.65333 26.4394 9.824C26.29 9.984 26.1407 10.2187 25.9914 10.528C25.8527 10.8267 25.682 11.1787 25.4794 11.584C25.234 12.0747 24.994 12.4853 24.7594 12.816C24.5247 13.136 24.274 13.392 24.0074 13.584C23.7514 13.7653 23.4474 13.8933 23.0954 13.968C22.754 14.0427 22.3487 14.08 21.8794 14.08ZM34.0399 11.84C34.5199 11.84 34.8879 11.7973 35.1439 11.712C35.3999 11.6267 35.5759 11.5147 35.6719 11.376C35.7679 11.2373 35.8159 11.088 35.8159 10.928C35.8159 10.672 35.7412 10.3733 35.5919 10.032C35.4532 9.69067 35.2772 9.33333 35.0639 8.96C34.8505 8.58667 34.6265 8.22933 34.3919 7.888C34.1679 7.54667 33.9652 7.248 33.7839 6.992L35.6879 5.728C36.1465 6.34667 36.5412 6.96 36.8719 7.568C37.2025 8.16533 37.4692 8.72 37.6719 9.232C37.8852 9.744 38.0345 10.1813 38.1199 10.544C38.2052 10.8853 38.3332 11.152 38.5039 11.344C38.6852 11.5253 38.8932 11.6533 39.1279 11.728C39.3625 11.8027 39.5972 11.84 39.8319 11.84C40.2372 11.84 40.5252 11.9467 40.6959 12.16C40.8772 12.3627 40.9679 12.6187 40.9679 12.928C40.9679 13.2587 40.8559 13.536 40.6319 13.76C40.4185 13.9733 40.0985 14.08 39.6719 14.08C39.2025 14.08 38.7919 14.016 38.4399 13.888C38.0879 13.76 37.7892 13.5573 37.5439 13.28C37.2985 13.0027 37.0905 12.6507 36.9199 12.224L37.8959 12.432C37.8105 12.7307 37.6132 13.008 37.3039 13.264C37.0052 13.5093 36.6052 13.712 36.1039 13.872C35.6132 14.0213 35.0319 14.096 34.3599 14.096C34.0399 14.096 33.6825 14.0693 33.2879 14.016C32.9039 13.9627 32.5199 13.8827 32.1359 13.776C31.7625 13.6693 31.4212 13.5307 31.1119 13.36L31.8959 11.328C32.2905 11.4987 32.6692 11.6267 33.0319 11.712C33.4052 11.7973 33.7412 11.84 34.0399 11.84ZM49.5165 14.08C49.0258 14.08 48.5672 14.0427 48.1405 13.968C47.7245 13.8933 47.3405 13.7653 46.9885 13.584C46.6365 13.392 46.3218 13.1307 46.0445 12.8C45.7778 12.4693 45.5538 12.0533 45.3725 11.552L46.6365 10.544C46.8285 10.8853 47.0632 11.152 47.3405 11.344C47.6178 11.5253 47.9485 11.6533 48.3325 11.728C48.7165 11.8027 49.1645 11.84 49.6765 11.84C50.0818 11.84 50.3698 11.9467 50.5405 12.16C50.7112 12.3627 50.7965 12.6187 50.7965 12.928C50.7965 13.2587 50.6845 13.536 50.4605 13.76C50.2472 13.9733 49.9325 14.08 49.5165 14.08ZM39.0525 14.08L39.2125 11.84C39.7885 11.84 40.3592 11.808 40.9245 11.744C41.4898 11.68 42.0392 11.584 42.5725 11.456C43.1058 11.328 43.6125 11.1627 44.0925 10.96C44.5832 10.7573 45.0418 10.512 45.4685 10.224C45.1485 10.032 44.8018 9.86667 44.4285 9.728C44.0552 9.58933 43.6552 9.488 43.2285 9.424C42.8125 9.34933 42.3698 9.312 41.9005 9.312C41.7298 9.312 41.5485 9.31733 41.3565 9.328C41.1752 9.33867 40.9885 9.36 40.7965 9.392C40.6045 9.41333 40.4125 9.44533 40.2205 9.488L39.9005 7.296C40.2098 7.21067 40.5352 7.152 40.8765 7.12C41.2285 7.07733 41.5378 7.056 41.8045 7.056C42.3805 7.056 42.9085 7.12 43.3885 7.248C43.8792 7.376 44.3272 7.536 44.7325 7.728C45.1485 7.92 45.5325 8.112 45.8845 8.304C46.2472 8.496 46.5885 8.656 46.9085 8.784C47.2392 8.912 47.5592 8.976 47.8685 8.976H48.4605L48.7165 11.104C48.2578 11.1253 47.8258 11.216 47.4205 11.376C47.0258 11.5253 46.6312 11.7173 46.2365 11.952C45.8525 12.176 45.4365 12.4107 44.9885 12.656C44.5512 12.9013 44.0552 13.1307 43.5005 13.344C42.9458 13.5573 42.3058 13.7333 41.5805 13.872C40.8552 14.0107 40.0125 14.08 39.0525 14.08ZM41.8045 5.408C41.4738 5.408 41.1912 5.296 40.9565 5.072C40.7325 4.848 40.6205 4.57067 40.6205 4.24C40.6205 3.90933 40.7325 3.62667 40.9565 3.392C41.1912 3.15733 41.4738 3.04 41.8045 3.04C42.1245 3.04 42.3965 3.15733 42.6205 3.392C42.8552 3.62667 42.9725 3.90933 42.9725 4.24C42.9725 4.57067 42.8552 4.848 42.6205 5.072C42.3965 5.296 42.1245 5.408 41.8045 5.408ZM48.8812 14.08L49.0412 11.84C49.4252 11.84 49.7559 11.8027 50.0332 11.728C50.3106 11.6533 50.5452 11.504 50.7372 11.28C50.9292 11.0453 51.0892 10.704 51.2172 10.256C51.3559 9.808 51.4786 9.21067 51.5852 8.464L53.6812 8.816C53.6599 8.976 53.6279 9.16267 53.5852 9.376C53.5532 9.58933 53.5212 9.808 53.4892 10.032C53.4679 10.2453 53.4572 10.448 53.4572 10.64C53.4572 10.832 53.4946 11.0027 53.5692 11.152C53.6439 11.3013 53.7612 11.4293 53.9212 11.536C54.0919 11.632 54.3106 11.7067 54.5772 11.76C54.8546 11.8133 55.1906 11.84 55.5852 11.84C55.9906 11.84 56.2786 11.9467 56.4492 12.16C56.6199 12.3627 56.7052 12.6187 56.7052 12.928C56.7052 13.2587 56.5932 13.536 56.3692 13.76C56.1559 13.9733 55.8412 14.08 55.4252 14.08C54.9452 14.08 54.5079 14.0427 54.1132 13.968C53.7292 13.8933 53.3932 13.7707 53.1052 13.6C52.8279 13.4187 52.5986 13.184 52.4172 12.896C52.2466 12.5973 52.1399 12.2347 52.0972 11.808H52.8652C52.6732 12.32 52.4279 12.7307 52.1292 13.04C51.8412 13.3387 51.5159 13.5627 51.1532 13.712C50.7906 13.8613 50.4119 13.9573 50.0172 14C49.6332 14.0533 49.2546 14.08 48.8812 14.08ZM54.0172 7.024C53.7079 7.024 53.4412 6.91733 53.2172 6.704C53.0039 6.48 52.8972 6.21867 52.8972 5.92C52.8972 5.61067 53.0039 5.344 53.2172 5.12C53.4412 4.896 53.7079 4.784 54.0172 4.784C54.3159 4.784 54.5719 4.896 54.7852 5.12C54.9986 5.344 55.1052 5.61067 55.1052 5.92C55.1052 6.21867 54.9986 6.48 54.7852 6.704C54.5719 6.91733 54.3159 7.024 54.0172 7.024ZM51.2492 7.008C50.9399 7.008 50.6732 6.90133 50.4492 6.688C50.2359 6.464 50.1292 6.20267 50.1292 5.904C50.1292 5.59467 50.2359 5.328 50.4492 5.104C50.6732 4.88 50.9399 4.768 51.2492 4.768C51.5479 4.768 51.8039 4.88 52.0172 5.104C52.2306 5.328 52.3372 5.59467 52.3372 5.904C52.3372 6.20267 52.2306 6.464 52.0172 6.688C51.8039 6.90133 51.5479 7.008 51.2492 7.008ZM54.7881 14.08L54.9481 11.84C55.3001 11.84 55.5881 11.8133 55.8121 11.76C56.0361 11.696 56.2175 11.5627 56.3561 11.36C56.5055 11.1467 56.6335 10.832 56.7401 10.416C56.8575 9.98933 56.9855 9.41333 57.1241 8.688L59.2041 9.072C59.1615 9.30667 59.1028 9.6 59.0281 9.952C58.9641 10.304 58.9321 10.608 58.9321 10.864C58.9321 11.0667 58.9695 11.2427 59.0441 11.392C59.1295 11.5307 59.2681 11.6427 59.4601 11.728C59.6628 11.8027 59.9401 11.84 60.2921 11.84C60.5695 11.84 60.8041 11.8133 60.9961 11.76C61.1988 11.696 61.3695 11.5627 61.5081 11.36C61.6575 11.1467 61.7855 10.8213 61.8921 10.384C62.0095 9.936 62.1215 9.33333 62.2281 8.576L64.3401 8.912C64.2975 9.15733 64.2548 9.41867 64.2121 9.696C64.1695 9.97333 64.1321 10.2293 64.1001 10.464C64.0681 10.6987 64.0521 10.8907 64.0521 11.04C64.0521 11.1787 64.0895 11.312 64.1641 11.44C64.2495 11.5573 64.3988 11.6533 64.6121 11.728C64.8361 11.8027 65.1455 11.84 65.5401 11.84C66.0201 11.84 66.3721 11.7387 66.5961 11.536C66.8308 11.3227 66.9481 11.0027 66.9481 10.576C66.9481 10.3307 66.9428 10.0693 66.9321 9.792C66.9215 9.504 66.9001 9.184 66.8681 8.832C66.8468 8.46933 66.8041 8.05867 66.7401 7.6L68.8041 7.44C68.8788 8.35733 68.9641 9.104 69.0601 9.68C69.1561 10.256 69.2841 10.704 69.4441 11.024C69.6148 11.3333 69.8388 11.5467 70.1161 11.664C70.4041 11.7813 70.7775 11.84 71.2361 11.84C71.6415 11.84 71.9295 11.9467 72.1001 12.16C72.2815 12.3627 72.3721 12.6187 72.3721 12.928C72.3721 13.2587 72.2601 13.536 72.0361 13.76C71.8228 13.9733 71.5028 14.08 71.0761 14.08C70.7881 14.08 70.4895 14.0533 70.1801 14C69.8708 13.9573 69.5721 13.8667 69.2841 13.728C68.9961 13.5787 68.7401 13.3653 68.5161 13.088C68.2921 12.8107 68.1161 12.4427 67.9881 11.984L68.2761 12.08C68.1268 12.6133 67.9241 13.024 67.6681 13.312C67.4121 13.6 67.0975 13.8027 66.7241 13.92C66.3508 14.0267 65.9028 14.08 65.3801 14.08C64.9001 14.08 64.4735 14.016 64.1001 13.888C63.7268 13.76 63.4281 13.552 63.2041 13.264C62.9908 12.9653 62.8788 12.5653 62.8681 12.064H63.4121C63.1988 12.6613 62.9535 13.104 62.6761 13.392C62.3988 13.68 62.0628 13.8667 61.6681 13.952C61.2735 14.0373 60.7775 14.08 60.1801 14.08C59.8175 14.08 59.4601 14.0427 59.1081 13.968C58.7561 13.8827 58.4415 13.696 58.1641 13.408C57.8868 13.1093 57.6841 12.64 57.5561 12L58.4201 11.968C58.1961 12.5973 57.9028 13.0613 57.5401 13.36C57.1881 13.6587 56.7828 13.856 56.3241 13.952C55.8655 14.0373 55.3535 14.08 54.7881 14.08ZM70.445 14.08L70.605 11.84C70.8717 11.84 71.0743 11.7867 71.213 11.68C71.3517 11.5733 71.4903 11.3867 71.629 11.12C71.7677 10.8533 71.9597 10.4907 72.205 10.032C72.4717 9.52 72.749 9.09333 73.037 8.752C73.325 8.4 73.613 8.12267 73.901 7.92C74.1997 7.70667 74.493 7.55733 74.781 7.472C75.0797 7.376 75.373 7.328 75.661 7.328C76.0557 7.328 76.4237 7.41333 76.765 7.584C77.117 7.744 77.453 8.02667 77.773 8.432C78.093 8.82667 78.397 9.37067 78.685 10.064C78.8877 10.544 79.0903 10.912 79.293 11.168C79.4957 11.424 79.7037 11.6 79.917 11.696C80.141 11.792 80.365 11.84 80.589 11.84C80.9943 11.84 81.2823 11.9467 81.453 12.16C81.6237 12.3627 81.709 12.6187 81.709 12.928C81.709 13.2587 81.597 13.536 81.373 13.76C81.149 13.9733 80.8343 14.08 80.429 14.08C79.9063 14.08 79.4317 13.9947 79.005 13.824C78.5783 13.6533 78.2423 13.3973 77.997 13.056L78.461 12.704C78.365 12.928 78.221 13.1627 78.029 13.408C77.8477 13.6533 77.6077 13.8613 77.309 14.032C77.021 14.2027 76.6743 14.288 76.269 14.288C76.0023 14.288 75.6877 14.2347 75.325 14.128C74.973 14.032 74.605 13.8667 74.221 13.632C73.8477 13.3867 73.501 13.056 73.181 12.64C72.9783 13.0133 72.7543 13.3067 72.509 13.52C72.2637 13.7227 71.9757 13.8667 71.645 13.952C71.3143 14.0373 70.9143 14.08 70.445 14.08ZM74.109 10.752C74.2157 10.912 74.3437 11.072 74.493 11.232C74.6423 11.392 74.8077 11.536 74.989 11.664C75.1703 11.7813 75.3623 11.8773 75.565 11.952C75.7783 12.0267 75.9863 12.064 76.189 12.064C76.4023 12.064 76.5783 11.984 76.717 11.824C76.8557 11.6533 76.861 11.4027 76.733 11.072C76.6797 10.9333 76.605 10.7787 76.509 10.608C76.4237 10.4267 76.3223 10.256 76.205 10.096C76.0983 9.936 75.9757 9.80267 75.837 9.696C75.709 9.58933 75.5757 9.536 75.437 9.536C75.2983 9.536 75.1543 9.57867 75.005 9.664C74.8557 9.74933 74.7063 9.88267 74.557 10.064C74.4077 10.2347 74.2583 10.464 74.109 10.752ZM79.7894 14.08L79.9494 11.84C80.44 11.84 80.792 11.792 81.0054 11.696C81.2187 11.5893 81.3467 11.3973 81.3894 11.12C81.432 10.832 81.4427 10.416 81.4214 9.872L81.1334 2.288H83.3894L83.7094 10.032C83.7307 10.6507 83.704 11.2107 83.6294 11.712C83.5654 12.2027 83.4 12.624 83.1334 12.976C82.8774 13.328 82.4774 13.6 81.9334 13.792C81.4 13.984 80.6854 14.08 79.7894 14.08ZM85.1794 14L84.8434 2.288H87.0834L87.4194 14H85.1794ZM99.5935 14.08C98.8362 14.08 98.1802 13.984 97.6255 13.792C97.0815 13.5893 96.6602 13.2693 96.3615 12.832C96.0628 12.384 95.8922 11.7867 95.8495 11.04L95.5615 4.592H97.8175L98.0895 10.256C98.1108 10.6933 98.1802 11.0293 98.2975 11.264C98.4255 11.488 98.6068 11.6427 98.8415 11.728C99.0762 11.8027 99.3802 11.84 99.7535 11.84C100.159 11.84 100.447 11.9467 100.617 12.16C100.788 12.3627 100.873 12.6187 100.873 12.928C100.873 13.2587 100.761 13.536 100.537 13.76C100.324 13.9733 100.009 14.08 99.5935 14.08ZM96.6655 12.592C95.9508 12.752 95.2628 12.8267 94.6015 12.816C93.9402 12.7947 93.3482 12.6773 92.8255 12.464C92.3028 12.24 91.8868 11.92 91.5775 11.504C91.2788 11.088 91.1295 10.56 91.1295 9.92C91.1295 9.35467 91.2522 8.84267 91.4975 8.384C91.7535 7.91467 92.1055 7.504 92.5535 7.152C93.0122 6.8 93.5455 6.50133 94.1535 6.256C94.7615 6.01067 95.4228 5.824 96.1375 5.696L96.3615 7.968C95.9028 7.98933 95.4868 8.05333 95.1135 8.16C94.7508 8.256 94.4362 8.384 94.1695 8.544C93.9135 8.704 93.7162 8.88533 93.5775 9.088C93.4388 9.28 93.3695 9.488 93.3695 9.712C93.3695 9.89333 93.4335 10.0427 93.5615 10.16C93.6895 10.2773 93.8602 10.3733 94.0735 10.448C94.2868 10.512 94.5322 10.5493 94.8095 10.56C95.0868 10.5707 95.3695 10.5547 95.6575 10.512C95.9562 10.4693 96.2495 10.4 96.5375 10.304L96.6655 12.592ZM96.7135 2.944C96.4042 2.944 96.1375 2.83733 95.9135 2.624C95.7002 2.4 95.5935 2.13867 95.5935 1.84C95.5935 1.53067 95.7002 1.264 95.9135 1.04C96.1375 0.815999 96.4042 0.704 96.7135 0.704C97.0122 0.704 97.2682 0.815999 97.4815 1.04C97.6948 1.264 97.8015 1.53067 97.8015 1.84C97.8015 2.13867 97.6948 2.4 97.4815 2.624C97.2682 2.83733 97.0122 2.944 96.7135 2.944ZM93.9455 2.928C93.6362 2.928 93.3695 2.82133 93.1455 2.608C92.9322 2.384 92.8255 2.12267 92.8255 1.824C92.8255 1.51467 92.9322 1.248 93.1455 1.024C93.3695 0.8 93.6362 0.688 93.9455 0.688C94.2442 0.688 94.5002 0.8 94.7135 1.024C94.9268 1.248 95.0335 1.51467 95.0335 1.824C95.0335 2.12267 94.9268 2.384 94.7135 2.608C94.5002 2.82133 94.2442 2.928 93.9455 2.928ZM98.9481 14.08L99.1081 11.84C99.3748 11.84 99.5775 11.7867 99.7161 11.68C99.8548 11.5733 99.9935 11.3867 100.132 11.12C100.271 10.8533 100.463 10.4907 100.708 10.032C100.975 9.52 101.252 9.09333 101.54 8.752C101.828 8.4 102.116 8.12267 102.404 7.92C102.703 7.70667 102.996 7.55733 103.284 7.472C103.583 7.376 103.876 7.328 104.164 7.328C104.559 7.328 104.927 7.41333 105.268 7.584C105.62 7.744 105.956 8.02667 106.276 8.432C106.596 8.82667 106.9 9.37067 107.188 10.064C107.391 10.544 107.593 10.912 107.796 11.168C107.999 11.424 108.207 11.6 108.42 11.696C108.644 11.792 108.868 11.84 109.092 11.84C109.497 11.84 109.785 11.9467 109.956 12.16C110.127 12.3627 110.212 12.6187 110.212 12.928C110.212 13.2587 110.1 13.536 109.876 13.76C109.652 13.9733 109.337 14.08 108.932 14.08C108.409 14.08 107.935 13.9947 107.508 13.824C107.081 13.6533 106.745 13.3973 106.5 13.056L106.964 12.704C106.868 12.928 106.724 13.1627 106.532 13.408C106.351 13.6533 106.111 13.8613 105.812 14.032C105.524 14.2027 105.177 14.288 104.772 14.288C104.505 14.288 104.191 14.2347 103.828 14.128C103.476 14.032 103.108 13.8667 102.724 13.632C102.351 13.3867 102.004 13.056 101.684 12.64C101.481 13.0133 101.257 13.3067 101.012 13.52C100.767 13.7227 100.479 13.8667 100.148 13.952C99.8175 14.0373 99.4175 14.08 98.9481 14.08ZM102.612 10.752C102.719 10.912 102.847 11.072 102.996 11.232C103.145 11.392 103.311 11.536 103.492 11.664C103.673 11.7813 103.865 11.8773 104.068 11.952C104.281 12.0267 104.489 12.064 104.692 12.064C104.905 12.064 105.081 11.984 105.22 11.824C105.359 11.6533 105.364 11.4027 105.236 11.072C105.183 10.9333 105.108 10.7787 105.012 10.608C104.927 10.4267 104.825 10.256 104.708 10.096C104.601 9.936 104.479 9.80267 104.34 9.696C104.212 9.58933 104.079 9.536 103.94 9.536C103.801 9.536 103.657 9.57867 103.508 9.664C103.359 9.74933 103.209 9.88267 103.06 10.064C102.911 10.2347 102.761 10.464 102.612 10.752ZM108.292 14.08L108.452 11.84C108.922 11.84 109.29 11.808 109.556 11.744C109.834 11.68 110.031 11.5627 110.148 11.392C110.266 11.2107 110.324 10.9547 110.324 10.624C110.324 10.3253 110.282 9.968 110.196 9.552C110.122 9.136 110.02 8.704 109.892 8.256C109.764 7.808 109.636 7.39733 109.508 7.024L111.716 6.416C111.844 6.77867 111.972 7.2 112.1 7.68C112.228 8.16 112.335 8.656 112.42 9.168C112.516 9.66933 112.564 10.1547 112.564 10.624C112.564 11.2107 112.49 11.7067 112.34 12.112C112.191 12.5067 111.983 12.8373 111.716 13.104C111.46 13.36 111.151 13.5627 110.788 13.712C110.436 13.8507 110.047 13.9467 109.62 14C109.194 14.0533 108.751 14.08 108.292 14.08ZM108.916 4.752L108.644 3.632C109.018 3.568 109.295 3.51467 109.476 3.472C109.668 3.42933 109.871 3.38133 110.084 3.328L109.924 3.728C109.647 3.632 109.38 3.44533 109.124 3.168C108.879 2.88 108.756 2.55467 108.756 2.192C108.756 1.808 108.842 1.49867 109.012 1.264C109.183 1.02933 109.402 0.858666 109.668 0.751999C109.935 0.645332 110.212 0.591999 110.5 0.591999C110.66 0.591999 110.81 0.602666 110.948 0.624C111.098 0.645333 111.231 0.677333 111.348 0.719999L111.22 1.872C111.114 1.85067 111.007 1.82933 110.9 1.808C110.794 1.78667 110.676 1.776 110.548 1.776C110.41 1.776 110.282 1.824 110.164 1.92C110.058 2.00533 110.004 2.112 110.004 2.24C110.004 2.42133 110.068 2.58133 110.196 2.72C110.324 2.85867 110.474 2.97067 110.644 3.056C110.826 3.13067 110.975 3.17333 111.092 3.184L110.212 3.28C110.5 3.20533 110.772 3.13067 111.028 3.056C111.284 2.97067 111.524 2.88533 111.748 2.8L112.068 3.872C111.802 3.968 111.487 4.07467 111.124 4.192C110.772 4.29867 110.404 4.4 110.02 4.496C109.647 4.592 109.279 4.67733 108.916 4.752ZM117.803 14.08C116.811 14.08 116.043 13.9787 115.499 13.776C114.965 13.5733 114.592 13.2587 114.379 12.832C114.165 12.3947 114.043 11.8453 114.011 11.184L113.675 2.288H115.915L116.251 10.112C116.272 10.6027 116.325 10.9707 116.411 11.216C116.496 11.4613 116.656 11.6267 116.891 11.712C117.136 11.7973 117.493 11.84 117.963 11.84C118.368 11.84 118.656 11.9467 118.827 12.16C119.008 12.3627 119.099 12.6187 119.099 12.928C119.099 13.2587 118.987 13.536 118.763 13.76C118.539 13.9733 118.219 14.08 117.803 14.08ZM117.184 14.08L117.344 11.856C118.23 11.856 118.939 11.8507 119.472 11.84C120.016 11.8293 120.438 11.808 120.736 11.776C121.046 11.7333 121.275 11.6853 121.424 11.632C121.574 11.568 121.702 11.4987 121.808 11.424C121.936 11.328 122.043 11.2 122.128 11.04C122.224 10.8693 122.299 10.6453 122.352 10.368C122.406 10.0907 122.432 9.744 122.432 9.328C122.432 8.80533 122.384 8.368 122.288 8.016C122.203 7.65333 122.075 7.38133 121.904 7.2C121.744 7.01867 121.547 6.928 121.312 6.928C121.142 6.928 120.982 6.98667 120.832 7.104C120.683 7.21067 120.56 7.36 120.464 7.552C120.368 7.744 120.32 7.96267 120.32 8.208C120.32 8.34667 120.358 8.46933 120.432 8.576C120.507 8.68267 120.624 8.76267 120.784 8.816C120.944 8.86933 121.147 8.896 121.392 8.896C121.627 8.896 121.872 8.86933 122.128 8.816C122.395 8.752 122.64 8.66667 122.864 8.56L122.928 10.464C122.758 10.5813 122.56 10.688 122.336 10.784C122.112 10.88 121.872 10.9547 121.616 11.008C121.371 11.0507 121.12 11.072 120.864 11.072C120.299 11.072 119.808 10.9973 119.392 10.848C118.987 10.688 118.672 10.432 118.448 10.08C118.224 9.728 118.112 9.248 118.112 8.64C118.112 8.17067 118.192 7.70667 118.352 7.248C118.512 6.77867 118.742 6.35733 119.04 5.984C119.339 5.6 119.691 5.296 120.096 5.072C120.502 4.83733 120.95 4.72 121.44 4.72C122.166 4.72 122.763 4.93333 123.232 5.36C123.712 5.776 124.064 6.34133 124.288 7.056C124.523 7.76 124.64 8.544 124.64 9.408C124.64 10.1653 124.528 10.8267 124.304 11.392C124.08 11.9467 123.814 12.384 123.504 12.704C123.248 12.9707 122.955 13.1947 122.624 13.376C122.294 13.5573 121.888 13.7013 121.408 13.808C120.939 13.904 120.358 13.9733 119.664 14.016C118.982 14.0587 118.155 14.08 117.184 14.08ZM122.8 3.264C122.491 3.264 122.224 3.15733 122 2.944C121.787 2.72 121.68 2.45867 121.68 2.16C121.68 1.85067 121.787 1.584 122 1.36C122.224 1.136 122.491 1.024 122.8 1.024C123.099 1.024 123.355 1.136 123.568 1.36C123.782 1.584 123.888 1.85067 123.888 2.16C123.888 2.45867 123.782 2.72 123.568 2.944C123.355 3.15733 123.099 3.264 122.8 3.264ZM120.032 3.248C119.723 3.248 119.456 3.14133 119.232 2.928C119.019 2.704 118.912 2.44267 118.912 2.144C118.912 1.83467 119.019 1.568 119.232 1.344C119.456 1.12 119.723 1.008 120.032 1.008C120.331 1.008 120.587 1.12 120.8 1.344C121.014 1.568 121.12 1.83467 121.12 2.144C121.12 2.44267 121.014 2.704 120.8 2.928C120.587 3.14133 120.331 3.248 120.032 3.248Z" fill="#1E232C"/>
</g>
<defs>
<filter id="filter0_d_129_1607" x="0.15332" y="0.591995" width="128.487" height="25.2" filterUnits="userSpaceOnUse" color-interpolation-filters="sRGB">
<feFlood flood-opacity="0" result="BackgroundImageFix"/>
<feColorMatrix in="SourceAlpha" type="matrix" values="0 0 0 0 0 0 0 0 0 0 0 0 0 0 0 0 0 0 127 0" result="hardAlpha"/>
<feOffset dy="4"/>
<feGaussianBlur stdDeviation="2"/>
<feComposite in2="hardAlpha" operator="out"/>
<feColorMatrix type="matrix" values="0 0 0 0 0 0 0 0 0 0 0 0 0 0 0 0 0 0 0.19 0"/>
<feBlend mode="normal" in2="BackgroundImageFix" result="effect1_dropShadow_129_1607"/>
<feBlend mode="normal" in="SourceGraphic" in2="effect1_dropShadow_129_1607" result="shape"/>
</filter>
</defs>
</svg>
