<svg width="50" height="49" viewBox="0 0 50 49" fill="none" xmlns="http://www.w3.org/2000/svg">
<path d="M25.0592 4.34594C21.1149 4.34594 17.2591 5.51892 13.9795 7.71655C10.6999 9.91417 8.14373 13.0377 6.63429 16.6923C5.12485 20.3468 4.72991 24.3681 5.49942 28.2477C6.26893 32.1274 8.16831 35.691 10.9574 38.4881C13.7465 41.2851 17.3 43.1899 21.1685 43.9616C25.0371 44.7333 29.047 44.3373 32.6911 42.8235C36.3352 41.3098 39.4499 38.7463 41.6412 35.4573C43.8326 32.1684 45.0023 28.3016 45.0023 24.3459C44.9967 19.0433 42.8937 13.9595 39.1549 10.21C35.4161 6.46047 30.3467 4.35154 25.0592 4.34594ZM14.7195 37.7113C15.8293 35.9707 17.3582 34.5383 19.1652 33.546C20.9721 32.5538 22.9991 32.0337 25.0592 32.0337C27.1194 32.0337 29.1463 32.5538 30.9533 33.546C32.7603 34.5383 34.2891 35.9707 35.3989 37.7113C32.4426 40.0171 28.8043 41.2689 25.0592 41.2689C21.3141 41.2689 17.6758 40.0171 14.7195 37.7113ZM18.9229 22.8075C18.9229 21.5904 19.2828 20.4006 19.9571 19.3886C20.6313 18.3766 21.5897 17.5878 22.711 17.1221C23.8322 16.6563 25.066 16.5344 26.2564 16.7719C27.4467 17.0093 28.5401 17.5954 29.3983 18.456C30.2564 19.3167 30.8409 20.4132 31.0776 21.6069C31.3144 22.8006 31.1929 24.038 30.7284 25.1624C30.264 26.2869 29.4775 27.248 28.4684 27.9242C27.4593 28.6004 26.2729 28.9613 25.0592 28.9613C23.4318 28.9613 21.871 28.313 20.7202 27.1589C19.5694 26.0048 18.9229 24.4396 18.9229 22.8075ZM37.6694 35.5786C35.9584 33.0922 33.5526 31.1687 30.7545 30.0498C32.2575 28.8626 33.3543 27.2351 33.8923 25.3938C34.4303 23.5525 34.3828 21.5888 33.7563 19.7758C33.1299 17.9629 31.9557 16.3907 30.3969 15.278C28.8382 14.1653 26.9725 13.5674 25.0592 13.5674C23.146 13.5674 21.2802 14.1653 19.7215 15.278C18.1628 16.3907 16.9886 17.9629 16.3621 19.7758C15.7357 21.5888 15.6882 23.5525 16.2262 25.3938C16.7641 27.2351 17.8609 28.8626 19.364 30.0498C16.5658 31.1687 14.1601 33.0922 12.4491 35.5786C10.2872 33.1405 8.87408 30.1276 8.38006 26.9027C7.88603 23.6778 8.33212 20.3784 9.6646 17.4019C10.9971 14.4254 13.1591 11.8986 15.8904 10.1258C18.6217 8.35305 21.8058 7.40987 25.0592 7.40987C28.3127 7.40987 31.4967 8.35305 34.228 10.1258C36.9593 11.8986 39.1214 14.4254 40.4539 17.4019C41.7864 20.3784 42.2324 23.6778 41.7384 26.9027C41.2444 30.1276 39.8313 33.1405 37.6694 35.5786Z" fill="#0B8FAC"/>
</svg>
