<svg width="164" height="29" viewBox="0 0 164 29" fill="none" xmlns="http://www.w3.org/2000/svg">
<path d="M11.872 21.588L12.6 17.668C14.3733 17.6867 15.8013 17.64 16.884 17.528C17.9853 17.3973 18.816 17.164 19.376 16.828C19.9547 16.4733 20.328 15.9787 20.496 15.344C20.6827 14.6907 20.748 13.86 20.692 12.852L20.076 0.503999H23.996L24.612 13.048C24.668 14.168 24.7987 15.0267 25.004 15.624C25.2093 16.2213 25.5173 16.6413 25.928 16.884C26.3387 17.108 26.88 17.22 27.552 17.22C28.2427 17.22 28.7373 17.4067 29.036 17.78C29.3533 18.1347 29.512 18.5827 29.512 19.124C29.512 19.7027 29.316 20.188 28.924 20.58C28.532 20.9533 27.9813 21.14 27.272 21.14C26.4507 21.14 25.7133 21.0373 25.06 20.832C24.4067 20.6267 23.8653 20.272 23.436 19.768C23.0067 19.2453 22.7173 18.5453 22.568 17.668H23.828C23.3987 18.5827 22.8107 19.3107 22.064 19.852C21.336 20.3933 20.4587 20.7853 19.432 21.028C18.424 21.2893 17.2853 21.448 16.016 21.504C14.7467 21.5787 13.3653 21.6067 11.872 21.588ZM10.528 14.952L9.8 12.18C10.4533 12.012 10.9853 11.8627 11.396 11.732C11.8253 11.6013 12.1427 11.4707 12.348 11.34C12.5533 11.2093 12.656 11.0787 12.656 10.948C12.656 10.78 12.572 10.6027 12.404 10.416C12.236 10.2293 12.0493 10.0147 11.844 9.772C11.6387 9.52933 11.452 9.25867 11.284 8.96C11.116 8.66133 11.032 8.316 11.032 7.924C11.032 7.45733 11.1627 7.01867 11.424 6.608C11.6853 6.17867 12.1053 5.768 12.684 5.376C13.2813 4.96533 14.0653 4.564 15.036 4.172L16.24 6.664C15.456 6.98133 14.924 7.26133 14.644 7.504C14.3827 7.728 14.252 7.94267 14.252 8.148C14.252 8.316 14.336 8.512 14.504 8.736C14.672 8.96 14.8587 9.212 15.064 9.492C15.288 9.75333 15.484 10.052 15.652 10.388C15.82 10.7053 15.904 11.0507 15.904 11.424C15.904 11.7227 15.8387 12.0307 15.708 12.348C15.596 12.6653 15.3533 12.9733 14.98 13.272C14.6253 13.5707 14.0933 13.86 13.384 14.14C12.6747 14.42 11.7227 14.6907 10.528 14.952ZM11.872 21.588C9.856 21.588 8.148 21.4293 6.748 21.112C5.36667 20.8133 4.23733 20.384 3.36 19.824C2.50133 19.2453 1.876 18.5733 1.484 17.808C1.092 17.0427 0.896 16.2027 0.896 15.288C0.896 14.6907 0.942667 14.0933 1.036 13.496C1.148 12.88 1.27867 12.2827 1.428 11.704C1.596 11.1253 1.74533 10.6027 1.876 10.136L5.376 10.948C5.30133 11.284 5.21733 11.648 5.124 12.04C5.03067 12.432 4.956 12.8147 4.9 13.188C4.844 13.5427 4.816 13.8693 4.816 14.168C4.816 14.8587 5.05867 15.4747 5.544 16.016C6.048 16.5387 6.86933 16.9493 8.008 17.248C9.14667 17.528 10.6773 17.668 12.6 17.668L13.16 20.692L11.872 21.588ZM27.2617 21.14L27.5417 17.22C28.0084 17.22 28.3631 17.1267 28.6057 16.94C28.8484 16.7533 29.0911 16.4267 29.3337 15.96C29.5764 15.4933 29.9124 14.8587 30.3417 14.056C30.8084 13.16 31.2937 12.4133 31.7977 11.816C32.3017 11.2 32.8057 10.7147 33.3097 10.36C33.8324 9.98667 34.3457 9.72533 34.8497 9.576C35.3724 9.408 35.8857 9.324 36.3897 9.324C37.0804 9.324 37.7244 9.47333 38.3217 9.772C38.9377 10.052 39.5257 10.5467 40.0857 11.256C40.6457 11.9467 41.1777 12.8987 41.6817 14.112C42.0364 14.952 42.3911 15.596 42.7457 16.044C43.1004 16.492 43.4644 16.8 43.8377 16.968C44.2297 17.136 44.6217 17.22 45.0137 17.22C45.7231 17.22 46.2271 17.4067 46.5257 17.78C46.8244 18.1347 46.9737 18.5827 46.9737 19.124C46.9737 19.7027 46.7777 20.188 46.3857 20.58C45.9937 20.9533 45.4431 21.14 44.7337 21.14C43.8191 21.14 42.9884 20.9907 42.2417 20.692C41.4951 20.3933 40.9071 19.9453 40.4777 19.348L41.2897 18.732C41.1217 19.124 40.8697 19.5347 40.5337 19.964C40.2164 20.3933 39.7964 20.7573 39.2737 21.056C38.7697 21.3547 38.1631 21.504 37.4537 21.504C36.9871 21.504 36.4364 21.4107 35.8017 21.224C35.1857 21.056 34.5417 20.7667 33.8697 20.356C33.2164 19.9267 32.6097 19.348 32.0497 18.62C31.6951 19.2733 31.3031 19.7867 30.8737 20.16C30.4444 20.5147 29.9404 20.7667 29.3617 20.916C28.7831 21.0653 28.0831 21.14 27.2617 21.14ZM33.6737 15.316C33.8604 15.596 34.0844 15.876 34.3457 16.156C34.6071 16.436 34.8964 16.688 35.2137 16.912C35.5311 17.1173 35.8671 17.2853 36.2217 17.416C36.5951 17.5467 36.9591 17.612 37.3137 17.612C37.6871 17.612 37.9951 17.472 38.2377 17.192C38.4804 16.8933 38.4897 16.4547 38.2657 15.876C38.1724 15.6333 38.0417 15.3627 37.8737 15.064C37.7244 14.7467 37.5471 14.448 37.3417 14.168C37.1551 13.888 36.9404 13.6547 36.6977 13.468C36.4737 13.2813 36.2404 13.188 35.9977 13.188C35.7551 13.188 35.5031 13.2627 35.2417 13.412C34.9804 13.5613 34.7191 13.7947 34.4577 14.112C34.1964 14.4107 33.9351 14.812 33.6737 15.316ZM44.7344 21.14L45.0144 17.22C45.6864 17.22 46.265 17.1547 46.7504 17.024C47.2357 16.8933 47.6464 16.632 47.9824 16.24C48.3184 15.8293 48.5984 15.232 48.8224 14.448C49.065 13.664 49.2797 12.6187 49.4664 11.312L53.1344 11.928C53.097 12.208 53.041 12.5347 52.9664 12.908C52.9104 13.2813 52.8544 13.664 52.7984 14.056C52.761 14.4293 52.7424 14.784 52.7424 15.12C52.7424 15.456 52.8077 15.7547 52.9384 16.016C53.069 16.2773 53.2744 16.5013 53.5544 16.688C53.853 16.856 54.2357 16.9867 54.7024 17.08C55.1877 17.1733 55.7757 17.22 56.4664 17.22C57.1757 17.22 57.6797 17.4067 57.9784 17.78C58.277 18.1347 58.4264 18.5827 58.4264 19.124C58.4264 19.7027 58.2304 20.188 57.8384 20.58C57.465 20.9533 56.9144 21.14 56.1864 21.14C55.3464 21.14 54.581 21.0747 53.8904 20.944C53.2184 20.8133 52.6304 20.5987 52.1264 20.3C51.641 19.9827 51.2397 19.572 50.9224 19.068C50.6237 18.5453 50.437 17.9107 50.3624 17.164H51.7064C51.3704 18.06 50.941 18.7787 50.4184 19.32C49.9144 19.8427 49.345 20.2347 48.7104 20.496C48.0757 20.7573 47.413 20.9253 46.7224 21C46.0504 21.0933 45.3877 21.14 44.7344 21.14ZM52.5464 27.636C52.005 27.636 51.5384 27.44 51.1464 27.048C50.773 26.6747 50.5864 26.2267 50.5864 25.704C50.5864 25.1627 50.773 24.696 51.1464 24.304C51.5384 23.912 52.005 23.716 52.5464 23.716C53.069 23.716 53.517 23.912 53.8904 24.304C54.2637 24.696 54.4504 25.1627 54.4504 25.704C54.4504 26.2267 54.2637 26.6747 53.8904 27.048C53.517 27.44 53.069 27.636 52.5464 27.636ZM47.7024 27.636C47.161 27.636 46.6944 27.44 46.3024 27.048C45.929 26.6747 45.7424 26.2267 45.7424 25.704C45.7424 25.1627 45.929 24.696 46.3024 24.304C46.6944 23.912 47.161 23.716 47.7024 23.716C48.225 23.716 48.673 23.912 49.0464 24.304C49.4197 24.696 49.6064 25.1627 49.6064 25.704C49.6064 26.2267 49.4197 26.6747 49.0464 27.048C48.673 27.44 48.225 27.636 47.7024 27.636ZM56.1914 21.14L56.4714 17.22C57.1434 17.22 57.7221 17.1547 58.2074 17.024C58.6927 16.8933 59.1034 16.632 59.4394 16.24C59.7754 15.8293 60.0554 15.232 60.2794 14.448C60.5221 13.664 60.7367 12.6187 60.9234 11.312L64.5914 11.928C64.5541 12.208 64.4981 12.5347 64.4234 12.908C64.3674 13.2813 64.3114 13.664 64.2554 14.056C64.2181 14.4293 64.1994 14.784 64.1994 15.12C64.1994 15.456 64.2647 15.7547 64.3954 16.016C64.5261 16.2773 64.7314 16.5013 65.0114 16.688C65.3101 16.856 65.6927 16.9867 66.1594 17.08C66.6447 17.1733 67.2327 17.22 67.9234 17.22C68.6327 17.22 69.1367 17.4067 69.4354 17.78C69.7341 18.1347 69.8834 18.5827 69.8834 19.124C69.8834 19.7027 69.6874 20.188 69.2954 20.58C68.9221 20.9533 68.3714 21.14 67.6434 21.14C66.8034 21.14 66.0381 21.0747 65.3474 20.944C64.6754 20.8133 64.0874 20.5987 63.5834 20.3C63.0981 19.9827 62.6967 19.572 62.3794 19.068C62.0807 18.5453 61.8941 17.9107 61.8194 17.164H63.1634C62.8274 18.06 62.3981 18.7787 61.8754 19.32C61.3714 19.8427 60.8021 20.2347 60.1674 20.496C59.5327 20.7573 58.8701 20.9253 58.1794 21C57.5074 21.0933 56.8447 21.14 56.1914 21.14ZM64.0034 27.636C63.4621 27.636 62.9954 27.44 62.6034 27.048C62.2301 26.6747 62.0434 26.2267 62.0434 25.704C62.0434 25.1627 62.2301 24.696 62.6034 24.304C62.9954 23.912 63.4621 23.716 64.0034 23.716C64.5261 23.716 64.9741 23.912 65.3474 24.304C65.7207 24.696 65.9074 25.1627 65.9074 25.704C65.9074 26.2267 65.7207 26.6747 65.3474 27.048C64.9741 27.44 64.5261 27.636 64.0034 27.636ZM59.1594 27.636C58.6181 27.636 58.1514 27.44 57.7594 27.048C57.3861 26.6747 57.1994 26.2267 57.1994 25.704C57.1994 25.1627 57.3861 24.696 57.7594 24.304C58.1514 23.912 58.6181 23.716 59.1594 23.716C59.6821 23.716 60.1301 23.912 60.5034 24.304C60.8767 24.696 61.0634 25.1627 61.0634 25.704C61.0634 26.2267 60.8767 26.6747 60.5034 27.048C60.1301 27.44 59.6821 27.636 59.1594 27.636ZM67.6484 21.14L67.9284 17.248C68.6564 17.2667 69.3284 17.2573 69.9444 17.22C70.5604 17.1827 71.1111 17.1267 71.5964 17.052C72.1004 16.9773 72.5391 16.8933 72.9124 16.8C73.3044 16.7067 73.6311 16.6227 73.8924 16.548C74.5271 16.3427 75.0684 16.1 75.5164 15.82C75.9644 15.5213 76.3098 15.1853 76.5524 14.812C76.7951 14.4387 76.9164 14.0373 76.9164 13.608C76.9164 13.272 76.8418 12.936 76.6924 12.6C76.5618 12.2453 76.3658 11.956 76.1044 11.732C75.8431 11.508 75.5351 11.396 75.1804 11.396C74.8444 11.396 74.5364 11.4987 74.2564 11.704C73.9764 11.9093 73.7524 12.1893 73.5844 12.544C73.4164 12.88 73.3324 13.272 73.3324 13.72C73.3324 14.112 73.4258 14.4853 73.6124 14.84C73.7991 15.176 74.0604 15.5027 74.3964 15.82C74.7324 16.1373 75.1338 16.436 75.6004 16.716L71.8764 18.144C71.4658 17.752 71.0738 17.332 70.7004 16.884C70.3458 16.436 70.0471 15.932 69.8044 15.372C69.5804 14.7933 69.4684 14.1493 69.4684 13.44C69.4684 12.5813 69.6364 11.7973 69.9724 11.088C70.3084 10.3787 70.7564 9.772 71.3164 9.268C71.8764 8.74533 72.5018 8.344 73.1924 8.064C73.8831 7.784 74.5738 7.644 75.2644 7.644C76.3844 7.644 77.3551 7.90533 78.1764 8.428C78.9978 8.95067 79.6324 9.632 80.0804 10.472C80.5471 11.312 80.7804 12.2267 80.7804 13.216C80.7804 14.1307 80.6124 14.952 80.2764 15.68C79.9404 16.3893 79.4831 17.024 78.9044 17.584C78.3444 18.1253 77.7191 18.6013 77.0284 19.012C76.3564 19.4227 75.6751 19.768 74.9844 20.048C74.6484 20.1973 74.2284 20.3373 73.7244 20.468C73.2204 20.5987 72.6511 20.72 72.0164 20.832C71.3818 20.9253 70.7004 21 69.9724 21.056C69.2444 21.112 68.4698 21.14 67.6484 21.14ZM82.4324 21.14C81.3498 21.14 80.2858 21.084 79.2404 20.972C78.1951 20.86 77.2244 20.692 76.3284 20.468C75.4511 20.244 74.6858 19.9733 74.0324 19.656L75.9644 16.632C76.5244 16.7813 77.1778 16.9027 77.9244 16.996C78.6898 17.0707 79.4831 17.1267 80.3044 17.164C81.1444 17.2013 81.9471 17.22 82.7124 17.22C83.4218 17.22 83.9258 17.4067 84.2244 17.78C84.5418 18.1347 84.7004 18.5827 84.7004 19.124C84.7004 19.7027 84.5044 20.188 84.1124 20.58C83.7204 20.9533 83.1604 21.14 82.4324 21.14ZM77.7284 5.096C77.1871 5.096 76.7204 4.90933 76.3284 4.536C75.9551 4.144 75.7684 3.68667 75.7684 3.164C75.7684 2.62267 75.9551 2.156 76.3284 1.764C76.7204 1.372 77.1871 1.176 77.7284 1.176C78.2511 1.176 78.6991 1.372 79.0724 1.764C79.4458 2.156 79.6324 2.62267 79.6324 3.164C79.6324 3.68667 79.4458 4.144 79.0724 4.536C78.6991 4.90933 78.2511 5.096 77.7284 5.096ZM72.8844 5.068C72.3431 5.068 71.8764 4.88133 71.4844 4.508C71.1111 4.116 70.9244 3.65867 70.9244 3.136C70.9244 2.59467 71.1111 2.128 71.4844 1.736C71.8764 1.344 72.3431 1.148 72.8844 1.148C73.4071 1.148 73.8551 1.344 74.2284 1.736C74.6018 2.128 74.7884 2.59467 74.7884 3.136C74.7884 3.65867 74.6018 4.116 74.2284 4.508C73.8551 4.88133 73.4071 5.068 72.8844 5.068ZM82.4688 21.14L82.7488 17.22C83.8688 17.22 84.7274 17.164 85.3248 17.052C85.9221 16.94 86.3328 16.7347 86.5568 16.436C86.7994 16.1187 86.9208 15.6707 86.9208 15.092C86.9208 14.5693 86.8461 13.944 86.6968 13.216C86.5661 12.488 86.3888 11.732 86.1647 10.948C85.9594 10.164 85.7354 9.44533 85.4928 8.792L89.3568 7.728C89.5994 8.36267 89.8328 9.1 90.0568 9.94C90.2808 10.78 90.4674 11.648 90.6168 12.544C90.7661 13.4213 90.8408 14.2707 90.8408 15.092C90.8408 16.3613 90.6354 17.3973 90.2248 18.2C89.8141 18.984 89.2354 19.5907 88.4888 20.02C87.7608 20.4493 86.8834 20.748 85.8568 20.916C84.8301 21.0653 83.7007 21.14 82.4688 21.14ZM90.0568 5.46C89.5154 5.46 89.0488 5.27333 88.6568 4.9C88.2834 4.508 88.0968 4.05067 88.0968 3.528C88.0968 2.98667 88.2834 2.52 88.6568 2.128C89.0488 1.736 89.5154 1.54 90.0568 1.54C90.5794 1.54 91.0274 1.736 91.4008 2.128C91.7741 2.52 91.9608 2.98667 91.9608 3.528C91.9608 4.05067 91.7741 4.508 91.4008 4.9C91.0274 5.27333 90.5794 5.46 90.0568 5.46ZM85.2128 5.432C84.6714 5.432 84.2048 5.24533 83.8128 4.872C83.4394 4.48 83.2528 4.02267 83.2528 3.5C83.2528 2.95867 83.4394 2.492 83.8128 2.1C84.2048 1.708 84.6714 1.512 85.2128 1.512C85.7354 1.512 86.1834 1.708 86.5568 2.1C86.9301 2.492 87.1168 2.95867 87.1168 3.5C87.1168 4.02267 86.9301 4.48 86.5568 4.872C86.1834 5.24533 85.7354 5.432 85.2128 5.432ZM112.826 21.588L113.554 17.668C114.898 17.668 116.186 17.6027 117.418 17.472C118.668 17.3413 119.854 17.08 120.974 16.688C122.112 16.296 123.176 15.7173 124.166 14.952C125.155 14.1867 126.051 13.16 126.854 11.872L129.99 13.3C129.878 13.6547 129.784 14 129.71 14.336C129.635 14.6533 129.598 14.9147 129.598 15.12C129.598 15.5493 129.7 15.9227 129.906 16.24C130.13 16.5573 130.503 16.8 131.026 16.968C131.548 17.136 132.267 17.22 133.182 17.22C133.891 17.22 134.395 17.4067 134.694 17.78C134.992 18.1347 135.142 18.5827 135.142 19.124C135.142 19.7027 134.946 20.188 134.554 20.58C134.18 20.9533 133.63 21.14 132.902 21.14C131.614 21.14 130.494 20.9627 129.542 20.608C128.608 20.2533 127.871 19.7587 127.33 19.124C126.807 18.4707 126.499 17.724 126.406 16.884L127.526 16.996C126.854 17.7987 126.014 18.4893 125.006 19.068C124.016 19.6467 122.887 20.1227 121.618 20.496C120.367 20.8693 118.995 21.14 117.502 21.308C116.027 21.4947 114.468 21.588 112.826 21.588ZM112.798 21.588C110.782 21.588 109.074 21.4293 107.674 21.112C106.292 20.8133 105.163 20.384 104.286 19.824C103.427 19.2453 102.802 18.5733 102.41 17.808C102.018 17.0427 101.822 16.2027 101.822 15.288C101.822 14.6907 101.868 14.0933 101.962 13.496C102.074 12.88 102.204 12.2827 102.354 11.704C102.522 11.1253 102.671 10.6027 102.802 10.136L106.302 10.948C106.227 11.284 106.143 11.648 106.05 12.04C105.956 12.432 105.882 12.8147 105.826 13.188C105.77 13.5427 105.742 13.8693 105.742 14.168C105.742 14.8587 105.984 15.4747 106.47 16.016C106.974 16.5387 107.795 16.9493 108.934 17.248C110.072 17.528 111.603 17.668 113.526 17.668L114.086 20.692L112.798 21.588ZM114.814 28.14C114.272 28.14 113.806 27.9533 113.414 27.58C113.04 27.2067 112.854 26.7493 112.854 26.208C112.854 25.6667 113.04 25.1907 113.414 24.78C113.806 24.388 114.272 24.192 114.814 24.192C115.355 24.192 115.812 24.388 116.186 24.78C116.578 25.1907 116.774 25.6667 116.774 26.208C116.774 26.7493 116.578 27.2067 116.186 27.58C115.812 27.9533 115.355 28.14 114.814 28.14ZM132.891 21.14L133.171 17.22C133.843 17.22 134.421 17.1547 134.907 17.024C135.392 16.8933 135.803 16.632 136.139 16.24C136.475 15.8293 136.755 15.232 136.979 14.448C137.221 13.664 137.436 12.6187 137.623 11.312L141.291 11.928C141.253 12.208 141.197 12.5347 141.123 12.908C141.067 13.2813 141.011 13.664 140.955 14.056C140.917 14.4293 140.899 14.784 140.899 15.12C140.899 15.456 140.964 15.7547 141.095 16.016C141.225 16.2773 141.431 16.5013 141.711 16.688C142.009 16.856 142.392 16.9867 142.859 17.08C143.344 17.1733 143.932 17.22 144.623 17.22C145.332 17.22 145.836 17.4067 146.135 17.78C146.433 18.1347 146.583 18.5827 146.583 19.124C146.583 19.7027 146.387 20.188 145.995 20.58C145.621 20.9533 145.071 21.14 144.343 21.14C143.503 21.14 142.737 21.0747 142.047 20.944C141.375 20.8133 140.787 20.5987 140.283 20.3C139.797 19.9827 139.396 19.572 139.079 19.068C138.78 18.5453 138.593 17.9107 138.519 17.164H139.863C139.527 18.06 139.097 18.7787 138.575 19.32C138.071 19.8427 137.501 20.2347 136.867 20.496C136.232 20.7573 135.569 20.9253 134.879 21C134.207 21.0933 133.544 21.14 132.891 21.14ZM141.879 8.792C141.337 8.792 140.871 8.60533 140.479 8.232C140.105 7.84 139.919 7.38267 139.919 6.86C139.919 6.31867 140.105 5.852 140.479 5.46C140.871 5.068 141.337 4.872 141.879 4.872C142.401 4.872 142.849 5.068 143.223 5.46C143.596 5.852 143.783 6.31867 143.783 6.86C143.783 7.38267 143.596 7.84 143.223 8.232C142.849 8.60533 142.401 8.792 141.879 8.792ZM137.035 8.764C136.493 8.764 136.027 8.57733 135.635 8.204C135.261 7.812 135.075 7.35467 135.075 6.832C135.075 6.29067 135.261 5.824 135.635 5.432C136.027 5.04 136.493 4.844 137.035 4.844C137.557 4.844 138.005 5.04 138.379 5.432C138.752 5.824 138.939 6.29067 138.939 6.832C138.939 7.35467 138.752 7.812 138.379 8.204C138.005 8.57733 137.557 8.764 137.035 8.764ZM144.348 21.14L144.628 17.22H148.632C149.024 17.22 149.369 17.2013 149.668 17.164C149.966 17.108 150.209 17.024 150.396 16.912C150.601 16.8 150.75 16.66 150.844 16.492C150.937 16.324 150.984 16.128 150.984 15.904C150.984 15.68 150.862 15.3253 150.62 14.84C150.396 14.336 149.901 13.7293 149.136 13.02C148.725 12.6467 148.277 12.2547 147.792 11.844C147.325 11.4147 146.877 11.0133 146.448 10.64C146.018 10.248 145.664 9.90267 145.384 9.604C145.104 9.30533 144.964 9.09067 144.964 8.96C144.964 8.68 144.982 8.372 145.02 8.036C145.057 7.7 145.113 7.392 145.188 7.112C145.281 6.832 145.402 6.62667 145.552 6.496C145.869 6.19733 146.336 5.852 146.952 5.46C147.586 5.04933 148.342 4.61067 149.22 4.144C150.097 3.65867 151.077 3.15467 152.16 2.632C153.261 2.09067 154.437 1.54933 155.688 1.008L157.284 4.424C156.257 4.872 155.286 5.31067 154.372 5.74C153.457 6.15067 152.598 6.56133 151.796 6.972C151.012 7.364 150.284 7.756 149.612 8.148C148.958 8.52133 148.38 8.89467 147.876 9.268L148.24 7.196C149.826 8.40933 151.086 9.50133 152.02 10.472C152.972 11.4427 153.681 12.3107 154.148 13.076C154.614 13.8227 154.922 14.4947 155.072 15.092C155.221 15.6707 155.296 16.184 155.296 16.632C155.296 17.08 155.184 17.5653 154.96 18.088C154.754 18.592 154.372 19.0773 153.812 19.544C153.27 20.0107 152.505 20.3933 151.516 20.692C150.526 20.9907 149.257 21.14 147.708 21.14H144.348ZM159.303 21L158.715 0.503999H162.635L163.223 21H159.303Z" fill="#F9F3E4"/>
</svg>
